<svg xmlns="http://www.w3.org/2000/svg" xmlns:xlink="http://www.w3.org/1999/xlink" id="svg" viewBox="51.12 55.57 293.56 283.35"><g id="svgg"><path id="path0" d="M307.987 55.968 C 307.845 56.338,307.562 56.641,307.357 56.641 C 307.152 56.641,307.094 56.465,307.227 56.250 C 307.610 55.630,303.906 55.817,302.148 56.507 C 301.289 56.845,299.926 57.207,299.119 57.313 C 298.312 57.418,297.554 57.662,297.435 57.854 C 297.317 58.046,296.913 58.203,296.539 58.203 C 296.165 58.203,295.640 58.423,295.371 58.691 C 295.103 58.960,294.760 59.196,294.609 59.215 C 293.077 59.413,288.937 61.981,289.274 62.525 C 289.395 62.721,289.256 62.791,288.966 62.679 C 288.344 62.441,284.375 65.876,284.375 66.653 C 284.375 66.947,284.155 67.192,283.887 67.198 C 283.337 67.210,281.420 69.631,281.584 70.105 C 281.642 70.273,281.298 70.609,280.819 70.850 C 279.012 71.761,274.561 81.739,273.993 86.153 C 273.279 91.709,274.269 101.764,275.418 100.625 C 275.510 100.534,275.603 100.943,275.624 101.535 C 275.646 102.127,275.953 103.194,276.308 103.905 C 276.663 104.616,276.953 105.396,276.953 105.637 C 276.953 106.299,278.280 107.300,278.925 107.125 C 279.399 106.997,279.403 107.034,278.952 107.350 C 278.492 107.671,278.492 107.842,278.952 108.496 C 280.509 110.710,285.284 115.565,287.598 117.286 C 289.048 118.365,290.234 119.358,290.234 119.492 C 290.234 119.627,290.575 119.910,290.992 120.122 C 291.408 120.334,292.885 121.166,294.274 121.971 C 295.663 122.775,297.212 123.478,297.716 123.533 C 298.220 123.588,298.721 123.733,298.828 123.856 C 299.183 124.263,303.906 125.437,304.273 125.210 C 304.471 125.088,304.742 125.163,304.875 125.378 C 305.008 125.593,305.504 125.747,305.976 125.720 C 306.449 125.693,307.583 125.792,308.496 125.940 C 309.602 126.120,310.156 126.067,310.156 125.782 C 310.156 125.511,310.758 125.424,311.809 125.545 C 313.797 125.773,319.823 124.904,322.266 124.037 C 325.190 122.999,330.266 120.403,331.037 119.551 C 331.436 119.110,331.960 118.750,332.203 118.750 C 332.787 118.750,336.719 114.755,336.719 114.161 C 336.719 113.907,337.222 113.122,337.838 112.416 C 342.645 106.903,346.071 92.010,344.110 85.152 C 343.454 82.855,343.465 82.901,343.408 82.254 C 343.381 81.948,343.052 81.388,342.676 81.012 C 342.025 80.360,342.034 80.338,342.871 80.557 C 343.941 80.836,343.942 80.814,342.969 78.906 C 342.539 78.064,342.188 77.171,342.188 76.921 C 342.188 75.053,334.706 64.844,333.337 64.844 C 333.048 64.844,332.807 64.624,332.800 64.355 C 332.779 63.521,327.239 60.175,325.856 60.161 C 325.575 60.158,325.453 59.980,325.586 59.766 C 325.800 59.419,324.964 59.217,323.535 59.270 C 323.267 59.280,323.047 59.142,323.047 58.963 C 323.047 58.785,322.695 58.706,322.266 58.789 C 321.836 58.872,321.484 58.789,321.484 58.605 C 321.484 57.685,315.917 56.159,312.373 56.107 C 310.402 56.078,308.667 55.884,308.517 55.675 C 308.362 55.458,308.134 55.584,307.987 55.968 M186.563 59.312 C 186.439 59.512,185.293 59.605,184.018 59.517 C 181.992 59.378,181.669 59.453,181.460 60.111 C 181.328 60.526,180.963 60.964,180.649 61.084 C 179.896 61.374,179.918 62.355,180.684 62.649 C 181.032 62.782,181.189 62.717,181.052 62.496 C 180.921 62.283,180.989 62.109,181.204 62.109 C 181.419 62.109,181.703 62.285,181.835 62.499 C 181.987 62.745,182.480 62.679,183.176 62.319 C 183.781 62.006,184.348 61.822,184.436 61.910 C 185.172 62.645,194.794 62.491,195.605 61.730 C 197.176 60.259,196.572 59.369,194.011 59.381 C 193.068 59.386,192.913 59.477,193.359 59.766 C 193.682 59.974,193.755 60.147,193.522 60.150 C 193.289 60.154,192.975 60.032,192.824 59.881 C 192.336 59.393,190.625 59.330,190.625 59.800 C 190.625 60.127,190.464 60.118,190.041 59.767 C 189.720 59.501,189.070 59.384,188.597 59.508 C 188.123 59.632,187.523 59.556,187.262 59.340 C 186.973 59.100,186.700 59.089,186.563 59.312 M210.547 60.198 C 210.547 60.436,210.283 60.529,209.961 60.406 C 209.334 60.165,209.125 61.552,209.674 62.310 C 210.101 62.900,216.646 64.176,219.333 64.194 C 221.078 64.206,221.824 64.386,222.263 64.902 C 223.368 66.202,225.977 66.043,225.975 64.676 C 225.974 63.787,225.756 63.473,224.999 63.270 C 224.462 63.125,223.243 62.629,222.290 62.168 C 221.336 61.706,220.090 61.328,219.520 61.328 C 218.951 61.328,217.110 60.977,215.430 60.547 C 211.988 59.667,210.547 59.564,210.547 60.198 M320.886 60.137 C 321.012 60.341,320.751 60.703,320.306 60.941 C 319.555 61.343,319.533 61.315,319.998 60.570 C 320.576 59.645,320.581 59.642,320.886 60.137 M167.773 61.415 C 167.344 61.665,166.553 61.902,166.016 61.943 C 163.105 62.160,160.982 62.506,159.949 62.931 C 159.311 63.193,158.646 63.375,158.471 63.336 C 157.866 63.200,155.078 64.188,155.078 64.538 C 155.078 64.732,154.910 64.786,154.705 64.659 C 153.998 64.222,151.457 65.567,151.715 66.241 C 151.846 66.582,151.953 66.934,151.953 67.024 C 151.953 67.114,152.378 67.188,152.897 67.188 C 153.416 67.188,153.904 67.376,153.981 67.606 C 154.062 67.850,154.565 67.675,155.185 67.187 C 155.771 66.726,156.250 66.544,156.250 66.782 C 156.250 67.076,156.473 67.096,156.947 66.842 C 157.330 66.637,158.427 66.352,159.386 66.209 C 160.344 66.066,161.240 65.767,161.378 65.544 C 161.516 65.321,161.868 65.224,162.162 65.327 C 162.455 65.431,163.525 65.193,164.539 64.799 C 165.553 64.405,167.083 64.035,167.938 63.975 C 169.109 63.894,169.592 63.651,169.893 62.993 C 170.682 61.262,169.522 60.399,167.773 61.415 M143.177 66.775 C 143.037 67.002,142.523 67.188,142.034 67.188 C 141.546 67.188,141.019 67.314,140.865 67.469 C 140.710 67.623,140.197 67.755,139.725 67.762 C 139.252 67.768,138.911 67.992,138.965 68.262 C 139.019 68.530,138.705 68.750,138.269 68.750 C 137.833 68.750,137.375 69.013,137.251 69.334 C 137.128 69.655,136.898 69.838,136.741 69.740 C 136.315 69.477,131.042 71.417,131.131 71.804 C 131.172 71.986,130.717 72.135,130.119 72.135 C 127.924 72.135,125.505 73.688,125.694 74.976 C 125.858 76.089,126.858 76.897,127.313 76.283 C 127.437 76.114,127.803 75.929,128.125 75.872 C 128.768 75.757,131.273 74.719,135.076 72.992 C 136.429 72.378,137.713 71.875,137.931 71.875 C 138.149 71.875,138.202 71.672,138.049 71.424 C 137.879 71.149,137.941 71.079,138.209 71.245 C 138.451 71.394,139.173 71.245,139.813 70.914 C 140.453 70.583,141.262 70.313,141.610 70.313 C 141.958 70.313,142.509 70.047,142.833 69.723 C 143.157 69.399,143.564 69.221,143.737 69.328 C 144.261 69.652,144.990 68.462,144.854 67.506 C 144.719 66.560,143.610 66.076,143.177 66.775 M234.735 67.029 C 233.853 68.092,237.405 70.119,238.723 69.305 C 238.989 69.140,239.080 69.187,238.938 69.416 C 238.716 69.776,241.600 71.271,242.282 71.148 C 242.441 71.120,243.568 71.607,244.786 72.230 C 246.004 72.854,247.243 73.272,247.539 73.158 C 247.834 73.045,248.431 73.274,248.865 73.666 C 250.638 75.271,254.120 73.887,252.437 72.247 C 252.063 71.882,251.658 71.640,251.536 71.709 C 251.414 71.777,251.075 71.502,250.783 71.096 C 250.382 70.540,250.080 70.452,249.549 70.736 C 248.993 71.033,248.894 70.987,249.074 70.517 C 249.241 70.081,249.039 69.922,248.316 69.922 C 247.773 69.922,246.831 69.667,246.223 69.356 C 244.680 68.566,243.638 68.223,243.066 68.315 C 242.798 68.358,242.578 68.210,242.578 67.986 C 242.578 67.762,242.133 67.578,241.589 67.578 C 241.045 67.578,239.969 67.314,239.198 66.992 C 237.372 66.229,235.385 66.246,234.735 67.029 M315.230 73.247 C 314.857 73.696,314.612 73.732,314.206 73.394 C 313.454 72.771,313.530 72.656,314.696 72.656 C 315.566 72.656,315.647 72.745,315.230 73.247 M333.594 75.036 C 333.594 75.217,333.359 75.276,333.073 75.166 C 332.786 75.056,332.552 74.713,332.552 74.403 C 332.552 73.979,332.680 73.947,333.073 74.273 C 333.359 74.511,333.594 74.854,333.594 75.036 M291.879 77.355 C 291.778 78.037,291.541 78.403,291.296 78.252 C 291.038 78.093,290.977 78.241,291.132 78.647 C 291.492 79.584,291.203 79.446,290.473 78.332 C 289.935 77.510,289.928 77.401,290.428 77.593 C 290.751 77.717,291.016 77.618,291.016 77.373 C 291.016 76.656,289.888 76.430,289.189 77.007 C 288.639 77.462,288.573 77.454,288.738 76.953 C 288.929 76.376,290.813 75.797,291.629 76.065 C 291.860 76.140,291.972 76.721,291.879 77.355 M334.766 76.148 C 334.766 76.349,334.426 76.488,334.011 76.457 C 333.597 76.426,333.343 76.261,333.449 76.091 C 333.716 75.658,334.766 75.703,334.766 76.148 M317.061 77.210 C 316.919 77.352,316.999 77.703,317.239 77.991 C 317.559 78.377,317.558 78.516,317.235 78.516 C 316.994 78.516,316.797 78.442,316.797 78.352 C 316.797 78.262,316.690 77.911,316.560 77.571 C 316.420 77.207,316.527 76.953,316.820 76.953 C 317.094 76.953,317.202 77.069,317.061 77.210 M309.236 78.223 C 309.159 78.733,308.791 79.141,308.360 79.196 C 307.662 79.285,307.660 79.272,308.330 78.985 C 308.722 78.818,309.029 78.555,309.013 78.403 C 308.942 77.715,308.999 77.344,309.177 77.344 C 309.283 77.344,309.310 77.739,309.236 78.223 M293.527 79.252 C 293.645 79.442,293.303 79.682,292.769 79.784 C 291.675 79.993,291.419 79.453,292.480 79.176 C 292.856 79.077,293.198 78.976,293.239 78.952 C 293.280 78.927,293.409 79.062,293.527 79.252 M315.889 79.163 C 315.747 79.305,315.816 79.642,316.041 79.914 C 316.355 80.292,316.261 80.358,315.639 80.195 C 314.904 80.003,315.154 78.906,315.933 78.906 C 316.050 78.906,316.030 79.022,315.889 79.163 M317.578 79.688 C 317.578 80.117,317.418 80.469,317.222 80.469 C 316.939 80.469,316.910 79.812,317.158 79.004 C 317.286 78.585,317.578 79.059,317.578 79.688 M112.500 82.237 C 110.889 83.396,109.438 84.350,109.277 84.359 C 109.116 84.368,108.667 84.683,108.279 85.059 C 107.891 85.435,107.053 86.182,106.416 86.719 C 104.687 88.176,103.621 90.396,104.272 91.181 C 104.862 91.892,105.654 92.023,105.232 91.340 C 105.041 91.030,105.165 90.966,105.620 91.140 C 105.990 91.282,106.191 91.237,106.069 91.039 C 105.948 90.842,106.205 90.568,106.641 90.430 C 107.077 90.291,107.332 90.015,107.209 89.816 C 107.086 89.616,107.226 89.453,107.521 89.453 C 107.816 89.453,108.573 88.914,109.204 88.254 C 109.835 87.595,110.923 86.784,111.621 86.452 C 112.319 86.120,112.891 85.693,112.891 85.502 C 112.891 85.312,113.110 85.153,113.379 85.150 C 113.647 85.146,114.281 84.706,114.787 84.173 C 115.293 83.640,115.963 83.203,116.275 83.203 C 116.587 83.203,116.742 83.040,116.619 82.840 C 116.496 82.641,116.793 82.421,117.279 82.352 C 117.924 82.261,118.164 81.967,118.164 81.269 C 118.164 79.409,115.896 79.796,112.500 82.237 M333.082 84.942 C 332.323 85.701,332.173 85.698,331.873 84.917 C 331.702 84.471,331.800 84.353,332.210 84.510 C 332.527 84.632,332.899 84.552,333.034 84.332 C 333.170 84.112,333.373 84.024,333.484 84.135 C 333.596 84.247,333.415 84.610,333.082 84.942 M186.719 86.255 C 185.752 86.322,184.794 86.542,184.590 86.743 C 184.063 87.263,183.493 87.198,183.828 86.656 C 184.036 86.319,183.271 86.271,180.823 86.470 C 179.017 86.617,176.309 86.836,174.805 86.956 C 172.473 87.143,171.943 87.328,171.205 88.206 C 170.382 89.187,170.351 89.193,170.573 88.347 C 170.827 87.374,168.873 87.357,165.625 88.305 C 164.873 88.525,163.379 88.962,162.305 89.276 C 161.230 89.591,159.596 90.032,158.672 90.257 C 157.193 90.617,157.022 90.769,157.247 91.524 C 157.494 92.353,157.483 92.357,156.929 91.630 C 155.681 89.993,135.074 98.468,130.656 102.435 C 129.124 103.811,128.678 104.105,128.068 104.144 C 127.288 104.195,123.830 106.311,123.829 106.738 C 123.828 106.899,123.633 107.031,123.394 107.031 C 122.922 107.031,119.669 109.603,117.736 111.506 C 117.071 112.160,114.731 114.453,112.535 116.602 C 110.339 118.750,107.491 121.826,106.206 123.438 C 101.103 129.834,100.391 130.781,100.391 131.162 C 100.391 131.379,100.116 131.662,99.780 131.791 C 99.444 131.920,99.279 132.204,99.414 132.422 C 99.549 132.640,99.384 132.923,99.048 133.052 C 98.712 133.181,98.438 133.442,98.438 133.633 C 98.438 133.823,98.064 134.409,97.606 134.934 C 97.149 135.460,96.578 136.237,96.337 136.661 C 96.096 137.085,95.268 138.458,94.497 139.712 C 92.048 143.695,90.839 145.890,90.929 146.191 C 90.977 146.353,90.859 146.484,90.667 146.484 C 90.476 146.484,90.026 147.144,89.668 147.949 C 89.309 148.755,88.597 150.205,88.086 151.172 C 87.574 152.139,87.145 153.156,87.132 153.434 C 87.120 153.711,86.721 154.677,86.246 155.582 C 83.773 160.294,80.269 172.920,79.501 179.883 C 79.383 180.957,79.183 182.627,79.057 183.594 C 78.513 187.774,78.581 190.634,79.240 191.300 C 79.837 191.902,79.834 191.930,79.199 191.690 C 78.823 191.547,78.502 191.557,78.486 191.711 C 78.249 193.988,78.075 202.348,78.203 205.371 C 78.219 205.747,78.405 206.274,78.617 206.543 C 78.879 206.875,78.855 207.031,78.540 207.031 C 78.287 207.031,78.158 207.163,78.254 207.324 C 78.350 207.485,78.543 208.672,78.683 209.961 C 79.370 216.292,80.097 219.952,80.610 219.665 C 80.934 219.484,80.933 219.549,80.605 219.904 C 80.293 220.242,80.268 220.769,80.523 221.622 C 81.617 225.282,82.348 228.093,82.392 228.809 C 82.408 229.077,82.729 229.300,83.105 229.303 C 83.639 229.308,83.672 229.383,83.258 229.645 C 82.740 229.974,83.185 232.161,84.021 233.398 C 84.166 233.613,84.415 234.404,84.575 235.156 C 84.735 235.908,85.046 236.963,85.266 237.500 C 85.487 238.037,85.712 238.695,85.767 238.963 C 86.132 240.727,89.745 249.174,92.076 253.711 C 92.407 254.355,93.202 255.938,93.842 257.227 C 94.483 258.516,95.121 259.658,95.261 259.766 C 95.401 259.873,95.977 260.664,96.542 261.523 C 97.107 262.383,98.194 263.778,98.958 264.624 C 99.721 265.470,100.274 266.279,100.186 266.421 C 100.098 266.563,100.454 266.908,100.977 267.188 C 101.499 267.467,101.848 267.823,101.752 267.979 C 101.463 268.446,105.568 272.311,106.125 272.097 C 106.441 271.976,106.641 272.188,106.641 272.642 C 106.641 273.051,106.992 273.496,107.422 273.633 C 107.852 273.769,108.204 274.001,108.205 274.147 C 108.209 274.710,110.927 277.344,111.504 277.344 C 111.837 277.344,112.109 277.574,112.109 277.856 C 112.109 278.570,116.037 282.379,120.443 285.938 C 121.108 286.475,122.362 287.538,123.229 288.301 C 126.630 291.294,129.915 293.637,130.568 293.535 C 130.945 293.476,131.150 293.596,131.023 293.801 C 130.691 294.339,131.670 295.385,132.284 295.149 C 132.570 295.040,132.761 295.141,132.710 295.374 C 132.659 295.606,133.145 296.122,133.789 296.518 C 136.494 298.183,136.441 298.158,136.123 297.598 C 135.958 297.308,136.207 297.466,136.677 297.949 C 137.146 298.433,137.768 298.828,138.059 298.828 C 138.350 298.828,138.697 299.112,138.830 299.458 C 138.984 299.858,139.356 300.014,139.849 299.885 C 140.276 299.774,140.540 299.821,140.436 299.990 C 140.198 300.375,146.065 302.799,146.533 302.509 C 146.721 302.393,146.875 302.450,146.875 302.636 C 146.875 302.954,148.054 303.516,151.758 304.964 C 152.617 305.300,153.848 305.788,154.492 306.049 C 156.639 306.918,160.949 308.296,161.914 308.421 C 162.129 308.449,162.832 308.703,163.477 308.984 C 164.121 309.266,165.378 309.513,166.270 309.534 C 167.161 309.554,167.831 309.669,167.757 309.790 C 167.559 310.114,172.219 311.012,172.666 310.736 C 172.875 310.607,173.047 310.707,173.047 310.960 C 173.047 311.229,173.375 311.333,173.838 311.212 C 174.272 311.099,175.283 311.187,176.084 311.408 C 176.884 311.629,178.242 311.844,179.102 311.886 C 179.961 311.927,181.150 312.102,181.743 312.274 C 182.478 312.487,183.032 312.417,183.478 312.055 C 183.872 311.736,184.022 311.710,183.855 311.989 C 183.653 312.326,184.114 312.451,185.515 312.440 C 186.581 312.432,187.659 312.552,187.910 312.707 C 188.383 313.000,192.003 312.994,194.727 312.697 C 195.586 312.604,198.486 312.434,201.172 312.321 C 203.857 312.208,207.549 311.834,209.375 311.489 C 211.201 311.144,212.989 310.867,213.347 310.873 C 213.706 310.879,214.096 310.633,214.214 310.325 C 214.332 310.017,214.620 309.766,214.855 309.766 C 215.089 309.766,215.172 309.941,215.039 310.156 C 214.906 310.371,215.072 310.547,215.407 310.547 C 215.742 310.547,216.016 310.356,216.016 310.124 C 216.016 309.891,216.235 309.775,216.504 309.865 C 216.950 310.016,219.360 309.477,221.289 308.796 C 221.917 308.574,221.955 308.603,221.484 308.942 C 220.483 309.662,221.592 309.393,223.520 308.449 C 224.531 307.953,225.245 307.739,225.105 307.973 C 224.937 308.253,225.042 308.247,225.413 307.954 C 225.723 307.709,227.471 307.021,229.297 306.423 C 231.123 305.826,232.969 305.117,233.398 304.848 C 233.828 304.579,235.101 304.061,236.227 303.698 C 237.352 303.335,238.177 302.882,238.059 302.691 C 237.941 302.500,238.185 302.344,238.601 302.344 C 239.480 302.344,240.361 301.443,239.938 300.976 C 239.779 300.800,239.853 300.773,240.104 300.917 C 240.769 301.297,245.405 299.056,249.175 296.531 C 250.978 295.324,252.911 294.049,253.472 293.699 C 254.033 293.349,254.444 292.853,254.385 292.596 C 254.326 292.339,254.449 292.235,254.658 292.365 C 255.201 292.700,263.382 286.416,263.066 285.906 C 262.974 285.757,263.205 285.659,263.578 285.689 C 264.062 285.727,264.231 285.489,264.165 284.863 C 264.114 284.380,264.256 283.984,264.481 283.984 C 264.706 283.984,264.781 284.160,264.648 284.375 C 264.516 284.590,264.595 284.766,264.824 284.766 C 265.517 284.766,267.669 282.494,267.396 282.052 C 267.256 281.826,267.328 281.641,267.555 281.641 C 267.783 281.641,267.972 281.860,267.975 282.129 C 267.979 282.397,268.348 282.046,268.795 281.348 C 269.242 280.649,269.724 280.078,269.867 280.078 C 270.807 280.078,272.353 277.968,271.642 277.655 C 270.970 277.359,270.979 277.343,271.728 277.482 C 273.121 277.740,279.336 271.322,281.014 267.892 C 281.608 266.678,282.334 265.592,282.628 265.480 C 282.922 265.367,283.456 264.694,283.814 263.985 C 284.173 263.276,284.816 262.313,285.243 261.845 C 285.670 261.378,285.903 260.807,285.760 260.576 C 285.617 260.345,285.647 260.156,285.826 260.156 C 286.004 260.156,286.490 259.497,286.904 258.691 C 287.319 257.886,287.824 257.002,288.026 256.729 C 288.740 255.760,293.769 244.420,293.572 244.223 C 293.462 244.113,293.610 243.829,293.901 243.593 C 294.193 243.357,295.260 240.527,296.272 237.305 C 297.285 234.082,298.378 230.604,298.702 229.575 C 299.026 228.547,299.189 227.439,299.064 227.114 C 298.935 226.777,299.004 226.625,299.223 226.761 C 299.618 227.004,299.754 226.512,299.630 225.293 C 299.592 224.917,299.715 224.609,299.904 224.609 C 300.093 224.609,300.478 223.423,300.761 221.973 C 301.044 220.522,301.412 219.068,301.581 218.740 C 301.961 218.000,302.912 212.095,303.535 206.615 C 304.502 198.104,303.273 179.696,301.637 178.184 C 301.253 177.829,301.172 177.696,301.456 177.888 C 302.410 178.532,302.446 177.785,301.613 174.621 C 301.157 172.891,300.804 171.346,300.829 171.187 C 300.854 171.028,300.840 170.811,300.798 170.703 C 300.757 170.596,300.655 170.149,300.572 169.710 C 300.488 169.272,299.957 167.602,299.391 165.999 C 298.825 164.397,298.176 162.383,297.949 161.523 C 297.722 160.664,297.036 158.665,296.424 157.081 C 295.813 155.497,295.312 154.003,295.312 153.761 C 295.312 153.518,294.700 152.090,293.952 150.586 C 293.203 149.082,292.588 147.720,292.585 147.560 C 292.577 147.197,289.765 141.355,289.341 140.820 C 289.171 140.605,287.977 138.726,286.689 136.644 C 285.400 134.561,283.835 132.427,283.210 131.902 C 282.586 131.376,282.182 130.839,282.313 130.708 C 282.445 130.576,282.347 130.469,282.096 130.469 C 281.846 130.469,281.685 130.333,281.738 130.167 C 282.020 129.297,279.366 126.508,278.931 127.217 C 278.547 127.844,278.507 127.803,278.601 126.881 C 278.731 125.621,275.101 121.080,274.605 121.882 C 274.385 122.238,274.249 122.240,274.033 121.891 C 273.877 121.639,273.841 121.341,273.952 121.230 C 274.266 120.917,272.971 119.533,271.777 118.905 C 271.187 118.594,270.703 118.080,270.703 117.763 C 270.703 117.447,270.535 117.188,270.330 117.188 C 269.837 117.188,267.761 115.121,267.877 114.746 C 267.928 114.585,267.573 114.450,267.090 114.447 C 266.379 114.442,266.323 114.369,266.797 114.063 C 267.119 113.854,267.207 113.680,266.992 113.674 C 266.777 113.669,265.723 112.867,264.648 111.892 C 261.954 109.446,258.801 107.091,257.625 106.643 C 257.083 106.438,256.641 106.016,256.641 105.706 C 256.641 105.397,256.157 104.967,255.566 104.751 C 254.976 104.535,254.712 104.345,254.980 104.328 C 255.938 104.267,255.446 103.664,254.018 103.148 C 253.220 102.860,252.327 102.383,252.034 102.089 C 251.740 101.796,251.338 101.655,251.140 101.777 C 250.943 101.899,250.779 101.857,250.777 101.683 C 250.774 101.509,250.071 101.031,249.214 100.621 C 248.357 100.210,247.656 99.727,247.656 99.547 C 247.656 99.366,247.473 99.219,247.249 99.219 C 247.024 99.219,246.892 99.471,246.956 99.779 C 247.019 100.087,246.895 100.307,246.680 100.267 C 246.465 100.228,246.334 99.835,246.389 99.395 C 246.490 98.592,243.754 96.875,242.372 96.875 C 242.056 96.875,241.797 96.723,241.797 96.537 C 241.797 96.174,237.047 93.945,235.382 93.527 C 234.601 93.331,234.375 93.421,234.375 93.926 C 234.375 94.284,234.207 94.473,234.001 94.346 C 233.796 94.219,233.739 93.827,233.874 93.474 C 234.064 92.978,233.960 92.894,233.411 93.105 C 232.855 93.319,232.794 93.266,233.129 92.862 C 233.466 92.456,233.168 92.237,231.720 91.825 C 230.709 91.538,228.960 90.988,227.832 90.603 C 226.704 90.218,225.781 89.999,225.781 90.116 C 225.781 90.234,225.533 90.124,225.230 89.873 C 224.853 89.560,224.599 89.545,224.426 89.825 C 224.287 90.050,223.997 90.234,223.782 90.234 C 223.567 90.234,223.518 90.029,223.674 89.777 C 223.861 89.474,223.747 89.401,223.332 89.560 C 222.988 89.692,222.641 89.604,222.562 89.364 C 222.482 89.125,222.075 88.878,221.657 88.816 C 221.240 88.753,219.932 88.501,218.750 88.256 C 217.568 88.010,216.250 87.767,215.820 87.717 C 215.391 87.666,214.512 87.516,213.867 87.382 C 210.866 86.761,209.321 86.599,206.084 86.562 C 204.017 86.539,202.422 86.698,202.166 86.953 C 201.853 87.266,201.608 87.246,201.268 86.882 C 200.901 86.489,200.945 86.338,201.474 86.178 C 201.845 86.066,201.533 86.027,200.781 86.092 C 200.029 86.156,199.063 86.340,198.633 86.501 C 198.134 86.687,198.028 86.665,198.338 86.441 C 198.803 86.104,190.737 85.976,186.719 86.255 M187.311 87.076 C 186.596 87.355,185.156 87.217,185.156 86.869 C 185.156 86.786,185.815 86.731,186.621 86.746 C 187.737 86.767,187.901 86.846,187.311 87.076 M318.583 87.500 C 318.583 88.294,318.307 88.489,317.842 88.024 C 317.701 87.883,317.781 87.531,318.020 87.243 C 318.578 86.571,318.583 86.574,318.583 87.500 M179.908 89.363 C 179.763 89.507,179.481 89.367,179.282 89.051 C 178.698 88.128,178.851 87.780,179.539 88.467 C 179.887 88.815,180.053 89.218,179.908 89.363 M192.895 89.398 C 193.473 89.609,193.677 89.796,193.349 89.813 C 192.423 89.861,190.962 88.683,191.293 88.157 C 191.494 87.837,191.623 87.897,191.714 88.354 C 191.786 88.717,192.317 89.186,192.895 89.398 M343.981 89.352 C 343.854 89.479,343.750 89.378,343.750 89.128 C 343.750 88.877,343.442 88.669,343.066 88.666 C 342.488 88.661,342.472 88.603,342.963 88.293 C 343.557 87.918,344.468 88.865,343.981 89.352 M316.400 91.260 C 316.405 91.880,316.166 92.090,315.458 92.090 C 314.517 92.090,314.527 91.304,315.490 89.746 C 315.804 89.238,316.393 90.217,316.400 91.260 M219.663 92.871 C 219.760 93.032,219.595 93.391,219.295 93.668 C 218.842 94.086,218.750 94.037,218.750 93.375 C 218.750 92.596,219.309 92.288,219.663 92.871 M232.031 92.969 C 232.031 93.458,231.617 93.458,230.859 92.969 C 230.386 92.663,230.442 92.589,231.152 92.584 C 231.636 92.581,232.031 92.754,232.031 92.969 M305.078 93.430 C 305.078 93.606,304.727 93.750,304.297 93.750 C 303.867 93.750,303.388 93.763,303.232 93.779 C 303.077 93.795,302.897 93.652,302.833 93.460 C 302.769 93.268,303.248 93.111,303.897 93.111 C 304.547 93.111,305.078 93.255,305.078 93.430 M207.422 94.531 C 206.939 94.843,206.934 94.911,207.389 94.916 C 208.202 94.925,207.539 95.449,206.631 95.516 C 205.904 95.569,205.896 95.529,206.504 94.857 C 206.861 94.463,207.345 94.143,207.580 94.147 C 207.815 94.150,207.744 94.323,207.422 94.531 M305.859 94.727 C 305.471 95.194,305.471 95.313,305.859 95.313 C 306.234 95.313,306.227 95.455,305.828 95.936 C 305.358 96.503,305.284 96.494,305.026 95.839 C 304.596 94.746,304.631 94.603,305.371 94.410 C 305.747 94.312,306.120 94.211,306.200 94.186 C 306.280 94.161,306.127 94.404,305.859 94.727 M94.238 95.871 C 93.781 96.396,93.588 96.886,93.808 96.959 C 94.028 97.033,93.578 97.340,92.808 97.643 C 92.037 97.945,91.406 98.424,91.406 98.706 C 91.406 98.988,91.274 99.219,91.112 99.219 C 90.663 99.219,84.269 105.855,84.707 105.865 C 84.847 105.869,84.782 106.000,84.562 106.158 C 84.092 106.497,83.037 108.659,83.135 109.082 C 83.172 109.243,82.956 109.375,82.654 109.375 C 81.608 109.375,82.660 111.693,83.714 111.713 C 83.888 111.716,83.922 111.543,83.789 111.328 C 83.656 111.113,83.910 110.938,84.352 110.938 C 84.794 110.938,85.156 110.797,85.156 110.626 C 85.156 110.454,85.766 109.707,86.511 108.966 C 87.256 108.224,87.871 107.506,87.878 107.369 C 87.896 107.015,92.760 101.784,95.410 99.270 C 97.864 96.942,97.878 96.916,97.168 96.013 C 96.285 94.889,95.140 94.833,94.238 95.871 M160.938 95.703 C 160.938 96.193,160.523 96.193,159.766 95.703 C 159.292 95.397,159.348 95.323,160.059 95.318 C 160.542 95.315,160.938 95.488,160.938 95.703 M343.359 96.875 C 343.359 97.364,342.945 97.364,342.188 96.875 C 341.714 96.569,341.770 96.495,342.480 96.490 C 342.964 96.487,343.359 96.660,343.359 96.875 M166.574 97.489 C 167.281 98.196,167.375 98.828,166.774 98.828 C 166.546 98.828,166.469 98.652,166.602 98.438 C 166.734 98.223,166.569 98.047,166.234 98.047 C 165.899 98.047,165.625 97.783,165.625 97.461 C 165.625 96.718,165.809 96.724,166.574 97.489 M318.583 97.591 C 318.583 97.985,318.357 98.307,318.080 98.307 C 317.452 98.307,317.439 97.951,318.047 97.344 C 318.628 96.763,318.583 96.742,318.583 97.591 M309.154 99.178 C 309.273 99.370,309.108 99.628,308.787 99.751 C 308.432 99.888,308.203 99.750,308.203 99.402 C 308.203 98.770,308.814 98.626,309.154 99.178 M336.706 100.805 C 336.260 101.639,335.516 101.664,335.246 100.854 C 335.151 100.569,335.329 100.481,335.710 100.627 C 336.050 100.758,336.328 100.670,336.328 100.432 C 336.328 100.195,336.510 100.000,336.732 100.000 C 337.003 100.000,336.994 100.267,336.706 100.805 M317.578 101.953 C 317.578 102.168,317.183 102.341,316.699 102.338 C 315.989 102.333,315.932 102.259,316.406 101.953 C 317.164 101.464,317.578 101.464,317.578 101.953 M179.492 103.599 C 179.492 104.532,179.335 104.688,178.395 104.688 C 177.689 104.688,177.393 104.532,177.566 104.253 C 177.714 104.014,177.592 103.665,177.296 103.478 C 176.870 103.208,176.901 103.136,177.441 103.131 C 177.817 103.128,178.125 102.987,178.125 102.818 C 178.125 102.649,178.433 102.511,178.809 102.511 C 179.296 102.511,179.492 102.823,179.492 103.599 M241.805 104.483 C 241.533 104.810,241.024 105.064,240.675 105.047 C 240.142 105.021,240.134 104.981,240.625 104.795 C 240.947 104.673,241.359 104.322,241.540 104.015 C 241.721 103.708,241.965 103.554,242.084 103.672 C 242.202 103.791,242.076 104.155,241.805 104.483 M310.156 104.251 C 310.156 104.441,309.805 104.688,309.375 104.801 C 308.945 104.913,308.594 104.859,308.594 104.680 C 308.594 104.501,308.901 104.274,309.277 104.176 C 309.653 104.077,310.005 103.976,310.059 103.952 C 310.112 103.927,310.156 104.062,310.156 104.251 M157.517 105.664 C 157.341 106.585,156.250 107.089,156.250 106.250 C 156.250 106.035,156.436 105.859,156.664 105.859 C 156.891 105.859,156.978 105.699,156.857 105.502 C 156.735 105.306,156.857 105.056,157.126 104.947 C 157.396 104.838,157.637 104.735,157.661 104.718 C 157.685 104.701,157.620 105.127,157.517 105.664 M225.781 106.023 C 225.781 106.327,225.888 106.855,226.018 107.195 C 226.181 107.620,226.029 107.816,225.530 107.825 C 224.835 107.837,224.836 107.861,225.557 108.407 C 225.971 108.720,226.189 109.097,226.042 109.245 C 225.511 109.776,224.634 108.058,225.130 107.458 C 225.509 106.999,225.404 106.940,224.512 107.109 C 223.288 107.342,223.026 106.675,224.219 106.363 C 224.648 106.251,225.000 106.004,225.000 105.814 C 225.000 105.624,225.176 105.469,225.391 105.469 C 225.605 105.469,225.781 105.718,225.781 106.023 M289.063 106.259 C 289.063 106.429,288.711 106.476,288.281 106.363 C 287.852 106.251,287.500 106.020,287.500 105.850 C 287.500 105.681,287.852 105.634,288.281 105.746 C 288.711 105.859,289.063 106.089,289.063 106.259 M237.940 107.290 C 238.399 107.846,238.393 107.912,237.898 107.748 C 237.580 107.643,237.011 107.922,236.633 108.368 C 235.971 109.150,235.968 109.134,236.556 107.910 C 237.266 106.434,237.242 106.444,237.940 107.290 M314.330 109.665 C 314.009 109.986,313.554 110.130,313.319 109.984 C 312.571 109.522,312.856 109.082,313.902 109.082 C 314.799 109.082,314.848 109.148,314.330 109.665 M239.966 109.799 C 239.510 110.256,236.719 110.561,236.719 110.154 C 236.719 109.812,237.775 109.553,239.385 109.502 C 239.884 109.486,240.146 109.620,239.966 109.799 M314.613 111.035 C 314.458 111.519,314.329 112.134,314.327 112.402 C 314.325 112.671,314.156 112.891,313.952 112.891 C 313.748 112.891,313.670 112.547,313.780 112.128 C 313.890 111.709,313.778 111.283,313.533 111.181 C 313.230 111.056,313.275 110.864,313.672 110.583 C 314.597 109.928,314.920 110.084,314.613 111.035 M173.047 110.955 C 173.047 111.108,172.783 111.451,172.461 111.719 C 172.056 112.055,171.875 112.070,171.875 111.767 C 171.875 111.525,171.617 111.328,171.301 111.328 C 170.976 111.328,170.817 111.560,170.933 111.864 C 171.046 112.158,170.892 112.494,170.591 112.609 C 170.192 112.763,170.091 112.571,170.220 111.900 C 170.327 111.336,170.719 110.930,171.233 110.850 C 172.603 110.636,173.047 110.661,173.047 110.955 M239.813 111.830 C 239.790 112.188,239.734 112.184,239.585 111.816 C 239.477 111.548,239.139 111.328,238.835 111.328 C 238.530 111.328,238.281 111.146,238.281 110.924 C 238.281 110.650,238.533 110.654,239.063 110.938 C 239.492 111.167,239.830 111.569,239.813 111.830 M319.141 112.049 C 319.141 112.205,318.789 112.333,318.359 112.333 C 317.491 112.333,317.308 111.881,318.066 111.609 C 318.619 111.411,319.141 111.625,319.141 112.049 M251.897 112.543 C 251.179 112.998,250.781 112.974,250.781 112.477 C 250.781 112.249,250.957 112.172,251.172 112.305 C 251.387 112.437,251.563 112.350,251.563 112.109 C 251.563 111.869,251.757 111.793,251.995 111.940 C 252.296 112.126,252.267 112.309,251.897 112.543 M121.126 112.450 C 121.252 112.477,121.354 112.747,121.354 113.048 C 121.354 113.575,119.958 113.247,119.044 112.505 C 118.804 112.310,120.312 112.270,121.126 112.450 M234.545 113.631 C 234.664 113.823,234.473 114.091,234.122 114.226 C 233.361 114.518,233.024 114.277,233.382 113.698 C 233.696 113.190,234.253 113.158,234.545 113.631 M195.703 116.406 C 195.703 116.836,195.549 117.188,195.360 117.188 C 194.848 117.188,194.109 116.178,194.404 115.882 C 194.939 115.347,195.703 115.656,195.703 116.406 M173.625 116.538 C 174.468 117.381,173.708 118.216,172.588 117.677 C 171.899 117.346,171.842 117.234,172.351 117.214 C 172.783 117.197,172.942 116.978,172.798 116.602 C 172.519 115.875,172.930 115.843,173.625 116.538 M262.716 117.492 C 262.505 117.704,261.328 116.590,261.328 116.178 C 261.328 116.022,261.681 116.214,262.112 116.604 C 262.543 116.994,262.815 117.394,262.716 117.492 M74.624 117.890 C 73.891 118.685,73.325 119.468,73.365 119.629 C 73.405 119.790,73.262 119.922,73.047 119.922 C 72.832 119.922,72.656 120.186,72.656 120.508 C 72.656 120.830,72.523 121.094,72.361 121.094 C 72.198 121.094,71.211 122.808,70.168 124.902 C 69.124 126.997,68.091 129.055,67.871 129.474 C 67.580 130.031,67.604 130.282,67.960 130.401 C 68.349 130.530,68.348 130.625,67.956 130.867 C 67.207 131.330,67.828 132.423,68.835 132.416 C 69.941 132.408,70.730 131.931,70.836 131.204 C 70.881 130.900,71.285 130.039,71.735 129.290 C 72.184 128.542,73.199 126.733,73.990 125.271 C 74.781 123.809,76.001 121.700,76.701 120.584 C 77.714 118.969,77.919 118.315,77.705 117.383 C 77.551 116.712,77.416 116.529,77.390 116.955 C 77.347 117.643,77.291 117.652,76.650 117.071 C 76.004 116.487,75.864 116.543,74.624 117.890 M187.109 119.767 C 187.646 120.097,187.764 120.266,187.370 120.144 C 186.977 120.022,186.307 119.922,185.882 119.922 C 185.458 119.922,185.219 119.746,185.352 119.531 C 185.670 119.016,185.944 119.052,187.109 119.767 M237.648 120.780 C 237.865 120.429,238.698 120.327,240.439 120.437 C 241.935 120.532,243.108 120.422,243.393 120.161 C 243.751 119.831,243.807 119.891,243.624 120.410 C 243.426 120.975,243.616 121.094,244.716 121.094 C 245.448 121.094,246.164 121.282,246.306 121.511 C 246.447 121.740,246.809 121.834,247.110 121.719 C 247.410 121.603,247.656 121.693,247.656 121.918 C 247.656 122.170,248.108 122.229,248.828 122.070 C 249.672 121.885,250.000 121.958,250.000 122.332 C 250.000 122.668,250.449 122.834,251.270 122.803 C 251.968 122.776,252.803 122.977,253.125 123.251 C 253.447 123.524,254.063 123.812,254.492 123.891 C 254.922 123.970,255.273 124.237,255.273 124.485 C 255.273 125.280,255.823 125.516,256.455 124.992 C 256.968 124.566,257.179 124.590,257.720 125.131 C 258.167 125.578,258.215 125.781,257.873 125.781 C 257.600 125.781,257.489 125.964,257.627 126.188 C 257.765 126.411,258.237 126.480,258.676 126.341 C 259.207 126.172,259.384 126.232,259.206 126.521 C 259.059 126.759,259.127 126.953,259.358 126.953 C 260.071 126.953,265.234 130.891,265.234 131.435 C 265.234 131.717,265.498 132.049,265.820 132.173 C 266.143 132.296,266.409 132.798,266.412 133.289 C 266.416 133.906,266.517 134.024,266.740 133.673 C 266.996 133.269,267.165 133.291,267.571 133.780 C 267.851 134.118,267.986 134.488,267.871 134.603 C 267.755 134.719,268.100 135.252,268.636 135.788 C 269.572 136.724,269.584 136.794,268.925 137.522 C 268.529 137.960,268.429 138.281,268.689 138.281 C 268.938 138.281,269.148 138.062,269.156 137.793 C 269.177 137.139,270.618 140.058,271.054 141.639 C 271.284 142.472,271.257 143.040,270.974 143.323 C 270.665 143.632,270.730 143.750,271.211 143.750 C 271.576 143.750,271.895 143.970,271.920 144.238 C 271.977 144.852,272.114 145.450,272.256 145.703 C 272.378 145.918,272.547 147.075,272.787 149.330 C 272.873 150.143,273.055 150.920,273.191 151.055 C 273.590 151.454,273.473 152.021,273.047 151.758 C 272.832 151.625,272.656 151.684,272.656 151.888 C 272.656 152.093,272.964 152.379,273.340 152.524 C 273.986 152.772,273.984 152.809,273.318 153.183 C 272.761 153.496,272.709 153.695,273.073 154.133 C 273.427 154.559,273.424 154.819,273.061 155.256 C 272.801 155.569,272.695 155.996,272.824 156.206 C 272.954 156.415,272.878 156.699,272.656 156.836 C 272.434 156.973,272.350 157.242,272.469 157.435 C 272.588 157.627,272.338 158.131,271.914 158.555 C 271.445 159.023,271.314 159.383,271.579 159.472 C 271.853 159.563,271.897 159.900,271.698 160.375 C 271.524 160.792,271.325 161.556,271.257 162.074 C 271.189 162.592,270.905 163.160,270.625 163.338 C 270.259 163.570,270.336 163.663,270.898 163.672 C 271.363 163.679,271.506 163.800,271.250 163.971 C 270.584 164.415,269.859 165.988,270.122 166.414 C 270.252 166.625,270.113 166.797,269.812 166.797 C 269.512 166.797,268.930 167.498,268.520 168.355 C 268.109 169.212,267.642 169.915,267.480 169.917 C 267.319 169.920,267.188 170.186,267.188 170.508 C 267.188 170.830,267.056 171.094,266.895 171.095 C 266.733 171.095,266.250 171.622,265.820 172.266 C 265.391 172.909,264.819 173.436,264.551 173.436 C 264.282 173.437,264.063 173.625,264.063 173.853 C 264.063 174.552,258.351 178.906,257.436 178.906 C 257.266 178.906,256.923 179.152,256.675 179.451 C 256.426 179.751,255.644 180.105,254.937 180.237 C 254.231 180.370,253.314 180.784,252.900 181.157 C 252.487 181.531,251.709 181.836,251.172 181.835 C 250.635 181.835,249.628 182.056,248.934 182.326 C 248.240 182.596,246.130 182.835,244.246 182.859 C 238.916 182.925,238.673 182.893,238.659 182.129 C 238.648 181.510,238.592 181.517,238.074 182.204 C 237.506 182.954,237.494 182.954,236.926 182.204 C 236.562 181.721,236.348 181.635,236.341 181.965 C 236.332 182.340,235.946 182.250,234.968 181.645 C 234.220 181.183,233.443 180.906,233.242 181.031 C 233.040 181.155,232.637 181.036,232.346 180.765 C 231.816 180.273,231.158 180.029,230.096 179.934 C 229.784 179.906,229.201 179.563,228.801 179.173 C 228.219 178.606,227.958 178.558,227.504 178.935 C 227.039 179.321,226.980 179.291,227.181 178.766 C 227.505 177.922,226.988 177.946,226.291 178.809 C 225.790 179.428,225.778 179.411,226.156 178.629 C 226.508 177.900,226.435 177.686,225.686 177.261 C 223.725 176.148,221.513 174.386,221.499 173.926 C 221.491 173.657,221.221 173.438,220.898 173.438 C 220.347 173.438,220.127 172.748,220.292 171.543 C 220.332 171.253,220.175 171.132,219.944 171.276 C 219.489 171.557,217.188 169.473,217.188 168.780 C 217.188 168.549,216.968 168.357,216.699 168.353 C 216.374 168.349,216.406 168.221,216.797 167.969 C 217.175 167.724,217.213 167.588,216.902 167.584 C 216.638 167.581,216.311 167.139,216.176 166.602 C 216.041 166.064,215.755 165.625,215.541 165.625 C 215.326 165.625,215.252 165.361,215.376 165.039 C 215.499 164.717,215.411 164.453,215.180 164.453 C 214.931 164.453,214.855 164.071,214.994 163.517 C 215.158 162.863,215.040 162.509,214.601 162.341 C 214.177 162.178,214.034 161.784,214.159 161.128 C 214.267 160.565,214.162 160.155,213.911 160.153 C 213.262 160.149,212.598 158.446,212.911 157.587 C 213.062 157.174,213.055 156.660,212.896 156.445 C 212.362 155.723,212.103 153.956,212.495 153.714 C 212.743 153.561,212.679 152.985,212.321 152.128 C 211.812 150.910,212.127 150.109,212.658 151.270 C 212.781 151.538,212.783 151.191,212.662 150.498 C 212.541 149.805,212.584 149.014,212.758 148.740 C 212.932 148.466,213.107 147.803,213.147 147.266 C 213.299 145.249,213.566 143.726,213.810 143.482 C 213.949 143.343,214.063 142.819,214.063 142.318 C 214.063 141.816,214.218 141.406,214.409 141.406 C 214.974 141.406,216.081 138.711,215.835 137.936 C 215.705 137.528,215.863 137.007,216.202 136.726 C 216.529 136.455,216.797 135.999,216.797 135.714 C 216.797 135.428,217.104 135.016,217.480 134.797 C 217.893 134.557,217.963 134.394,217.658 134.387 C 217.364 134.380,217.734 133.613,218.537 132.561 C 219.299 131.563,219.922 130.586,219.922 130.390 C 219.922 130.193,220.082 130.131,220.279 130.253 C 220.475 130.374,220.861 129.964,221.137 129.341 C 221.428 128.683,221.851 128.290,222.147 128.404 C 222.427 128.511,222.656 128.405,222.656 128.167 C 222.656 127.929,222.801 127.778,222.979 127.832 C 223.156 127.886,223.906 127.314,224.644 126.563 C 225.382 125.811,226.863 124.758,227.935 124.224 C 229.006 123.690,229.971 123.162,230.078 123.052 C 230.628 122.487,232.109 121.877,232.438 122.080 C 232.644 122.208,232.813 122.136,232.813 121.920 C 232.813 121.705,233.164 121.597,233.594 121.680 C 234.023 121.762,234.375 121.664,234.375 121.462 C 234.375 121.259,234.902 121.094,235.547 121.094 C 236.490 121.094,236.726 120.922,236.758 120.215 C 236.795 119.378,236.809 119.382,237.067 120.309 C 237.258 120.995,237.429 121.134,237.648 120.780 M119.966 122.378 C 119.647 122.697,119.531 122.653,119.531 122.214 C 119.531 121.437,120.057 120.912,120.251 121.494 C 120.333 121.741,120.205 122.139,119.966 122.378 M210.714 121.916 C 209.534 122.378,209.240 122.313,209.746 121.703 C 210.003 121.393,210.495 121.248,210.840 121.381 C 211.380 121.588,211.363 121.662,210.714 121.916 M223.638 122.195 C 223.168 122.665,222.327 122.561,222.520 122.056 C 222.631 121.769,222.978 121.632,223.291 121.753 C 223.605 121.873,223.761 122.072,223.638 122.195 M126.369 123.050 C 126.763 123.687,126.184 124.980,125.604 124.758 C 124.909 124.491,124.569 123.135,125.139 122.901 C 125.865 122.604,126.112 122.634,126.369 123.050 M150.168 123.003 C 150.286 123.193,150.158 123.535,149.884 123.762 C 149.510 124.073,149.386 123.987,149.386 123.416 C 149.386 122.624,149.799 122.406,150.168 123.003 M218.643 125.781 C 218.571 126.736,218.235 126.772,217.528 125.903 C 217.059 125.326,217.077 125.276,217.676 125.501 C 218.052 125.641,218.359 125.586,218.359 125.378 C 218.359 125.170,218.436 125.000,218.530 125.000 C 218.624 125.000,218.675 125.352,218.643 125.781 M146.786 126.099 C 146.881 126.384,146.702 126.472,146.322 126.326 C 145.981 126.195,145.703 125.917,145.703 125.707 C 145.703 125.193,146.591 125.515,146.786 126.099 M209.235 129.102 C 209.558 129.424,209.643 129.688,209.426 129.688 C 209.208 129.688,208.922 129.512,208.789 129.297 C 208.422 128.702,207.808 128.831,208.047 129.453 C 208.162 129.753,208.066 130.117,207.833 130.261 C 207.600 130.405,207.527 130.714,207.671 130.947 C 207.819 131.186,207.753 131.259,207.519 131.115 C 207.291 130.974,207.196 130.507,207.309 130.078 C 207.423 129.641,207.321 129.297,207.077 129.297 C 206.837 129.297,206.641 129.638,206.641 130.055 C 206.641 130.472,206.475 130.915,206.274 131.040 C 206.072 131.165,205.933 130.868,205.965 130.380 C 206.075 128.723,208.075 127.941,209.235 129.102 M214.854 129.089 C 214.637 129.350,214.576 129.680,214.717 129.821 C 214.858 129.962,214.769 130.078,214.518 130.078 C 214.268 130.078,214.063 129.829,214.063 129.525 C 214.063 129.220,213.843 128.894,213.574 128.800 C 213.306 128.706,213.573 128.625,214.167 128.621 C 214.973 128.615,215.148 128.734,214.854 129.089 M273.109 138.376 C 273.375 138.109,273.747 137.891,273.934 137.891 C 274.121 137.891,273.994 138.171,273.651 138.515 C 272.970 139.195,271.871 138.997,271.881 138.196 C 271.885 137.845,271.997 137.870,272.255 138.278 C 272.549 138.742,272.722 138.762,273.109 138.376 M63.300 138.628 C 62.524 138.843,62.138 139.484,61.265 142.005 C 60.673 143.717,59.987 145.452,59.741 145.861 C 58.980 147.126,57.730 151.277,57.554 153.125 C 57.462 154.092,57.304 155.125,57.202 155.421 C 56.995 156.024,58.086 157.000,58.987 157.019 C 59.668 157.033,64.882 142.122,64.980 139.880 C 65.044 138.434,64.762 138.224,63.300 138.628 M133.707 142.188 C 133.840 142.695,133.719 142.969,133.362 142.969 C 133.060 142.969,132.813 143.145,132.813 143.359 C 132.813 143.574,133.076 143.750,133.398 143.750 C 133.721 143.750,133.984 143.926,133.984 144.141 C 133.984 144.596,133.873 144.614,133.040 144.294 C 132.700 144.164,132.408 143.680,132.391 143.220 C 132.374 142.760,132.272 142.603,132.163 142.871 C 132.055 143.140,131.765 143.359,131.519 143.359 C 131.078 143.359,132.773 141.476,133.255 141.430 C 133.391 141.417,133.595 141.758,133.707 142.188 M319.043 141.669 C 318.325 141.863,318.335 142.060,319.237 145.508 C 319.462 146.367,319.673 147.337,319.705 147.663 C 319.737 147.989,319.902 148.481,320.072 148.755 C 320.242 149.030,320.436 149.994,320.503 150.897 C 320.569 151.800,320.818 153.034,321.054 153.639 C 321.291 154.244,321.484 155.333,321.484 156.060 C 321.484 156.926,321.819 157.742,322.454 158.427 C 322.987 159.003,323.342 159.604,323.243 159.764 C 323.145 159.923,323.631 159.938,324.325 159.796 C 325.526 159.551,325.584 159.456,325.550 157.797 C 325.496 155.121,324.350 150.691,323.605 150.274 C 323.222 150.059,323.115 149.807,323.345 149.661 C 323.894 149.315,323.166 145.565,322.122 143.359 C 321.294 141.611,320.619 141.241,319.043 141.669 M134.995 143.260 C 134.569 143.686,134.276 143.008,134.583 142.302 C 134.873 141.633,134.894 141.633,135.056 142.316 C 135.149 142.709,135.122 143.133,134.995 143.260 M165.234 144.336 C 165.234 144.612,164.993 144.931,164.697 145.044 C 164.336 145.183,164.160 144.951,164.160 144.336 C 164.160 143.720,164.336 143.489,164.697 143.627 C 164.993 143.741,165.234 144.060,165.234 144.336 M122.266 144.531 C 122.266 144.746,121.870 144.919,121.387 144.916 C 120.676 144.911,120.620 144.837,121.094 144.531 C 121.851 144.042,122.266 144.042,122.266 144.531 M137.146 146.604 C 136.844 146.906,136.597 146.909,136.303 146.616 C 136.009 146.322,136.095 145.992,136.596 145.491 C 137.273 144.814,137.311 144.813,137.439 145.480 C 137.513 145.863,137.381 146.369,137.146 146.604 M146.094 146.168 C 146.094 146.682,145.206 146.360,145.011 145.776 C 144.916 145.491,145.095 145.403,145.475 145.549 C 145.815 145.680,146.094 145.958,146.094 146.168 M189.949 146.065 C 190.087 146.592,189.984 146.755,189.604 146.609 C 189.018 146.384,188.910 145.986,189.323 145.573 C 189.695 145.201,189.731 145.229,189.949 146.065 M279.829 147.461 C 279.670 147.874,279.861 148.047,280.472 148.047 C 281.223 148.047,281.306 148.193,281.079 149.121 C 280.935 149.712,280.817 150.523,280.817 150.923 C 280.817 151.948,280.386 151.400,280.256 150.208 C 280.196 149.664,280.318 149.219,280.526 149.219 C 280.735 149.219,280.787 149.028,280.643 148.794 C 280.466 148.508,280.252 148.498,279.986 148.764 C 279.540 149.210,278.516 148.938,278.516 148.373 C 278.516 148.168,278.691 148.109,278.906 148.242 C 279.121 148.375,279.297 148.122,279.297 147.679 C 279.297 147.237,279.467 146.875,279.675 146.875 C 279.883 146.875,279.952 147.139,279.829 147.461 M177.645 148.120 C 177.560 148.375,177.281 148.654,177.026 148.739 C 176.741 148.834,176.653 148.655,176.799 148.275 C 177.072 147.565,177.879 147.417,177.645 148.120 M196.004 151.490 C 196.099 151.775,195.921 151.862,195.540 151.716 C 195.200 151.586,194.922 151.307,194.922 151.098 C 194.922 150.584,195.810 150.906,196.004 151.490 M171.701 154.722 C 171.845 154.955,171.769 155.308,171.532 155.506 C 171.294 155.704,171.185 155.749,171.289 155.606 C 171.393 155.462,171.282 155.109,171.043 154.821 C 170.745 154.463,170.739 154.297,171.023 154.297 C 171.251 154.297,171.556 154.488,171.701 154.722 M130.578 155.845 C 130.743 156.474,130.620 156.593,129.942 156.466 C 129.480 156.379,128.838 156.289,128.516 156.266 C 128.092 156.236,128.184 156.012,128.849 155.458 C 129.874 154.604,130.277 154.694,130.578 155.845 M179.337 155.975 C 178.836 156.476,178.328 156.089,178.699 155.488 C 178.843 155.256,179.139 155.176,179.358 155.311 C 179.625 155.476,179.618 155.695,179.337 155.975 M139.453 160.922 C 139.453 161.298,136.772 161.130,136.412 160.731 C 136.258 160.561,136.353 160.548,136.621 160.703 C 136.890 160.857,137.109 160.828,137.109 160.638 C 137.109 160.447,137.637 160.369,138.281 160.464 C 138.926 160.558,139.453 160.764,139.453 160.922 M285.625 162.969 C 285.374 163.219,285.040 163.295,284.881 163.136 C 284.723 162.978,284.846 162.691,285.156 162.500 C 285.466 162.309,285.801 162.233,285.900 162.332 C 285.999 162.432,285.876 162.718,285.625 162.969 M139.836 164.746 C 139.449 165.352,139.420 165.332,139.580 164.569 C 139.741 163.802,139.638 163.733,138.631 163.934 C 137.873 164.086,137.500 164.001,137.500 163.679 C 137.500 163.414,137.736 163.288,138.024 163.399 C 138.312 163.509,138.793 163.448,139.092 163.263 C 139.852 162.793,140.394 163.873,139.836 164.746 M276.563 163.672 C 277.036 163.978,276.980 164.052,276.270 164.057 C 275.786 164.060,275.391 163.887,275.391 163.672 C 275.391 163.182,275.805 163.182,276.563 163.672 M296.875 163.844 C 296.875 164.714,296.263 164.887,296.199 164.035 C 296.168 163.621,296.307 163.281,296.509 163.281 C 296.710 163.281,296.875 163.535,296.875 163.844 M55.255 166.200 C 54.796 166.914,54.328 168.765,54.067 170.898 C 54.014 171.328,53.943 171.680,53.909 171.680 C 53.805 171.680,53.472 173.203,53.439 173.828 C 53.423 174.150,53.274 174.590,53.108 174.805 C 52.943 175.020,52.697 176.162,52.561 177.344 C 52.425 178.525,52.236 179.932,52.140 180.469 C 51.537 183.859,51.528 183.796,52.727 184.504 C 53.686 185.071,54.007 185.100,54.672 184.685 C 55.569 184.124,55.713 183.371,54.980 183.063 C 54.625 182.914,54.669 182.745,55.141 182.444 C 55.803 182.023,56.094 180.781,56.428 176.953 C 56.531 175.771,56.799 173.926,57.024 172.852 C 58.322 166.636,58.343 166.459,57.852 165.867 C 57.192 165.072,55.871 165.242,55.255 166.200 M195.809 166.936 C 195.697 167.120,195.471 167.054,195.307 166.789 C 195.129 166.499,194.796 166.434,194.477 166.627 C 194.031 166.895,194.030 166.843,194.468 166.302 C 195.016 165.626,196.250 166.209,195.809 166.936 M133.414 167.604 C 133.829 168.274,133.458 168.340,132.640 167.741 C 132.006 167.278,131.986 167.188,132.519 167.188 C 132.870 167.188,133.273 167.375,133.414 167.604 M181.055 167.969 C 181.187 168.184,180.924 168.359,180.469 168.359 C 180.014 168.359,179.750 168.184,179.883 167.969 C 180.016 167.754,180.279 167.578,180.469 167.578 C 180.658 167.578,180.922 167.754,181.055 167.969 M273.815 168.367 C 273.194 168.751,272.150 168.598,271.983 168.098 C 271.908 167.873,272.365 167.785,273.076 167.890 C 273.846 168.003,274.120 168.179,273.815 168.367 M326.419 167.856 C 325.785 168.019,325.720 168.307,325.922 170.057 C 326.051 171.164,326.247 172.949,326.360 174.023 C 326.472 175.098,326.656 176.416,326.769 176.953 C 326.882 177.490,327.064 178.809,327.175 179.883 C 327.658 184.593,327.924 185.547,328.753 185.547 C 329.052 185.547,329.297 185.823,329.297 186.160 C 329.297 186.572,329.585 186.732,330.176 186.648 C 331.119 186.514,331.796 182.813,330.878 182.813 C 330.653 182.813,330.469 182.626,330.469 182.399 C 330.469 182.171,330.658 182.102,330.890 182.245 C 331.429 182.579,330.942 178.937,330.347 178.193 C 330.053 177.825,330.062 177.595,330.376 177.401 C 330.664 177.223,330.691 176.927,330.454 176.552 C 330.150 176.072,330.089 176.068,330.084 176.530 C 330.081 176.834,329.965 176.970,329.827 176.832 C 329.689 176.694,329.803 176.307,330.081 175.973 C 330.458 175.518,330.480 175.144,330.167 174.498 C 329.937 174.022,329.641 172.586,329.510 171.306 C 329.279 169.060,328.475 167.528,327.576 167.623 C 327.341 167.648,326.820 167.753,326.419 167.856 M214.346 170.410 C 214.252 170.679,214.331 171.320,214.522 171.836 C 214.823 172.650,214.791 172.708,214.270 172.276 C 213.862 171.937,213.672 171.919,213.672 172.218 C 213.672 172.459,213.381 172.656,213.025 172.656 C 212.446 172.656,212.440 172.585,212.966 171.973 C 213.289 171.597,213.662 170.981,213.796 170.605 C 213.929 170.229,214.146 169.922,214.278 169.922 C 214.410 169.922,214.441 170.142,214.346 170.410 M132.109 171.476 C 132.690 171.481,133.305 171.722,133.477 172.013 C 133.648 172.304,134.037 172.621,134.341 172.718 C 135.243 173.006,135.560 177.031,134.794 178.463 C 134.579 178.865,134.528 179.320,134.682 179.473 C 134.835 179.627,134.785 179.701,134.570 179.637 C 134.355 179.574,133.777 179.745,133.285 180.017 C 132.793 180.290,131.326 180.528,130.026 180.547 C 126.159 180.602,123.995 184.294,125.964 187.479 C 126.103 187.705,126.088 188.101,125.928 188.359 C 125.528 189.007,125.491 190.641,125.871 190.876 C 126.044 190.982,126.080 191.239,125.952 191.446 C 125.521 192.143,125.387 196.827,125.791 197.076 C 126.007 197.210,126.095 197.464,125.986 197.641 C 125.104 199.068,125.524 203.367,126.425 202.135 C 127.102 201.210,127.103 201.576,126.426 202.879 C 126.137 203.438,125.757 203.765,125.583 203.607 C 125.408 203.449,125.388 203.534,125.538 203.795 C 125.875 204.382,126.078 209.464,125.743 208.922 C 125.610 208.707,125.389 209.090,125.252 209.774 C 125.115 210.458,125.118 211.203,125.258 211.430 C 125.398 211.656,125.489 213.778,125.460 216.144 C 125.427 218.782,125.573 220.648,125.837 220.966 C 126.099 221.281,126.115 221.484,125.879 221.484 C 125.488 221.484,125.225 234.757,125.593 235.946 C 125.810 236.645,126.119 236.670,137.305 236.881 C 148.014 237.084,147.355 237.039,147.045 237.541 C 146.899 237.778,147.224 237.680,147.767 237.324 C 148.464 236.867,148.836 236.806,149.027 237.115 C 149.176 237.356,149.582 237.444,149.930 237.311 C 153.576 235.911,162.537 237.032,161.473 238.754 C 161.294 239.043,161.424 239.109,161.850 238.946 C 162.207 238.809,162.522 238.823,162.550 238.977 C 162.577 239.131,162.641 239.659,162.692 240.149 C 162.743 240.639,162.895 241.150,163.030 241.285 C 163.164 241.420,163.092 241.750,162.868 242.019 C 162.587 242.358,162.588 242.586,162.870 242.761 C 163.791 243.330,160.844 246.944,159.277 247.168 C 157.915 247.363,156.832 247.558,156.641 247.645 C 156.533 247.693,152.490 247.722,147.656 247.708 C 142.822 247.695,135.791 247.694,132.031 247.707 C 125.538 247.729,111.821 247.606,109.798 247.507 C 109.279 247.482,108.767 247.197,108.660 246.875 C 108.494 246.373,108.559 246.365,109.116 246.825 C 109.493 247.137,109.766 247.189,109.766 246.949 C 109.766 246.722,109.414 246.425,108.984 246.289 C 108.102 246.009,107.961 245.475,108.691 245.181 C 108.983 245.063,108.904 244.971,108.496 244.953 C 107.709 244.917,107.596 244.123,108.281 243.437 C 108.646 243.073,108.624 242.966,108.184 242.956 C 107.719 242.946,107.730 242.858,108.242 242.468 C 108.836 242.015,108.968 241.780,108.997 241.113 C 109.023 240.532,110.546 238.993,111.222 238.864 C 111.603 238.791,111.914 238.704,111.914 238.669 C 111.914 238.635,112.309 238.563,112.793 238.509 C 114.133 238.361,114.253 238.064,114.307 234.756 C 114.335 233.067,114.470 231.236,114.608 230.686 C 114.746 230.137,114.692 229.688,114.488 229.688 C 114.256 229.688,114.252 229.217,114.477 228.434 C 114.680 227.725,114.689 227.032,114.497 226.841 C 114.311 226.655,114.289 225.924,114.448 225.217 C 114.608 224.511,114.575 223.642,114.376 223.287 C 114.178 222.931,114.131 222.274,114.274 221.825 C 114.766 220.275,114.844 208.444,114.364 208.148 C 114.040 207.948,114.072 207.685,114.478 207.192 C 114.993 206.567,114.951 206.533,113.965 206.779 C 112.790 207.071,112.554 206.625,113.477 205.859 C 113.881 205.523,114.063 205.509,114.063 205.812 C 114.063 206.053,114.300 206.250,114.591 206.250 C 115.200 206.250,115.004 202.251,114.383 202.013 C 114.189 201.938,114.232 201.633,114.480 201.335 C 114.960 200.756,115.136 195.711,114.701 195.006 C 114.557 194.775,114.617 194.476,114.832 194.343 C 115.192 194.121,115.012 191.611,114.587 190.918 C 114.488 190.757,114.558 190.625,114.744 190.625 C 114.929 190.625,114.983 189.702,114.864 188.574 C 114.746 187.446,114.741 185.601,114.855 184.473 C 114.968 183.345,114.930 182.422,114.769 182.422 C 114.609 182.422,114.580 182.156,114.704 181.832 C 114.866 181.409,114.752 181.310,114.301 181.483 C 113.933 181.624,113.672 181.525,113.672 181.244 C 113.672 180.867,113.546 180.868,113.086 181.250 C 112.649 181.612,112.500 181.619,112.500 181.275 C 112.500 181.021,112.336 180.914,112.136 181.038 C 111.936 181.162,111.662 181.084,111.527 180.866 C 111.392 180.647,111.004 180.469,110.664 180.469 C 108.899 180.469,106.641 178.786,106.641 177.470 C 106.641 176.695,106.837 176.169,107.129 176.166 C 107.460 176.162,107.428 176.026,107.031 175.746 C 106.590 175.434,106.566 175.282,106.934 175.133 C 107.202 175.024,107.422 174.755,107.422 174.535 C 107.422 174.316,107.863 173.789,108.402 173.365 C 108.941 172.941,109.297 172.455,109.193 172.287 C 109.088 172.118,109.350 171.665,109.775 171.281 C 110.199 170.896,110.547 170.741,110.547 170.936 C 110.548 171.319,119.917 171.341,121.436 170.961 C 121.947 170.833,122.705 170.911,123.122 171.134 C 123.609 171.394,124.043 171.405,124.341 171.163 C 125.133 170.521,126.280 170.473,128.711 170.980 C 130.000 171.248,131.529 171.472,132.109 171.476 M90.177 171.667 C 89.746 172.084,88.530 171.990,88.369 171.528 C 88.265 171.229,88.343 171.086,88.542 171.209 C 88.741 171.332,89.160 171.274,89.472 171.080 C 89.973 170.769,90.582 171.275,90.177 171.667 M216.797 171.117 C 216.797 171.344,216.621 171.422,216.406 171.289 C 216.191 171.156,216.016 171.234,216.016 171.461 C 216.016 171.689,215.845 171.875,215.637 171.875 C 215.429 171.875,215.360 171.611,215.484 171.289 C 215.739 170.624,216.797 170.485,216.797 171.117 M216.406 172.852 C 216.139 173.174,215.771 173.438,215.589 173.438 C 215.408 173.438,215.360 173.174,215.484 172.852 C 215.607 172.529,215.975 172.266,216.301 172.266 C 216.782 172.266,216.802 172.375,216.406 172.852 M290.581 173.579 C 290.938 174.010,290.836 174.076,290.047 173.925 C 289.511 173.823,289.168 173.583,289.285 173.393 C 289.592 172.897,290.071 172.966,290.581 173.579 M286.047 178.237 C 286.159 178.529,285.951 178.739,285.547 178.739 C 285.143 178.739,284.935 178.529,285.047 178.237 C 285.153 177.960,285.378 177.734,285.547 177.734 C 285.716 177.734,285.941 177.960,286.047 178.237 M137.463 179.004 C 137.911 179.589,137.895 179.688,137.353 179.688 C 136.963 179.688,136.719 179.361,136.719 178.841 C 136.719 178.376,136.768 178.068,136.829 178.158 C 136.890 178.247,137.175 178.628,137.463 179.004 M161.770 180.859 C 161.982 180.859,162.047 181.035,161.914 181.250 C 161.781 181.465,161.528 181.641,161.351 181.641 C 160.935 181.641,160.554 180.202,160.882 179.870 C 161.020 179.731,161.190 179.897,161.259 180.238 C 161.329 180.580,161.559 180.859,161.770 180.859 M94.922 181.826 C 95.872 182.360,95.875 182.373,95.020 182.315 C 94.536 182.283,94.141 182.107,94.141 181.925 C 94.141 181.743,93.965 181.703,93.750 181.836 C 93.535 181.969,93.359 181.891,93.359 181.664 C 93.359 181.120,93.735 181.160,94.922 181.826 M162.426 182.663 C 162.052 183.038,161.590 183.170,161.294 182.987 C 160.921 182.756,160.986 182.603,161.549 182.382 C 162.791 181.896,163.096 181.993,162.426 182.663 M140.625 183.203 C 139.868 183.693,139.453 183.693,139.453 183.203 C 139.453 182.988,139.849 182.815,140.332 182.818 C 141.043 182.823,141.099 182.897,140.625 183.203 M91.978 183.961 C 92.102 184.163,91.849 184.301,91.415 184.268 C 90.980 184.236,90.625 184.070,90.625 183.901 C 90.625 183.469,91.703 183.517,91.978 183.961 M278.516 185.498 C 278.516 186.011,276.070 187.094,275.602 186.789 C 275.378 186.643,275.689 186.467,276.293 186.398 C 276.896 186.328,277.486 186.021,277.604 185.714 C 277.837 185.107,278.516 184.946,278.516 185.498 M272.168 188.867 C 272.168 189.404,272.014 189.844,271.826 189.844 C 271.426 189.844,271.389 189.374,271.721 188.509 C 272.053 187.644,272.168 187.736,272.168 188.867 M286.142 189.211 C 286.810 189.879,286.402 190.392,285.680 189.793 C 285.151 189.353,284.968 188.672,285.379 188.672 C 285.502 188.672,285.845 188.915,286.142 189.211 M259.656 193.539 C 261.422 194.361,262.774 195.185,262.661 195.369 C 262.547 195.553,262.642 195.703,262.871 195.703 C 263.514 195.703,265.486 197.746,265.794 198.730 C 265.954 199.244,266.382 199.609,266.823 199.609 C 267.649 199.609,267.833 200.187,267.144 200.613 C 266.905 200.761,266.556 200.639,266.369 200.343 C 266.090 199.903,266.027 199.900,266.022 200.330 C 266.018 200.618,266.367 200.946,266.797 201.059 C 267.227 201.171,267.578 201.506,267.578 201.803 C 267.578 202.101,267.790 202.300,268.048 202.246 C 268.307 202.192,268.526 202.494,268.536 202.917 C 268.546 203.340,268.906 203.867,269.336 204.089 C 270.162 204.515,270.227 204.996,270.447 212.309 C 270.499 214.030,270.681 215.664,270.851 215.940 C 271.022 216.215,270.966 216.675,270.728 216.962 C 270.425 217.327,270.415 217.796,270.694 218.529 C 270.954 219.215,270.957 219.493,270.701 219.335 C 270.294 219.083,270.466 221.566,270.905 222.276 C 271.034 222.485,270.991 222.656,270.808 222.656 C 270.626 222.656,270.509 223.228,270.548 223.926 C 270.588 224.624,270.653 225.195,270.694 225.195 C 271.023 225.195,270.869 233.854,270.535 234.112 C 270.247 234.334,270.274 234.498,270.622 234.638 C 271.009 234.794,271.021 234.969,270.672 235.390 C 270.323 235.809,270.329 235.938,270.698 235.938 C 271.002 235.938,271.097 236.262,270.957 236.820 C 270.636 238.098,271.222 238.813,272.406 238.587 C 272.958 238.481,273.470 238.575,273.544 238.795 C 273.617 239.015,274.323 239.170,275.112 239.141 C 276.887 239.074,277.402 239.870,277.594 242.980 C 277.753 245.566,276.900 246.886,275.188 246.698 C 274.463 246.619,274.233 246.739,274.380 247.122 C 274.633 247.781,274.147 247.819,273.516 247.187 C 273.151 246.823,273.047 246.832,273.047 247.229 C 273.047 247.566,272.814 247.641,272.363 247.450 C 271.987 247.290,271.284 247.182,270.801 247.208 C 270.317 247.235,269.919 247.039,269.916 246.773 C 269.911 246.392,269.845 246.391,269.606 246.768 C 269.056 247.633,266.705 247.157,265.545 245.946 C 264.953 245.328,264.563 244.669,264.679 244.481 C 264.795 244.294,264.685 244.141,264.434 244.141 C 264.183 244.141,264.083 243.869,264.212 243.534 C 264.339 243.201,264.283 243.028,264.085 243.150 C 263.887 243.272,263.614 243.191,263.477 242.969 C 263.339 242.747,263.080 242.656,262.900 242.768 C 262.720 242.879,262.665 242.618,262.777 242.188 C 262.890 241.758,262.791 241.406,262.558 241.406 C 262.325 241.406,262.235 241.143,262.359 240.820 C 262.839 239.568,261.210 240.434,256.445 243.963 C 255.801 244.441,254.834 244.959,254.297 245.115 C 253.760 245.272,252.793 245.622,252.148 245.894 C 249.531 247.000,247.205 247.726,246.985 247.506 C 246.857 247.377,246.482 247.491,246.152 247.757 C 245.656 248.159,245.609 248.142,245.881 247.656 C 246.138 247.197,246.101 247.169,245.713 247.528 C 245.440 247.780,244.975 247.893,244.679 247.779 C 244.383 247.666,244.141 247.786,244.141 248.047 C 244.141 248.308,243.898 248.428,243.602 248.315 C 243.306 248.201,242.867 248.305,242.626 248.546 C 242.381 248.790,242.188 248.816,242.188 248.604 C 242.188 248.395,241.528 248.182,240.723 248.130 C 238.771 248.006,236.523 247.759,236.523 247.670 C 236.523 247.631,236.093 247.519,235.567 247.423 C 235.041 247.326,234.324 246.987,233.974 246.670 C 233.624 246.353,233.033 246.094,232.661 246.094 C 232.289 246.094,232.094 245.918,232.227 245.703 C 232.359 245.488,232.106 245.313,231.664 245.313 C 231.221 245.313,230.859 245.149,230.859 244.948 C 230.859 244.748,230.508 244.472,230.078 244.336 C 229.648 244.200,229.297 243.860,229.297 243.581 C 229.297 243.302,228.959 242.644,228.545 242.118 C 227.405 240.669,226.121 236.603,226.689 236.241 C 227.019 236.032,227.023 235.948,226.704 235.943 C 226.269 235.938,225.744 233.761,226.093 233.412 C 226.191 233.314,226.309 232.083,226.356 230.675 C 226.403 229.268,226.557 228.001,226.697 227.860 C 226.838 227.719,226.954 227.326,226.956 226.986 C 226.957 226.646,227.221 225.864,227.541 225.248 C 228.274 223.843,228.271 223.797,227.454 224.110 C 226.859 224.338,226.848 224.297,227.357 223.748 C 227.672 223.408,228.061 223.208,228.221 223.305 C 228.381 223.402,228.717 223.032,228.967 222.483 C 229.218 221.934,229.658 221.484,229.946 221.484 C 230.233 221.484,230.470 221.353,230.471 221.191 C 230.475 220.798,233.271 218.919,233.670 219.043 C 233.843 219.097,233.984 218.965,233.984 218.750 C 233.984 218.535,234.254 218.359,234.583 218.359 C 234.912 218.359,235.271 218.125,235.381 217.839 C 235.491 217.552,235.793 217.301,236.052 217.281 C 236.311 217.261,236.919 217.123,237.402 216.975 C 237.972 216.801,238.281 216.869,238.281 217.170 C 238.281 217.470,238.491 217.424,238.878 217.037 C 239.238 216.677,240.011 216.483,240.831 216.548 C 241.577 216.606,242.188 216.500,242.188 216.312 C 242.188 216.124,242.383 216.090,242.622 216.238 C 242.861 216.386,243.210 216.264,243.397 215.968 C 243.632 215.597,243.740 215.578,243.744 215.906 C 243.747 216.169,244.014 216.281,244.341 216.155 C 244.666 216.030,245.149 216.091,245.415 216.289 C 245.838 216.605,246.688 216.674,246.973 216.415 C 247.382 216.044,250.001 216.140,250.006 216.526 C 250.010 216.812,250.153 216.770,250.375 216.418 C 250.575 216.102,250.851 215.955,250.987 216.091 C 251.124 216.228,251.836 216.089,252.571 215.782 C 253.305 215.475,253.906 215.318,253.906 215.432 C 253.906 215.547,254.602 215.286,255.453 214.852 C 256.304 214.418,257.447 214.063,257.992 214.063 C 258.538 214.063,258.987 213.843,258.990 213.574 C 258.994 213.243,259.130 213.275,259.411 213.672 C 259.724 214.115,259.874 214.138,260.024 213.767 C 260.133 213.497,260.407 213.390,260.632 213.529 C 261.133 213.839,260.715 207.384,260.213 207.053 C 260.032 206.934,259.916 206.440,259.955 205.957 C 259.994 205.474,259.923 205.077,259.798 205.075 C 259.508 205.071,258.594 203.119,258.594 202.503 C 258.594 202.247,258.333 201.937,258.014 201.814 C 257.685 201.688,257.534 201.333,257.666 200.991 C 257.799 200.644,257.686 200.391,257.397 200.391 C 257.122 200.391,256.570 200.094,256.170 199.733 C 255.107 198.771,248.800 198.326,248.511 199.192 C 248.435 199.422,247.868 199.609,247.251 199.609 C 245.967 199.609,244.141 200.348,244.141 200.867 C 244.141 201.060,243.998 201.130,243.823 201.022 C 243.649 200.914,243.006 201.255,242.395 201.780 C 241.785 202.305,241.158 202.734,241.002 202.734 C 240.528 202.734,239.861 204.787,239.752 206.585 C 239.607 208.965,238.207 209.945,234.863 210.004 C 233.521 210.028,232.422 209.909,232.422 209.739 C 232.422 209.569,232.026 209.369,231.543 209.295 C 231.060 209.221,230.706 208.952,230.757 208.696 C 230.808 208.440,230.626 208.317,230.352 208.422 C 229.863 208.610,229.801 208.414,229.595 206.055 C 229.538 205.410,229.384 204.795,229.251 204.688 C 228.848 204.360,230.013 201.048,230.952 199.851 C 232.061 198.439,234.482 196.098,234.837 196.096 C 234.984 196.095,235.951 195.572,236.986 194.934 C 238.642 193.913,242.856 192.809,246.680 192.395 C 247.109 192.349,248.195 192.182,249.092 192.024 C 250.096 191.848,251.034 191.905,251.533 192.172 C 252.138 192.496,252.344 192.490,252.344 192.150 C 252.344 191.844,252.856 191.763,253.906 191.904 C 254.777 192.020,255.577 191.938,255.713 191.718 C 255.858 191.483,256.056 191.469,256.201 191.683 C 256.335 191.882,257.890 192.717,259.656 193.539 M175.280 192.789 C 175.542 192.869,175.872 192.748,176.013 192.519 C 176.193 192.227,176.347 192.230,176.531 192.527 C 176.674 192.759,177.162 193.006,177.616 193.075 C 178.069 193.144,178.720 193.434,179.063 193.718 C 179.512 194.090,179.688 194.106,179.688 193.775 C 179.688 193.521,179.882 193.434,180.120 193.580 C 180.428 193.771,180.414 193.933,180.071 194.145 C 179.806 194.309,179.617 194.902,179.650 195.463 C 179.715 196.568,179.726 197.656,179.699 200.391 C 179.690 201.357,179.733 203.254,179.796 204.606 C 179.858 205.958,179.807 208.123,179.683 209.418 C 179.560 210.713,179.579 211.847,179.728 211.939 C 179.876 212.030,179.860 212.713,179.692 213.455 C 179.525 214.197,179.467 214.884,179.564 214.981 C 179.661 215.077,179.806 217.328,179.888 219.981 C 179.969 222.634,180.062 224.805,180.095 224.805 C 180.128 224.805,180.191 225.541,180.235 226.440 C 180.282 227.401,180.160 227.981,179.941 227.845 C 179.714 227.705,179.699 227.827,179.902 228.155 C 180.355 228.889,180.439 230.187,180.064 230.664 C 179.674 231.161,180.546 233.727,181.393 234.574 C 181.748 234.929,181.946 235.368,181.834 235.550 C 181.721 235.732,181.964 235.988,182.374 236.118 C 182.784 236.248,183.209 236.700,183.320 237.124 C 183.454 237.635,183.730 237.814,184.144 237.655 C 184.486 237.524,184.767 237.567,184.768 237.751 C 184.777 238.817,187.500 239.898,190.103 239.867 C 193.630 239.826,194.242 239.737,194.836 239.177 C 195.110 238.917,195.566 238.793,195.847 238.902 C 196.129 239.010,196.584 238.828,196.858 238.497 C 197.132 238.167,198.066 237.705,198.934 237.471 C 200.379 237.082,201.908 235.834,201.940 235.017 C 201.947 234.833,202.397 234.334,202.939 233.907 C 203.633 233.361,203.921 232.765,203.908 231.898 C 203.898 231.219,203.942 230.137,204.004 229.492 C 204.067 228.848,203.961 228.101,203.769 227.832 C 203.575 227.561,203.571 227.344,203.761 227.343 C 203.948 227.343,204.102 221.938,204.102 215.332 L 204.102 203.320 203.104 202.344 C 202.556 201.807,201.595 201.189,200.969 200.972 C 199.965 200.623,199.833 200.394,199.846 199.019 C 199.855 198.162,199.673 197.322,199.442 197.152 C 199.197 196.971,199.343 196.890,199.795 196.956 C 200.342 197.037,200.570 196.843,200.577 196.290 C 200.582 195.861,200.786 195.509,201.030 195.509 C 201.275 195.508,201.856 195.068,202.322 194.531 C 203.082 193.656,203.126 193.644,202.751 194.418 C 202.334 195.280,202.336 195.280,203.950 194.711 C 205.852 194.040,205.977 194.025,205.681 194.504 C 205.557 194.704,205.623 194.971,205.826 195.097 C 206.030 195.222,206.293 195.169,206.411 194.977 C 206.530 194.786,207.025 194.605,207.512 194.577 C 208.000 194.548,208.838 194.482,209.375 194.430 C 210.080 194.362,210.338 194.517,210.302 194.989 C 210.272 195.391,210.458 195.563,210.788 195.436 C 211.083 195.323,211.254 195.117,211.168 194.979 C 211.083 194.840,211.686 194.679,212.509 194.622 C 214.552 194.478,214.817 195.393,214.860 202.722 C 214.871 204.553,215.053 205.752,215.349 205.944 C 215.715 206.182,215.711 206.321,215.332 206.566 C 214.747 206.945,214.733 225.000,215.318 225.000 C 215.512 225.000,215.534 225.220,215.366 225.488 C 215.199 225.757,215.029 226.978,214.988 228.203 C 214.948 229.427,214.810 230.598,214.681 230.806 C 214.553 231.013,214.669 231.286,214.939 231.412 C 215.333 231.595,215.333 231.686,214.939 231.869 C 214.669 231.995,214.553 232.268,214.682 232.475 C 214.810 232.683,214.915 234.362,214.915 236.207 C 214.915 239.760,215.264 240.621,216.590 240.337 C 217.228 240.200,217.270 240.246,216.808 240.570 C 216.312 240.918,216.325 241.009,216.905 241.232 C 217.437 241.436,217.578 241.975,217.578 243.801 C 217.578 246.575,216.912 247.044,213.086 246.970 C 211.797 246.945,210.173 246.919,209.476 246.912 C 207.915 246.896,206.021 245.954,205.467 244.918 C 205.238 244.490,204.814 244.141,204.524 244.141 C 203.823 244.141,203.413 242.495,204.019 242.110 C 204.688 241.684,204.224 241.727,202.809 242.220 C 202.141 242.453,201.492 242.936,201.367 243.294 C 201.030 244.259,196.268 246.441,193.359 246.962 C 191.963 247.213,190.691 247.603,190.533 247.830 C 190.344 248.102,190.244 248.076,190.240 247.754 C 190.237 247.485,189.883 247.266,189.453 247.266 C 189.023 247.266,188.672 247.412,188.672 247.591 C 188.672 247.974,187.489 247.937,186.837 247.534 C 186.587 247.379,186.282 247.415,186.159 247.613 C 186.037 247.811,185.585 247.882,185.156 247.769 C 184.659 247.639,184.371 247.759,184.363 248.099 C 184.355 248.458,184.221 248.409,183.953 247.949 C 183.734 247.573,183.159 247.266,182.676 247.266 C 182.192 247.266,181.593 247.062,181.345 246.813 C 181.002 246.471,180.746 246.483,180.290 246.861 C 179.957 247.138,179.688 247.186,179.688 246.968 C 179.688 246.752,179.307 246.476,178.842 246.354 C 178.128 246.168,178.075 246.039,178.499 245.528 C 179.045 244.869,178.524 244.679,177.896 245.307 C 177.351 245.852,173.091 242.255,172.435 240.695 C 172.125 239.959,171.627 239.451,171.210 239.447 C 170.613 239.442,170.595 239.384,171.094 239.057 C 171.461 238.815,171.534 238.563,171.289 238.379 C 170.756 237.979,170.623 237.330,170.470 234.375 C 170.398 232.979,170.270 231.353,170.184 230.762 C 170.099 230.171,170.162 229.688,170.325 229.688 C 170.488 229.688,170.482 229.071,170.312 228.318 C 170.142 227.565,170.132 226.869,170.290 226.772 C 170.949 226.364,170.619 208.654,169.956 208.862 C 169.416 209.033,169.412 209.004,169.922 208.645 C 170.667 208.119,170.925 202.166,170.183 202.610 C 169.909 202.775,169.933 202.630,170.242 202.248 C 170.634 201.764,170.653 201.418,170.322 200.798 C 170.082 200.350,169.992 199.812,170.122 199.601 C 170.252 199.391,170.060 199.219,169.695 199.219 C 168.443 199.219,165.625 197.548,165.625 196.806 C 165.625 195.846,165.765 195.489,166.099 195.601 C 166.253 195.652,166.278 195.432,166.155 195.113 C 166.030 194.785,166.150 194.531,166.430 194.531 C 166.703 194.531,166.813 194.417,166.673 194.277 C 166.533 194.137,166.722 193.800,167.093 193.529 C 167.602 193.157,167.840 193.148,168.058 193.490 C 168.250 193.792,168.349 193.724,168.353 193.290 C 168.358 192.759,168.684 192.657,170.075 192.753 C 171.019 192.818,172.028 192.725,172.318 192.546 C 172.785 192.257,173.820 192.342,175.280 192.789 M272.266 194.727 C 272.266 195.264,272.198 195.703,272.116 195.703 C 272.033 195.703,271.882 195.264,271.779 194.727 C 271.677 194.189,271.744 193.750,271.929 193.750 C 272.114 193.750,272.266 194.189,272.266 194.727 M192.871 195.117 C 192.871 195.654,192.707 196.094,192.506 196.094 C 192.306 196.094,192.251 195.917,192.385 195.700 C 192.518 195.484,192.322 195.190,191.948 195.046 C 191.322 194.806,191.328 194.762,192.021 194.490 C 192.435 194.328,192.795 194.183,192.822 194.168 C 192.849 194.153,192.871 194.580,192.871 195.117 M223.047 194.483 C 223.047 194.672,222.783 195.045,222.461 195.313 C 222.056 195.648,221.875 195.663,221.875 195.360 C 221.875 195.119,222.061 194.922,222.289 194.922 C 222.516 194.922,222.594 194.746,222.461 194.531 C 222.328 194.316,222.406 194.141,222.633 194.141 C 222.861 194.141,223.047 194.295,223.047 194.483 M51.513 195.605 C 50.869 197.246,51.057 210.585,51.739 211.688 C 51.923 211.987,52.226 211.991,52.766 211.702 C 53.187 211.476,53.704 211.398,53.914 211.528 C 54.279 211.754,54.456 210.370,54.338 208.203 C 54.089 203.605,54.119 198.794,54.404 197.708 C 54.809 196.166,54.395 193.827,53.937 195.067 C 53.688 195.742,53.618 195.750,53.033 195.165 C 52.175 194.307,52.002 194.357,51.513 195.605 M329.363 195.600 C 329.130 196.194,328.847 198.086,328.734 199.805 C 328.455 204.078,328.141 206.550,327.643 208.398 C 327.411 209.258,327.171 210.225,327.108 210.547 C 327.046 210.869,326.812 211.985,326.588 213.027 C 326.281 214.457,326.300 215.078,326.665 215.566 C 327.741 217.001,330.292 216.268,329.976 214.614 C 329.877 214.096,329.928 213.672,330.091 213.672 C 330.530 213.672,330.839 212.658,331.084 210.411 C 331.204 209.304,331.458 207.432,331.646 206.250 C 332.163 203.014,332.093 196.423,331.533 195.508 C 330.807 194.322,329.849 194.363,329.363 195.600 M291.797 197.461 C 291.797 197.783,291.621 198.047,291.406 198.047 C 291.191 198.047,291.016 197.783,291.016 197.461 C 291.016 197.139,291.191 196.875,291.406 196.875 C 291.621 196.875,291.797 197.139,291.797 197.461 M290.135 201.877 C 289.759 202.331,289.639 202.302,289.401 201.698 C 289.172 201.115,289.112 201.178,289.090 202.028 C 289.058 203.267,288.281 203.946,288.281 202.734 C 288.281 202.279,288.105 202.016,287.891 202.148 C 287.209 202.570,287.469 202.012,288.327 201.213 C 289.333 200.276,290.966 200.876,290.135 201.877 M89.844 202.604 C 89.844 202.962,89.728 203.140,89.587 202.998 C 89.445 202.857,89.094 202.937,88.805 203.176 C 88.155 203.716,88.107 203.065,88.750 202.422 C 89.406 201.765,89.844 201.838,89.844 202.604 M217.392 206.882 C 217.044 207.230,216.663 207.418,216.544 207.299 C 216.196 206.951,216.791 206.250,217.434 206.250 C 217.944 206.250,217.938 206.336,217.392 206.882 M146.001 209.643 C 145.627 209.741,144.924 209.745,144.438 209.651 C 143.952 209.558,144.258 209.478,145.117 209.474 C 145.977 209.469,146.374 209.546,146.001 209.643 M231.942 210.474 C 232.037 210.759,231.858 210.847,231.478 210.701 C 231.138 210.570,230.859 210.292,230.859 210.082 C 230.859 209.568,231.747 209.890,231.942 210.474 M95.035 210.938 C 94.923 211.367,94.675 211.719,94.486 211.719 C 94.077 211.719,94.063 211.594,94.378 210.774 C 94.722 209.877,95.276 210.015,95.035 210.938 M233.903 211.930 C 233.604 212.230,232.047 211.618,232.255 211.283 C 232.375 211.087,232.815 211.120,233.260 211.359 C 233.695 211.592,233.985 211.849,233.903 211.930 M128.454 214.890 C 127.722 215.354,127.458 215.315,127.226 214.709 C 127.080 214.330,127.295 214.236,128.001 214.371 C 128.719 214.508,128.839 214.646,128.454 214.890 M164.453 214.909 C 164.453 215.134,164.168 215.209,163.820 215.075 C 163.333 214.888,163.235 215.014,163.393 215.620 C 163.506 216.053,163.440 216.309,163.245 216.188 C 162.720 215.864,162.816 214.545,163.379 214.343 C 163.987 214.125,164.453 214.370,164.453 214.909 M290.638 217.383 C 291.174 218.113,291.165 218.128,290.498 217.603 C 289.878 217.116,289.738 217.116,289.429 217.603 C 289.234 217.912,289.072 217.979,289.068 217.754 C 289.063 217.393,289.925 216.274,290.026 216.510 C 290.047 216.561,290.323 216.953,290.638 217.383 M217.383 218.268 C 217.921 218.663,218.055 219.531,217.578 219.531 C 217.363 219.531,217.188 219.282,217.188 218.978 C 217.188 218.674,216.968 218.336,216.699 218.227 C 216.431 218.119,216.387 218.019,216.602 218.006 C 216.816 217.992,217.168 218.110,217.383 218.268 M298.047 219.690 C 298.047 220.054,297.773 220.168,297.233 220.026 C 296.614 219.865,296.543 219.734,296.940 219.483 C 297.699 219.002,298.047 219.067,298.047 219.690 M259.375 219.857 C 258.838 219.929,258.231 220.149,258.027 220.346 C 257.823 220.542,257.472 220.700,257.246 220.697 C 257.021 220.694,257.100 220.501,257.422 220.270 C 257.894 219.930,257.857 219.900,257.227 220.114 C 256.797 220.261,255.850 220.458,255.122 220.552 C 254.394 220.647,253.606 220.843,253.371 220.988 C 253.136 221.133,252.677 221.289,252.351 221.335 C 251.275 221.484,247.089 222.258,246.094 222.490 C 245.557 222.616,244.897 222.734,244.629 222.753 C 244.360 222.771,244.141 222.945,244.141 223.138 C 244.141 223.332,243.789 223.379,243.359 223.242 C 242.911 223.100,242.578 223.172,242.578 223.411 C 242.578 223.640,242.227 223.828,241.797 223.828 C 241.367 223.828,241.016 224.004,241.016 224.219 C 241.016 224.434,240.752 224.609,240.430 224.609 C 240.107 224.609,239.844 224.768,239.844 224.963 C 239.844 225.157,239.053 225.780,238.086 226.347 C 236.952 227.011,236.328 227.648,236.328 228.141 C 236.328 228.562,236.169 228.906,235.974 228.906 C 235.173 228.906,234.363 232.487,234.798 234.105 C 235.658 237.298,237.452 239.031,240.039 239.168 C 240.469 239.191,240.933 239.376,241.071 239.579 C 241.209 239.782,243.055 239.969,245.173 239.994 C 247.291 240.019,249.243 240.181,249.512 240.355 C 249.794 240.538,250.000 240.496,250.000 240.257 C 250.000 240.030,250.220 239.843,250.488 239.841 C 250.757 239.840,251.460 239.587,252.051 239.279 C 252.832 238.871,253.132 238.845,253.150 239.183 C 253.163 239.439,253.333 239.253,253.528 238.770 C 253.722 238.286,254.019 237.876,254.187 237.858 C 254.355 237.840,254.923 237.779,255.449 237.722 C 255.975 237.666,256.473 237.417,256.556 237.169 C 256.638 236.921,257.091 236.719,257.563 236.719 C 258.034 236.719,258.983 236.204,259.673 235.574 L 260.926 234.430 261.029 228.397 C 261.119 223.169,261.055 222.393,260.547 222.583 C 260.071 222.761,260.050 222.693,260.435 222.218 C 261.230 221.238,260.540 219.701,259.375 219.857 M294.895 224.055 C 294.440 224.604,292.894 224.656,293.231 224.111 C 293.345 223.926,293.684 223.869,293.985 223.985 C 294.297 224.104,294.531 223.953,294.531 223.633 C 294.531 223.294,294.299 223.161,293.945 223.296 C 293.241 223.567,293.236 223.517,293.815 221.856 L 294.271 220.548 294.791 222.051 C 295.163 223.124,295.193 223.697,294.895 224.055 M54.385 221.891 C 53.724 222.156,53.545 222.476,53.687 223.136 C 53.792 223.624,54.250 226.045,54.703 228.516 C 55.673 233.799,56.249 235.938,56.702 235.938 C 56.883 235.938,57.031 236.180,57.031 236.476 C 57.031 237.319,57.962 237.880,58.939 237.625 C 59.625 237.446,59.773 237.203,59.588 236.567 C 59.181 235.173,58.196 230.361,57.979 228.711 C 57.867 227.852,57.608 226.533,57.405 225.781 C 57.202 225.029,57.035 223.862,57.033 223.186 C 57.031 221.588,56.178 221.171,54.385 221.891 M83.974 223.121 C 84.385 223.249,84.310 223.363,83.715 223.519 C 83.107 223.678,82.826 223.531,82.682 222.979 C 82.540 222.439,82.615 222.325,82.941 222.581 C 83.193 222.780,83.658 223.023,83.974 223.121 M327.344 223.479 C 327.344 223.658,327.050 223.691,326.690 223.553 C 326.202 223.366,326.097 223.461,326.277 223.930 C 326.410 224.276,326.392 224.614,326.238 224.682 C 326.084 224.749,325.282 226.914,324.456 229.492 C 323.629 232.070,322.623 235.191,322.219 236.427 C 321.372 239.020,321.326 239.453,321.903 239.453 C 322.133 239.453,322.581 239.713,322.899 240.030 C 323.677 240.809,324.737 240.138,325.333 238.488 C 325.974 236.716,325.914 235.803,325.175 236.087 C 324.806 236.228,324.669 236.158,324.824 235.906 C 324.964 235.679,325.314 235.584,325.601 235.694 C 326.078 235.877,327.432 232.662,327.898 230.241 C 327.978 229.828,328.232 228.787,328.462 227.928 C 329.439 224.290,329.419 223.552,328.337 223.345 C 327.791 223.241,327.344 223.301,327.344 223.479 M190.188 224.173 C 190.622 224.607,190.800 225.108,190.622 225.396 C 190.407 225.743,190.243 225.643,190.055 225.052 C 189.910 224.594,189.627 224.219,189.427 224.219 C 189.226 224.219,189.063 224.043,189.063 223.828 C 189.063 223.255,189.362 223.347,190.188 224.173 M219.922 227.148 C 219.922 227.206,219.498 227.334,218.981 227.433 C 218.344 227.554,218.100 227.457,218.225 227.131 C 218.373 226.745,219.922 226.761,219.922 227.148 M294.141 229.311 C 294.141 229.866,293.954 229.780,293.127 228.849 C 292.387 228.016,292.388 228.014,293.262 228.473 C 293.745 228.726,294.141 229.103,294.141 229.311 M96.088 236.592 C 96.947 236.758,96.980 236.824,96.378 237.161 C 96.003 237.371,95.523 237.435,95.309 237.303 C 95.096 237.171,94.922 237.249,94.922 237.477 C 94.922 237.704,95.229 237.893,95.605 237.897 C 96.171 237.902,96.192 237.964,95.723 238.261 C 95.322 238.514,94.908 238.349,94.299 237.693 C 93.827 237.184,93.307 236.888,93.142 237.036 C 92.978 237.184,92.963 237.096,93.109 236.841 C 93.386 236.359,94.432 236.271,96.088 236.592 M60.201 245.172 C 59.738 245.695,59.752 245.978,60.298 247.124 C 60.650 247.861,60.938 248.805,60.938 249.222 C 60.938 249.639,61.465 251.132,62.109 252.539 C 62.754 253.946,63.281 255.280,63.281 255.504 C 63.281 257.702,66.653 262.332,67.954 261.919 C 69.028 261.578,68.904 260.946,66.777 255.945 C 65.928 253.951,65.234 252.055,65.234 251.733 C 65.234 251.411,64.982 251.050,64.673 250.932 C 64.364 250.814,64.192 250.508,64.290 250.252 C 64.491 249.728,62.727 245.875,61.914 245.061 C 61.240 244.387,60.875 244.411,60.201 245.172 M318.830 247.694 C 318.403 248.640,317.412 250.996,316.629 252.930 C 315.845 254.863,314.595 257.650,313.852 259.122 C 313.108 260.594,312.500 262.045,312.500 262.345 C 312.500 262.645,312.352 262.891,312.172 262.891 C 311.701 262.891,310.938 264.714,310.938 265.839 C 310.938 266.661,311.119 266.797,312.218 266.797 C 313.636 266.797,314.844 265.717,314.844 264.449 C 314.844 264.021,315.000 263.672,315.192 263.672 C 315.383 263.672,315.816 262.984,316.152 262.143 C 316.489 261.301,316.934 260.508,317.143 260.379 C 317.351 260.251,317.732 259.489,317.989 258.686 C 318.246 257.883,318.874 256.299,319.383 255.166 C 320.602 252.458,321.875 248.652,321.875 247.716 C 321.875 246.721,320.656 245.661,320.397 246.431 C 320.255 246.853,320.154 246.861,319.912 246.468 C 319.706 246.135,319.352 246.534,318.830 247.694 M272.266 251.071 C 272.266 251.796,272.040 251.678,271.315 250.571 C 270.681 249.602,270.684 249.591,271.465 250.079 C 271.906 250.354,272.266 250.800,272.266 251.071 M103.478 253.275 C 103.820 253.687,103.804 253.862,103.410 254.013 C 103.103 254.131,102.872 253.912,102.839 253.473 C 102.772 252.592,102.883 252.558,103.478 253.275 M282.031 257.227 C 282.031 257.549,281.768 257.813,281.445 257.813 C 280.429 257.813,280.758 257.043,281.934 256.671 C 281.987 256.655,282.031 256.904,282.031 257.227 M169.008 259.247 C 168.667 259.588,167.163 258.949,167.401 258.565 C 167.536 258.346,167.941 258.370,168.417 258.624 C 168.852 258.857,169.118 259.137,169.008 259.247 M279.582 261.564 C 279.308 261.838,278.125 261.283,278.125 260.882 C 278.125 260.682,278.491 260.715,278.940 260.955 C 279.388 261.195,279.677 261.469,279.582 261.564 M123.811 264.073 C 123.540 264.241,123.470 264.580,123.647 264.866 C 123.867 265.223,123.769 265.295,123.306 265.118 C 122.949 264.981,122.656 265.020,122.656 265.205 C 122.656 265.390,122.368 265.652,122.015 265.787 C 121.496 265.987,121.462 265.927,121.836 265.477 C 122.195 265.045,122.185 264.873,121.794 264.713 C 121.473 264.581,121.609 264.408,122.168 264.239 C 122.651 264.092,123.047 263.822,123.047 263.639 C 123.047 263.456,123.325 263.413,123.666 263.543 C 124.120 263.717,124.158 263.858,123.811 264.073 M133.008 265.430 C 133.008 265.824,132.788 266.219,132.520 266.309 C 132.210 266.412,132.031 266.089,132.031 265.430 C 132.031 264.770,132.210 264.448,132.520 264.551 C 132.788 264.640,133.008 265.036,133.008 265.430 M106.027 267.232 C 105.898 267.441,105.939 267.833,106.119 268.102 C 106.298 268.371,106.139 268.257,105.764 267.849 C 105.087 267.111,105.184 266.184,105.893 266.622 C 106.096 266.748,106.157 267.022,106.027 267.232 M132.728 267.383 C 131.450 268.568,131.250 268.591,131.250 267.555 C 131.250 267.113,131.424 266.859,131.638 266.990 C 131.851 267.122,132.334 267.050,132.712 266.830 C 133.839 266.174,133.844 266.348,132.728 267.383 M137.370 267.334 C 137.370 267.631,136.976 267.871,136.489 267.871 C 135.785 267.871,135.700 267.766,136.065 267.349 C 136.666 266.664,137.370 266.656,137.370 267.334 M205.873 268.929 C 205.294 269.626,204.505 269.751,204.920 269.080 C 205.086 268.811,205.028 268.735,204.775 268.891 C 204.542 269.035,204.240 268.973,204.103 268.753 C 203.788 268.243,205.544 267.547,206.019 267.993 C 206.229 268.191,206.170 268.572,205.873 268.929 M170.866 269.671 C 170.578 270.420,170.084 270.501,169.689 269.862 C 169.516 269.581,169.582 269.517,169.864 269.691 C 170.120 269.849,170.423 269.697,170.559 269.344 C 170.691 268.999,170.870 268.787,170.956 268.873 C 171.042 268.958,171.001 269.318,170.866 269.671 M278.906 270.508 C 278.619 271.045,278.238 271.484,278.059 271.484 C 277.507 271.484,277.701 270.799,278.320 270.562 C 278.643 270.438,278.906 270.039,278.906 269.674 C 278.906 269.309,279.024 269.128,279.167 269.271 C 279.311 269.415,279.193 269.972,278.906 270.508 M130.715 270.516 C 130.583 270.861,130.299 271.035,130.085 270.903 C 129.837 270.750,129.872 270.470,130.180 270.136 C 130.776 269.489,131.038 269.675,130.715 270.516 M106.641 270.982 C 106.641 271.089,106.357 271.069,106.011 270.936 C 105.533 270.752,105.445 270.859,105.644 271.382 C 105.843 271.907,105.797 271.962,105.448 271.616 C 104.864 271.036,105.312 270.277,106.067 270.567 C 106.383 270.688,106.641 270.875,106.641 270.982 M261.328 271.439 C 261.328 271.629,260.977 271.876,260.547 271.988 C 260.117 272.101,259.766 272.046,259.766 271.867 C 259.766 271.688,260.073 271.461,260.449 271.363 C 260.825 271.265,261.177 271.164,261.230 271.139 C 261.284 271.114,261.328 271.249,261.328 271.439 M73.442 272.065 C 72.858 272.769,73.197 274.365,74.131 275.312 C 74.502 275.688,75.154 276.653,75.580 277.456 C 76.006 278.259,76.709 279.310,77.142 279.790 C 78.478 281.273,80.078 283.522,80.078 283.918 C 80.078 284.564,82.785 286.705,83.334 286.494 C 84.621 286.000,82.668 281.781,79.850 278.962 C 79.326 278.438,78.384 277.113,77.756 276.017 C 75.681 272.394,74.254 271.087,73.442 272.065 M305.645 274.853 C 304.831 275.847,303.257 277.561,302.148 278.662 C 301.038 279.763,299.898 281.104,299.613 281.641 C 299.328 282.178,298.771 282.847,298.376 283.128 C 297.980 283.408,297.656 283.873,297.656 284.160 C 297.656 284.447,297.430 284.769,297.154 284.875 C 296.878 284.981,296.158 285.780,295.555 286.651 L 294.457 288.235 295.254 289.089 C 296.194 290.098,296.952 289.906,297.926 288.413 C 298.315 287.817,299.832 286.094,301.298 284.583 C 306.238 279.492,310.396 273.373,308.674 273.730 C 308.415 273.784,308.203 273.652,308.203 273.438 C 308.203 272.521,307.020 273.176,305.645 274.853 M173.438 275.391 C 173.438 275.605,173.174 275.781,172.852 275.781 C 172.529 275.781,172.266 275.605,172.266 275.391 C 172.266 275.176,172.529 275.000,172.852 275.000 C 173.174 275.000,173.438 275.176,173.438 275.391 M249.380 278.851 C 249.493 279.034,249.183 279.366,248.692 279.590 C 247.875 279.962,247.798 279.901,247.798 278.890 C 247.798 277.809,248.722 277.786,249.380 278.851 M167.047 279.026 C 167.462 279.441,166.288 279.336,165.625 278.899 C 165.160 278.593,165.218 278.538,165.908 278.635 C 166.386 278.701,166.898 278.878,167.047 279.026 M264.513 279.784 C 264.109 280.188,263.281 279.870,263.281 279.310 C 263.281 279.128,263.644 279.074,264.088 279.190 C 264.615 279.328,264.762 279.534,264.513 279.784 M118.945 280.469 C 118.799 280.931,118.591 281.221,118.483 281.114 C 118.376 281.006,118.408 280.540,118.555 280.078 C 118.701 279.616,118.909 279.326,119.017 279.433 C 119.124 279.541,119.092 280.007,118.945 280.469 M220.416 281.543 C 220.164 282.200,220.096 282.109,219.756 280.664 C 219.498 279.571,219.518 279.543,220.048 280.257 C 220.361 280.678,220.526 281.257,220.416 281.543 M147.999 280.431 C 148.295 280.619,148.415 280.970,148.265 281.213 C 148.115 281.455,147.826 281.550,147.623 281.425 C 147.419 281.299,147.372 281.003,147.519 280.766 C 147.691 280.487,147.550 280.426,147.114 280.593 C 146.716 280.746,146.541 280.694,146.682 280.464 C 146.974 279.993,147.295 279.985,147.999 280.431 M216.913 282.853 C 216.604 283.162,216.277 283.165,215.760 282.865 C 215.128 282.497,215.181 282.444,216.191 282.434 C 217.032 282.425,217.227 282.539,216.913 282.853 M88.845 292.926 C 88.750 293.021,88.672 293.340,88.672 293.635 C 88.672 294.253,98.097 303.906,98.700 303.906 C 98.920 303.906,99.522 304.274,100.038 304.723 C 100.840 305.420,100.995 305.449,101.103 304.918 C 101.172 304.576,101.398 304.297,101.605 304.297 C 102.381 304.297,99.458 300.513,97.117 298.487 C 95.202 296.829,94.649 296.236,94.407 295.581 C 94.264 295.191,93.983 294.973,93.784 295.096 C 93.585 295.219,93.157 295.054,92.833 294.730 C 92.509 294.406,92.055 294.141,91.825 294.141 C 91.595 294.141,91.406 293.965,91.406 293.750 C 91.406 293.535,91.099 293.357,90.723 293.353 C 90.138 293.348,90.124 293.292,90.625 292.967 C 91.072 292.676,90.951 292.606,90.115 292.669 C 89.512 292.715,88.941 292.830,88.845 292.926 M202.469 294.093 C 202.309 294.705,202.141 294.836,201.938 294.506 C 201.774 294.241,201.842 293.805,202.090 293.536 C 202.677 292.897,202.753 293.008,202.469 294.093 M288.086 295.644 C 286.234 296.781,280.859 301.969,280.859 302.619 C 280.859 302.959,280.632 303.121,280.323 303.003 C 280.017 302.885,279.576 303.190,279.298 303.709 C 279.029 304.211,278.462 304.713,278.037 304.824 C 277.613 304.935,277.372 305.198,277.502 305.409 C 277.633 305.620,277.552 305.855,277.324 305.931 C 276.609 306.170,277.353 307.340,278.385 307.599 C 279.215 307.807,279.753 307.472,281.795 305.479 C 283.129 304.177,284.650 302.815,285.176 302.451 C 285.702 302.087,286.328 301.607,286.566 301.383 C 286.805 301.160,287.645 300.397,288.433 299.688 C 289.221 298.979,289.763 298.232,289.636 298.027 C 289.510 297.823,289.750 297.656,290.170 297.656 C 291.120 297.656,291.533 296.671,291.000 295.675 C 290.495 294.731,289.590 294.721,288.086 295.644 M223.828 295.703 C 223.828 295.918,223.564 296.094,223.242 296.094 C 222.920 296.094,222.656 295.918,222.656 295.703 C 222.656 295.488,222.920 295.313,223.242 295.313 C 223.564 295.313,223.828 295.488,223.828 295.703 M217.399 296.458 C 217.083 296.970,216.016 297.012,216.016 296.513 C 216.016 296.314,216.323 296.083,216.699 295.999 C 217.552 295.809,217.728 295.925,217.399 296.458 M149.647 297.415 C 149.301 297.832,149.335 298.008,149.795 298.184 C 150.122 298.310,150.388 298.638,150.385 298.914 C 150.381 299.257,150.288 299.279,150.092 298.984 C 149.934 298.748,149.277 298.366,148.633 298.136 C 147.663 297.790,147.608 297.713,148.317 297.687 C 148.788 297.670,149.281 297.480,149.414 297.266 C 149.547 297.051,149.755 296.875,149.876 296.875 C 149.997 296.875,149.894 297.118,149.647 297.415 M156.640 297.613 C 156.641 298.000,155.254 298.721,154.826 298.557 C 154.011 298.244,154.683 297.348,155.689 297.406 C 156.212 297.436,156.640 297.529,156.640 297.613 M218.564 302.363 C 217.925 302.556,217.275 302.587,217.120 302.431 C 216.965 302.276,217.488 302.118,218.283 302.081 C 219.711 302.014,219.714 302.016,218.564 302.363 M227.838 303.223 C 227.955 303.529,227.645 303.734,227.007 303.773 C 226.038 303.832,226.025 303.808,226.740 303.285 C 227.652 302.618,227.607 302.621,227.838 303.223 M217.188 307.422 C 217.661 307.728,217.605 307.802,216.895 307.807 C 216.411 307.810,216.016 307.637,216.016 307.422 C 216.016 306.932,216.430 306.932,217.188 307.422 M109.246 311.491 C 109.088 311.903,109.233 312.120,109.680 312.140 C 110.088 312.159,110.160 312.248,109.863 312.368 C 108.991 312.720,109.337 313.180,111.600 314.682 C 114.869 316.852,117.190 318.013,117.668 317.718 C 117.915 317.565,117.977 317.640,117.818 317.897 C 117.651 318.167,117.967 318.439,118.636 318.602 C 119.236 318.747,120.073 319.104,120.497 319.394 C 120.921 319.684,121.395 319.922,121.551 319.922 C 121.930 319.922,123.995 317.996,123.792 317.833 C 123.396 317.513,119.924 315.965,119.711 316.013 C 119.579 316.043,119.155 315.701,118.767 315.254 C 118.338 314.760,117.815 314.537,117.430 314.685 C 117.081 314.818,116.797 314.733,116.797 314.495 C 116.797 314.257,116.533 314.063,116.211 314.063 C 115.889 314.063,115.625 313.907,115.625 313.716 C 115.625 313.526,114.966 313.077,114.160 312.719 C 113.354 312.360,112.224 311.810,111.648 311.496 C 110.896 311.086,110.524 311.049,110.330 311.364 C 110.132 311.683,109.981 311.676,109.771 311.337 C 109.564 311.002,109.417 311.045,109.246 311.491 M265.434 314.354 C 264.796 314.946,264.110 315.376,263.911 315.311 C 263.711 315.246,263.444 315.339,263.317 315.516 C 263.190 315.694,262.251 316.274,261.230 316.806 C 260.210 317.337,259.375 317.904,259.375 318.066 C 259.375 318.227,259.125 318.359,258.819 318.359 C 258.513 318.359,257.741 318.799,257.102 319.336 C 256.464 319.873,255.748 320.313,255.510 320.313 C 255.272 320.313,255.078 320.499,255.078 320.726 C 255.078 320.954,254.912 321.037,254.708 320.911 C 254.245 320.625,254.535 322.269,255.036 322.770 C 255.409 323.144,258.965 322.028,259.402 321.400 C 259.524 321.224,260.957 320.387,262.585 319.539 C 266.766 317.362,268.236 315.955,267.754 314.591 C 267.244 313.148,266.787 313.102,265.434 314.354 M133.792 324.600 C 133.387 325.878,138.016 328.906,140.373 328.906 C 141.218 328.906,144.274 330.128,144.585 330.590 C 144.722 330.793,145.030 330.839,145.269 330.691 C 145.508 330.543,145.703 330.638,145.703 330.901 C 145.703 331.165,145.807 331.276,145.934 331.150 C 146.061 331.023,146.874 331.169,147.741 331.475 C 149.939 332.251,150.753 332.173,151.138 331.152 C 151.744 329.549,150.301 328.601,146.161 327.884 C 145.876 327.835,145.348 327.664,144.989 327.505 C 144.630 327.346,144.248 327.193,144.141 327.166 C 142.989 326.868,140.747 326.011,140.480 325.765 C 140.292 325.592,139.897 325.545,139.601 325.658 C 139.305 325.772,139.063 325.656,139.063 325.400 C 139.063 325.144,138.843 325.011,138.574 325.104 C 138.306 325.198,137.667 324.949,137.154 324.551 C 135.892 323.572,134.110 323.598,133.792 324.600 M240.625 326.979 C 239.873 327.399,239.038 327.658,238.770 327.555 C 238.501 327.452,238.281 327.502,238.281 327.665 C 238.281 327.829,236.655 328.563,234.668 329.298 C 232.681 330.032,230.947 330.787,230.816 330.975 C 230.684 331.163,230.440 331.258,230.272 331.186 C 229.774 330.971,229.153 332.264,229.419 332.959 C 229.607 333.449,230.089 333.578,231.437 333.501 C 232.564 333.436,233.146 333.237,233.039 332.954 C 232.943 332.700,233.150 332.580,233.525 332.673 C 234.301 332.865,240.332 330.306,239.965 329.939 C 239.827 329.801,240.030 329.688,240.416 329.688 C 242.038 329.688,243.748 328.158,243.279 327.128 C 242.761 325.992,242.428 325.974,240.625 326.979 M161.914 331.936 C 159.836 332.165,159.672 332.306,160.328 333.307 C 160.949 334.255,164.748 335.781,165.677 335.455 C 165.971 335.353,166.611 335.416,167.100 335.597 C 167.589 335.778,168.426 336.005,168.959 336.102 C 169.492 336.198,170.279 336.389,170.706 336.525 C 171.213 336.685,171.486 336.592,171.490 336.257 C 171.495 335.851,171.569 335.857,171.839 336.284 C 172.049 336.614,172.575 336.751,173.189 336.633 C 173.742 336.528,174.102 336.591,173.989 336.775 C 173.555 337.477,176.204 337.077,176.953 336.328 C 177.894 335.388,177.928 335.156,177.125 335.156 C 176.790 335.156,176.613 335.000,176.731 334.809 C 177.037 334.313,174.778 334.054,173.990 334.495 C 173.617 334.704,173.426 334.710,173.550 334.508 C 173.671 334.312,171.630 333.744,169.014 333.246 C 166.398 332.747,163.994 332.219,163.672 332.073 C 163.350 331.926,162.559 331.864,161.914 331.936 M217.810 333.882 C 217.522 334.171,217.242 334.206,213.379 334.436 C 212.251 334.503,211.328 334.687,211.328 334.845 C 211.328 335.003,211.064 335.031,210.742 334.907 C 210.420 334.783,210.156 334.895,210.156 335.156 C 210.156 335.417,209.911 335.536,209.611 335.421 C 209.255 335.285,209.000 335.553,208.878 336.191 C 208.760 336.808,208.892 337.248,209.234 337.380 C 210.282 337.782,220.152 336.123,220.551 335.477 C 221.302 334.261,218.855 332.837,217.810 333.882 M186.289 335.789 C 185.353 336.917,186.545 337.902,189.063 338.085 C 189.814 338.139,190.696 338.297,191.022 338.435 C 194.362 339.849,204.609 337.921,203.143 336.154 C 202.452 335.322,201.326 335.393,200.391 336.328 C 199.530 337.189,199.255 336.476,200.098 335.568 C 200.489 335.146,200.487 335.097,200.090 335.322 C 199.689 335.549,194.472 335.755,193.750 335.572 C 192.555 335.270,186.575 335.444,186.289 335.789 " stroke="none" fill="#000000" fill-rule="evenodd"/></g></svg>