<svg xmlns="http://www.w3.org/2000/svg" xmlns:xlink="http://www.w3.org/1999/xlink" version="1.1" id="Layer_1" x="0px" y="0px" enable-background="new 0 0 1024 1024" xml:space="preserve" viewBox="130.19 118.85 757.36 773.65">
<path fill="#000000" opacity="1.000000" stroke="none" d=" M352.353821,849.686035   C342.559784,841.450806 335.158752,831.955811 330.683746,820.195129   C323.123474,800.325928 320.151062,779.934204 322.508759,758.744934   C323.427826,750.485046 320.852142,742.339966 321.548676,733.947144   C322.844330,718.334351 319.962128,702.724243 320.695770,687.066162   C321.131470,677.766479 321.603333,668.455811 321.588715,659.150879   C321.569916,647.195984 320.863922,635.242188 320.838684,623.287170   C320.792816,601.557373 326.009430,581.179321 335.005249,561.285889   C338.532623,553.485352 344.482697,547.494141 347.521820,539.671326   C347.690155,539.238098 348.094788,538.838867 348.486053,538.558716   C354.562683,534.209045 360.501831,529.640625 366.798065,525.633850   C370.999817,522.959961 375.525024,520.876160 379.160736,517.292969   C381.314789,515.170044 384.264343,514.176880 387.309418,513.901062   C408.658600,511.967133 430.028381,510.007751 451.464203,509.812744   C471.560638,509.629913 491.664429,510.512268 511.766937,510.658203   C532.926636,510.811859 554.108582,511.198090 575.242676,510.431274   C589.513123,509.913483 603.935120,511.048004 618.051819,508.505463   C633.597046,505.705627 649.039490,502.097321 662.483215,493.146912   C672.439331,486.518402 682.092224,479.215912 688.926758,469.355255   C700.382202,452.827789 710.335754,435.494812 712.686157,414.833405   C715.057739,393.985565 714.530945,373.076660 714.696472,352.176056   C714.796143,339.595245 714.783691,327.013794 714.007629,314.450439   C713.782593,310.807190 714.908813,309.093292 718.950623,308.754578   C731.550171,307.698730 744.128357,308.264008 756.701660,308.769592   C766.598083,309.167603 776.456116,311.133209 786.359924,310.567291   C801.415161,309.707062 814.907532,315.227509 827.594543,321.659088   C843.772583,329.860443 855.946472,342.347229 861.672974,360.671875   C863.615601,366.888245 865.802429,373.402039 869.706177,379.407623   C873.582031,385.370453 875.037598,393.378204 876.713745,400.824646   C878.722534,409.748779 878.906738,418.798126 880.260010,427.737579   C881.226685,434.123566 882.101257,440.602264 883.972107,446.748840   C885.604736,452.112671 885.424744,457.638367 886.591370,462.877716   C888.920898,473.339844 886.157349,483.688232 887.030945,493.859253   C888.763611,514.031860 884.237854,533.811890 885.056274,553.909424   C885.509216,565.034180 884.537354,576.656494 880.956177,587.306519   C878.096313,595.811768 878.256775,604.727966 875.400269,613.118103   C873.816956,617.768555 870.078125,620.939209 868.244446,625.495422   C864.091553,635.814697 859.360291,645.942200 853.203552,655.269714   C848.469666,662.441589 842.070740,667.988281 834.777893,672.448303   C833.166504,673.433716 831.809692,674.615845 830.619019,675.953064   C825.023621,682.237000 816.740845,682.462524 809.619019,685.095459   C799.972656,688.661621 789.508057,689.769287 779.406372,689.577148   C769.215515,689.383301 758.760925,691.133972 748.722717,687.846558   C746.275818,687.045166 744.225098,688.592590 741.870972,688.528748   C726.472107,688.111084 711.030273,688.567688 695.679626,687.879395   C688.235413,687.545654 680.743896,688.572510 673.058777,686.766479   C665.015747,684.876221 656.226379,686.108154 647.762756,686.072876   C632.340942,686.008545 616.906189,686.405212 601.499573,685.907532   C575.037903,685.052795 548.611755,687.238586 522.160339,686.402710   C519.091919,686.305725 515.974792,686.691162 514.455139,689.897705   C513.045715,692.871643 512.464417,696.170898 514.794189,698.882080   C518.552673,703.255859 522.904846,706.661987 529.206543,706.692993   C537.165710,706.732117 545.074646,707.453491 553.094971,707.072388   C564.040405,706.552429 575.060608,707.812744 586.029480,707.537964   C610.448181,706.926331 634.852112,707.918945 659.251526,707.736084   C672.235596,707.638794 685.111572,709.936279 698.011780,708.346924   C699.626770,711.103027 699.296570,713.836609 699.291138,716.416199   C699.258240,732.039490 700.008240,747.656677 700.260376,763.268555   C700.452271,775.145874 699.141418,786.813354 698.044189,798.442688   C696.084167,819.215942 687.575012,837.563293 671.478943,851.347534   C664.625183,857.216858 656.450623,861.743408 647.595886,864.242065   C643.948975,865.271240 640.864929,867.321228 637.943726,869.158936   C629.539124,874.446289 619.725220,873.605103 610.860291,876.589172   C601.885437,879.610107 592.302734,880.468384 583.408142,883.531921   C573.534912,886.932495 563.259827,888.479614 553.207458,888.782227   C535.612671,889.311890 518.276855,893.820374 500.628784,892.112915   C489.107605,890.998169 477.559845,890.758240 466.015198,888.946289   C455.500183,887.296021 444.735199,886.167236 434.049194,885.293274   C420.849762,884.213928 408.348846,880.601746 396.236420,875.756897   C391.951691,874.043091 387.311249,873.992249 383.155884,871.324097   C377.537994,867.716553 372.952728,862.856445 367.203094,859.470825   C362.206238,856.528442 357.497162,853.097351 352.353821,849.686035  M600.129517,805.425781   C616.224365,817.431641 642.793945,810.327698 647.886841,787.198853   C650.953186,773.273193 645.512756,763.482300 634.789734,754.770935   C625.195557,746.976746 605.015808,748.095398 596.684448,755.926636   C585.633667,766.313904 582.966125,781.098877 590.294006,793.995728   C592.731506,798.285645 595.960693,801.750916 600.129517,805.425781  z"/>
<path fill="#000000" opacity="1.000000" stroke="none" d=" M695.273926,250.639740   C694.066345,254.377594 695.226929,257.653107 695.221313,260.928375   C695.201782,272.362854 694.885193,283.796539 694.721191,295.231079   C694.485901,311.638733 694.695862,328.066772 693.900696,344.446533   C693.490356,352.899872 695.050171,361.342804 693.490234,369.779846   C692.985779,372.508392 693.192627,375.408936 693.859741,378.221924   C694.239441,379.823151 694.580261,381.592133 694.292725,383.167633   C692.245361,394.381439 692.874512,405.868317 690.348145,417.068207   C687.039612,431.735382 681.044739,445.401276 670.828247,455.959473   C661.583130,465.513855 652.789307,476.649292 638.828857,480.388092   C628.130920,483.253204 617.373169,485.192291 606.268494,486.533539   C592.199951,488.232758 578.256653,489.528656 564.136475,489.358612   C545.215942,489.130768 526.295410,488.869812 507.377319,488.498291   C486.453278,488.087402 465.540924,488.304901 444.617737,488.749420   C437.334015,488.904144 430.000854,488.373566 422.678619,488.538177   C412.034912,488.777466 401.566864,490.560425 391.024811,491.749817   C382.143921,492.751770 373.444122,495.334869 365.883270,499.082214   C355.636292,504.160919 346.314484,511.404938 337.702057,519.360229   C325.058441,531.039124 318.235870,546.427185 310.138458,560.981201   C307.258545,566.157349 308.264740,572.762817 305.906769,578.322144   C301.318848,589.138855 300.725128,600.805969 300.830444,612.079895   C300.950043,624.882751 299.188995,637.603333 299.683807,650.263489   C300.195923,663.367554 299.789764,676.491028 300.723175,689.549988   C301.100189,694.824707 298.855225,695.500183 294.760681,695.430298   C285.194733,695.267212 275.618347,694.920349 266.062683,695.203735   C258.317810,695.433350 250.571396,697.826050 242.912140,694.675598   C236.764435,699.441528 231.259888,694.172363 225.433014,693.655457   C212.613953,692.518250 200.758347,688.405334 189.884399,681.893799   C184.249115,678.519287 179.506470,673.620728 174.473404,669.279907   C159.020004,655.951965 151.315521,638.278259 145.151016,619.292725   C140.441437,604.788208 140.277969,589.587402 136.295120,574.995056   C134.742645,569.307007 135.878098,562.186584 134.570435,556.483582   C132.539810,547.627502 132.679001,538.729675 131.080643,530.045471   C130.090988,524.668457 130.053207,519.692627 130.352341,514.395935   C130.848343,505.613464 130.906723,496.793121 130.804001,487.992737   C130.575577,468.420471 130.278610,448.756256 132.986160,429.413300   C134.990555,415.093719 139.051422,400.989868 143.511627,387.106201   C145.467499,381.018005 148.304459,375.042145 148.499634,368.555786   C148.640854,363.862671 153.030869,362.676697 154.791733,359.385681   C162.688385,344.626953 175.223907,334.038910 188.760452,325.204285   C198.768753,318.672363 210.701065,315.324188 222.802673,313.678253   C241.603088,311.121185 260.563080,311.686340 279.437042,311.306610   C305.664429,310.778961 331.925018,311.255615 358.158905,311.851196   C393.733917,312.658905 429.308929,312.540131 464.885406,312.676208   C473.331848,312.708527 481.783203,312.834167 490.221588,313.179169   C497.677490,313.484009 499.704071,312.280060 502.203400,305.175995   C502.474548,304.405243 502.828033,303.570221 503.388794,303.011292   C505.430847,300.976044 506.717896,298.720062 505.364960,295.867401   C503.955566,292.895691 501.036835,292.188446 498.193115,292.248932   C494.866577,292.319702 491.755493,292.541260 488.595886,290.811676   C487.036438,289.958008 484.586060,290.102356 482.715881,290.544312   C466.422699,294.394836 449.908722,291.226471 433.508453,291.975098   C414.470917,292.844147 395.313507,290.703186 376.199860,290.412506   C361.389679,290.187225 346.549805,289.753876 331.750946,290.888763   C327.683685,291.200714 323.895905,289.641327 319.900238,289.711609   C317.624969,289.751648 317.578552,288.152802 317.184967,286.372284   C316.029694,281.145386 317.929840,276.170959 318.156708,271.067505   C318.858612,255.276474 317.178986,239.529877 317.891022,223.733398   C318.420258,211.991867 318.311707,200.159622 323.011627,189.207565   C326.987854,179.941864 332.139832,171.106094 338.886169,163.583725   C349.362610,151.902191 362.347107,143.122528 376.687378,137.233047   C385.072632,133.789261 394.107483,131.348267 403.186340,129.269531   C415.786926,126.384438 428.553009,125.940376 441.191986,124.769180   C453.179474,123.658363 465.128296,121.907829 477.144287,120.922005   C487.339905,120.085518 497.655029,118.402466 507.766663,118.960411   C524.527771,119.885269 541.442932,118.034409 558.014221,120.862160   C568.533997,122.657265 579.315918,122.154045 589.532898,124.417122   C597.896240,126.269585 606.242737,128.427139 614.725403,129.356934   C621.995422,130.153809 629.061157,131.602112 634.739746,135.900269   C643.562744,142.578461 653.973755,146.360672 662.946106,152.555328   C668.390259,156.314072 672.971191,161.368500 675.866638,167.511810   C677.977417,171.990280 680.014893,176.381454 682.924561,180.511032   C686.835876,186.062134 688.781067,192.682938 689.947693,199.436096   C691.724670,209.721375 693.545532,219.999084 695.314514,230.285736   C696.454468,236.914505 694.851562,243.549667 695.273926,250.639740  M370.390808,208.024399   C368.794678,212.137909 370.038788,216.303375 370.489777,220.352356   C371.664307,230.896606 375.594818,239.753647 386.280060,244.248383   C392.182739,246.731354 398.368317,249.184769 404.545807,248.415543   C416.540039,246.921967 426.149719,241.179031 430.815796,229.156967   C434.942078,218.525726 434.324371,208.596893 427.636993,198.951248   C419.535339,187.265762 405.519562,183.947037 393.285736,187.159027   C382.257812,190.054382 376.081909,198.209869 370.390808,208.024399  z"/>
</svg>