<svg xmlns="http://www.w3.org/2000/svg" xmlns:xlink="http://www.w3.org/1999/xlink" id="svg" viewBox="48.83 53.15 301.17 293.5"><g id="svgg"><path id="path0" d="M188.306 53.809 C 188.279 54.751,187.436 54.884,184.961 54.336 C 184.281 54.185,183.391 54.278,182.841 54.557 C 182.319 54.822,181.748 54.949,181.573 54.841 C 181.397 54.732,179.714 54.562,177.834 54.462 C 175.953 54.362,172.520 54.148,170.204 53.987 C 167.889 53.825,165.844 53.844,165.660 54.028 C 165.476 54.212,163.212 54.304,160.629 54.232 C 158.046 54.160,156.020 54.243,156.128 54.416 C 156.235 54.589,155.120 54.742,153.650 54.755 C 148.745 54.800,145.125 55.012,144.399 55.297 C 144.004 55.452,143.048 55.384,142.274 55.147 C 141.500 54.909,140.681 54.856,140.453 55.028 C 139.597 55.675,132.284 55.450,131.476 54.751 C 131.063 54.394,130.853 54.321,131.010 54.589 C 131.226 54.959,130.655 55.073,128.636 55.064 C 127.173 55.058,125.154 55.142,124.148 55.252 C 122.640 55.417,122.289 55.334,122.143 54.777 C 121.977 54.144,121.963 54.144,121.920 54.785 C 121.880 55.394,120.215 55.765,118.648 55.514 C 118.485 55.488,115.153 55.458,111.244 55.449 C 106.776 55.438,103.949 55.276,103.631 55.012 C 103.268 54.710,103.125 54.716,103.125 55.030 C 103.125 55.271,102.939 55.469,102.711 55.469 C 102.484 55.469,102.430 55.249,102.591 54.980 C 102.825 54.591,102.763 54.590,102.285 54.977 C 101.956 55.244,101.567 55.343,101.421 55.197 C 101.034 54.810,99.610 54.763,99.846 55.145 C 99.956 55.323,99.552 55.484,98.949 55.503 C 98.345 55.521,97.236 55.598,96.484 55.674 C 95.732 55.750,94.196 55.905,93.070 56.019 C 91.944 56.134,90.626 56.481,90.140 56.791 C 88.744 57.684,82.227 58.101,82.543 57.278 C 82.678 56.927,82.618 56.641,82.410 56.641 C 82.202 56.641,82.031 56.989,82.031 57.414 C 82.031 57.941,81.688 58.263,80.957 58.424 C 80.366 58.553,79.619 58.759,79.297 58.881 C 78.125 59.324,77.521 59.452,76.600 59.451 C 75.902 59.450,75.802 59.539,76.210 59.797 C 76.639 60.069,76.594 60.146,76.002 60.150 C 75.044 60.158,71.921 61.655,70.912 62.589 C 70.490 62.980,69.880 63.199,69.557 63.075 C 69.234 62.951,69.095 62.975,69.248 63.128 C 69.402 63.282,68.887 63.842,68.104 64.374 C 66.626 65.379,66.011 65.869,63.966 67.676 C 62.806 68.700,62.385 68.860,60.849 68.855 C 60.478 68.854,60.278 69.021,60.404 69.226 C 60.531 69.431,61.010 69.501,61.469 69.381 C 61.951 69.255,60.613 70.795,58.300 73.029 C 56.098 75.154,54.297 77.161,54.297 77.486 C 54.297 77.812,54.094 78.204,53.846 78.358 C 53.547 78.542,53.502 78.463,53.711 78.125 C 53.925 77.779,53.875 77.708,53.555 77.905 C 53.296 78.065,53.156 78.400,53.244 78.649 C 53.332 78.898,53.104 79.541,52.737 80.078 C 51.718 81.568,51.481 83.475,52.153 84.774 C 52.870 86.160,52.870 86.137,52.121 86.886 C 51.562 87.444,51.567 87.500,52.170 87.500 C 52.857 87.500,52.721 90.505,52.013 91.004 C 51.851 91.118,51.694 92.617,51.665 94.336 C 51.636 96.055,51.601 97.603,51.587 97.777 C 51.574 97.951,51.360 97.968,51.112 97.814 C 50.802 97.623,50.769 97.708,51.004 98.084 C 51.193 98.386,51.300 98.925,51.241 99.282 C 51.182 99.639,51.319 100.045,51.544 100.184 C 52.386 100.704,51.934 101.145,50.943 100.768 C 50.175 100.476,49.972 100.502,50.097 100.876 C 50.187 101.146,50.465 101.389,50.716 101.416 C 50.967 101.443,51.348 101.487,51.563 101.514 C 52.080 101.578,52.065 103.010,51.544 103.332 C 51.297 103.484,51.272 103.766,51.481 104.039 C 51.672 104.288,51.787 105.107,51.737 105.859 C 51.686 106.611,51.627 107.553,51.604 107.952 C 51.575 108.457,51.368 108.603,50.921 108.431 C 50.433 108.244,50.379 108.305,50.695 108.685 C 51.098 109.171,50.998 113.506,50.551 114.941 C 50.434 115.317,50.510 115.625,50.720 115.625 C 50.931 115.625,51.055 115.933,50.997 116.309 C 50.939 116.685,51.071 117.108,51.290 117.250 C 51.810 117.585,51.670 121.470,51.114 122.140 C 50.802 122.515,50.804 122.656,51.121 122.656 C 51.385 122.656,51.491 123.154,51.390 123.926 C 51.299 124.624,51.213 125.415,51.198 125.684 C 51.184 125.952,50.938 126.172,50.651 126.172 C 50.365 126.172,50.130 126.433,50.130 126.752 C 50.130 127.190,50.257 127.226,50.651 126.899 C 51.072 126.549,51.172 126.812,51.172 128.272 C 51.172 129.283,50.990 130.078,50.758 130.078 C 50.531 130.078,50.453 129.902,50.586 129.688 C 50.719 129.473,50.641 129.297,50.414 129.297 C 49.908 129.297,49.870 130.176,50.354 130.684 C 51.021 131.384,51.054 135.756,50.391 135.639 C 49.963 135.564,50.000 135.688,50.524 136.099 C 51.082 136.536,51.195 136.996,51.027 138.155 C 50.908 138.976,50.804 139.879,50.796 140.160 C 50.788 140.441,50.605 140.562,50.391 140.430 C 49.837 140.088,49.905 140.757,50.488 141.385 C 50.879 141.806,50.879 141.856,50.488 141.636 C 50.185 141.465,50.000 141.600,50.000 141.992 C 50.000 142.369,50.181 142.512,50.449 142.347 C 50.779 142.143,50.819 142.627,50.600 144.179 C 49.866 149.398,49.673 159.204,50.293 159.824 C 50.562 160.093,50.769 160.849,50.754 161.504 C 50.730 162.523,50.678 162.582,50.391 161.914 C 50.066 161.158,50.054 161.160,50.027 161.979 C 50.012 162.445,50.220 162.906,50.488 163.005 C 50.879 163.148,50.879 163.287,50.488 163.701 C 49.848 164.380,49.861 165.625,50.507 165.625 C 51.038 165.625,50.966 168.161,50.413 168.945 C 50.085 169.411,50.200 175.720,50.543 176.063 C 50.944 176.465,50.807 180.078,50.391 180.078 C 50.174 180.078,50.000 181.120,50.000 182.422 C 50.000 184.227,50.132 184.766,50.576 184.766 C 51.030 184.766,51.073 184.974,50.781 185.742 C 50.577 186.279,50.537 186.721,50.693 186.725 C 50.849 186.728,50.767 186.864,50.511 187.027 C 49.990 187.358,49.827 190.920,50.095 196.094 C 50.294 199.939,49.714 205.533,49.073 205.951 C 48.760 206.155,48.774 206.240,49.121 206.244 C 49.419 206.248,49.609 206.792,49.609 207.640 C 49.609 208.468,49.451 208.933,49.219 208.789 C 49.004 208.656,48.828 208.734,48.828 208.961 C 48.828 209.189,48.986 209.375,49.179 209.375 C 49.633 209.375,50.054 215.184,49.943 219.922 C 49.767 227.429,50.033 234.538,50.507 235.012 C 50.630 235.135,50.567 235.669,50.366 236.198 C 49.846 237.564,49.913 239.991,50.485 240.563 C 50.795 240.873,50.830 241.148,50.583 241.325 C 50.370 241.477,50.168 242.217,50.134 242.969 C 49.989 246.180,49.865 246.838,49.449 246.589 C 49.210 246.446,49.232 246.592,49.499 246.922 C 49.872 247.383,50.493 252.304,50.454 254.492 C 50.451 254.707,50.354 257.162,50.241 259.948 C 50.089 263.671,50.159 265.093,50.505 265.313 C 50.867 265.544,50.863 265.614,50.485 265.619 C 50.090 265.624,50.090 265.788,50.485 266.457 C 50.878 267.122,50.878 267.325,50.488 267.466 C 49.910 267.676,49.825 269.141,50.391 269.141 C 50.824 269.141,50.932 271.203,50.521 271.614 C 50.256 271.879,49.914 276.503,49.923 279.688 C 49.941 285.624,50.341 296.088,50.563 296.448 C 50.709 296.683,50.640 296.875,50.410 296.875 C 50.137 296.875,50.160 297.141,50.476 297.648 C 50.846 298.240,50.855 298.697,50.513 299.601 C 50.221 300.375,50.205 300.781,50.467 300.781 C 50.694 300.781,50.798 301.373,50.707 302.148 C 50.619 302.900,50.703 303.516,50.892 303.516 C 51.082 303.516,51.156 303.735,51.058 304.004 C 50.959 304.272,50.707 304.457,50.497 304.414 C 50.287 304.371,50.197 304.760,50.296 305.278 C 50.395 305.797,50.677 306.184,50.922 306.138 C 51.204 306.085,51.335 306.599,51.279 307.537 C 51.227 308.420,51.345 308.923,51.572 308.783 C 51.782 308.654,51.976 308.690,52.003 308.864 C 52.030 309.037,52.109 309.531,52.178 309.961 C 52.247 310.391,52.501 311.445,52.743 312.305 C 52.985 313.164,53.169 314.336,53.151 314.910 C 53.132 315.483,53.355 316.190,53.645 316.480 C 54.530 317.364,55.151 318.779,54.919 319.381 C 54.799 319.695,54.961 320.051,55.280 320.174 C 55.599 320.296,55.859 320.617,55.859 320.887 C 55.859 321.156,56.391 322.046,57.040 322.863 C 57.689 323.680,58.324 324.759,58.450 325.260 C 58.575 325.762,58.793 326.172,58.933 326.172 C 59.073 326.172,59.418 326.542,59.700 326.994 C 59.983 327.446,60.025 327.699,59.794 327.557 C 59.564 327.414,59.375 327.484,59.375 327.711 C 59.375 327.939,59.715 328.125,60.130 328.125 C 60.870 328.125,62.500 329.980,62.500 330.822 C 62.500 331.057,62.722 331.250,62.994 331.250 C 63.265 331.250,64.327 332.129,65.353 333.203 C 66.380 334.277,67.376 335.156,67.568 335.156 C 67.759 335.156,68.028 335.508,68.164 335.938 C 68.300 336.367,68.708 336.733,69.069 336.750 C 69.575 336.773,69.598 336.831,69.169 337.001 C 68.812 337.142,69.093 337.383,69.950 337.672 C 70.687 337.921,71.247 338.329,71.196 338.579 C 71.143 338.840,71.357 338.937,71.699 338.806 C 72.365 338.550,73.926 339.761,73.603 340.282 C 73.490 340.466,73.657 340.516,73.976 340.394 C 74.294 340.272,75.138 340.438,75.852 340.763 C 76.565 341.088,77.939 341.618,78.906 341.941 C 79.873 342.263,80.616 342.727,80.557 342.972 C 80.498 343.217,80.600 343.325,80.783 343.211 C 81.142 342.989,86.089 344.314,87.189 344.926 C 87.555 345.130,87.933 345.168,88.030 345.012 C 88.127 344.855,89.734 344.814,91.602 344.922 C 93.469 345.029,95.078 344.987,95.176 344.827 C 95.386 344.487,99.803 344.866,101.017 345.328 C 101.475 345.502,102.532 345.486,103.366 345.292 C 105.562 344.783,109.528 344.841,110.078 345.391 C 110.443 345.755,110.547 345.748,110.547 345.358 C 110.547 344.961,111.628 344.913,115.723 345.128 C 118.569 345.277,121.602 345.363,122.461 345.318 C 123.320 345.273,124.990 345.188,126.172 345.130 C 127.354 345.072,129.515 345.178,130.976 345.365 C 132.946 345.618,134.358 345.554,136.445 345.119 C 139.558 344.469,140.762 344.382,140.494 344.824 C 140.396 344.985,140.595 345.375,140.936 345.690 C 141.486 346.200,141.525 346.185,141.286 345.562 C 140.985 344.778,149.994 344.888,150.948 345.680 C 151.223 345.908,151.613 345.910,151.966 345.687 C 152.731 345.203,153.623 345.214,153.320 345.703 C 153.188 345.918,153.347 346.094,153.676 346.094 C 154.005 346.094,154.185 345.866,154.077 345.585 C 153.933 345.209,154.242 345.118,155.258 345.237 C 156.015 345.325,156.538 345.554,156.419 345.745 C 156.301 345.937,156.390 346.094,156.618 346.094 C 156.845 346.094,157.031 345.944,157.031 345.762 C 157.031 345.579,158.113 345.397,159.434 345.357 C 160.756 345.318,162.007 345.181,162.213 345.053 C 163.194 344.447,176.342 345.112,175.949 345.747 C 175.832 345.937,176.186 345.920,176.735 345.712 C 177.470 345.432,177.736 345.459,177.740 345.810 C 177.744 346.126,177.869 346.096,178.105 345.722 C 178.378 345.290,179.649 345.115,183.426 344.989 C 187.039 344.869,188.314 344.944,188.116 345.264 C 187.967 345.505,188.031 345.703,188.258 345.703 C 188.486 345.703,188.672 345.517,188.672 345.289 C 188.672 345.062,188.813 344.963,188.986 345.070 C 189.159 345.177,189.994 345.108,190.841 344.917 C 191.977 344.661,192.677 344.718,193.516 345.137 C 194.753 345.754,195.437 345.894,194.589 345.356 C 194.134 345.068,199.737 344.796,204.688 344.866 C 205.439 344.877,207.550 344.901,209.378 344.920 C 211.206 344.939,212.964 345.120,213.285 345.323 C 213.766 345.627,213.771 345.692,213.314 345.697 C 213.009 345.700,212.863 345.805,212.987 345.930 C 213.112 346.055,213.588 345.957,214.046 345.712 C 214.563 345.435,216.678 345.297,219.645 345.345 C 226.342 345.454,233.156 345.363,234.748 345.144 C 237.362 344.785,245.092 344.992,247.364 345.483 C 247.740 345.564,247.977 345.515,247.889 345.374 C 247.802 345.233,250.901 345.144,254.776 345.177 C 259.566 345.217,261.909 345.379,262.096 345.682 C 262.296 346.004,262.845 346.017,264.096 345.729 C 266.673 345.135,268.772 345.192,268.520 345.848 C 268.407 346.143,268.574 346.483,268.891 346.605 C 269.207 346.726,269.555 346.595,269.663 346.313 C 270.010 345.409,273.300 345.212,289.844 345.100 C 298.760 345.041,306.793 344.913,307.695 344.818 C 308.940 344.686,309.392 344.792,309.571 345.260 C 309.768 345.773,309.864 345.785,310.143 345.333 C 310.332 345.028,311.561 344.653,312.954 344.477 C 314.316 344.305,315.781 344.077,316.211 343.970 C 319.663 343.110,320.760 342.759,322.534 341.945 C 323.649 341.434,324.825 341.016,325.148 341.016 C 325.471 341.016,325.845 340.837,325.980 340.619 C 326.115 340.401,326.844 339.964,327.600 339.648 C 328.982 339.071,331.593 337.208,332.961 335.823 C 333.557 335.220,333.763 335.179,334.052 335.606 C 334.334 336.023,334.384 336.005,334.294 335.518 C 334.231 335.180,335.049 333.896,336.112 332.664 C 337.174 331.432,338.364 329.898,338.754 329.255 C 339.145 328.612,339.626 328.186,339.823 328.307 C 340.019 328.429,340.308 328.323,340.463 328.071 C 340.650 327.769,340.575 327.719,340.244 327.924 C 339.926 328.120,339.800 328.060,339.900 327.759 C 339.987 327.499,340.187 327.342,340.343 327.412 C 340.500 327.482,340.935 326.924,341.310 326.172 C 341.685 325.420,342.197 324.805,342.448 324.805 C 342.699 324.805,343.050 324.645,343.229 324.449 C 343.418 324.242,343.350 324.211,343.066 324.374 C 342.386 324.766,342.451 324.467,343.415 322.766 C 343.875 321.954,344.692 320.498,345.232 319.531 C 345.771 318.564,346.405 317.644,346.641 317.486 C 346.877 317.329,346.917 317.197,346.730 317.193 C 346.542 317.190,346.592 316.943,346.840 316.644 C 347.088 316.345,347.374 315.423,347.475 314.593 C 347.794 311.998,348.544 309.004,348.831 309.181 C 348.982 309.275,349.023 308.920,348.923 308.393 C 348.822 307.866,348.874 307.124,349.038 306.745 C 349.419 305.865,349.451 305.706,349.764 303.125 C 349.948 301.602,349.835 300.351,349.375 298.828 C 348.634 296.373,348.576 294.538,349.226 294.136 C 349.932 293.700,350.255 288.989,349.561 289.256 C 349.099 289.433,349.030 288.334,349.127 282.331 C 349.267 273.640,349.231 274.146,349.760 273.460 C 350.082 273.043,350.080 272.966,349.751 273.163 C 348.814 273.725,348.656 265.406,349.583 264.290 C 350.028 263.754,350.025 263.687,349.567 263.862 C 349.109 264.038,349.020 261.739,349.000 249.223 C 348.987 241.057,349.126 234.375,349.307 234.375 C 349.488 234.375,349.481 234.067,349.290 233.691 C 349.099 233.315,348.905 227.822,348.858 221.484 C 348.625 190.125,348.743 179.395,349.330 178.338 C 349.880 177.348,350.133 174.159,349.594 175.012 C 349.298 175.479,349.224 175.441,349.196 174.805 C 349.176 174.375,349.070 173.584,348.958 173.047 C 348.520 170.929,348.700 164.719,349.192 165.022 C 349.392 165.146,349.668 165.064,349.807 164.840 C 349.945 164.617,349.847 164.482,349.590 164.541 C 349.332 164.600,349.032 164.404,348.924 164.106 C 348.787 163.729,348.891 163.662,349.266 163.888 C 349.693 164.145,349.711 164.096,349.351 163.649 C 348.659 162.789,348.761 153.118,349.497 149.916 C 350.076 147.393,350.046 144.088,349.428 142.383 C 349.195 141.739,349.224 141.705,349.594 142.188 C 349.972 142.682,350.020 142.652,349.900 141.992 C 349.822 141.563,349.549 141.255,349.293 141.309 C 348.987 141.373,348.820 140.770,348.805 139.551 C 348.792 138.530,348.732 133.916,348.671 129.297 C 348.589 123.086,348.693 120.565,349.070 119.617 C 349.638 118.189,349.884 115.604,349.509 114.998 C 349.375 114.781,349.165 113.823,349.042 112.868 C 348.701 110.219,348.613 109.810,348.319 109.517 C 347.891 109.089,348.002 106.324,348.458 106.042 C 348.863 105.792,348.599 101.004,348.138 100.233 C 347.761 99.604,347.654 97.969,347.557 91.388 C 347.475 85.857,347.357 84.766,346.737 83.821 C 346.339 83.213,346.190 82.826,346.407 82.960 C 346.647 83.108,346.718 82.884,346.589 82.389 C 346.423 81.754,346.295 81.689,346.006 82.096 C 345.740 82.470,345.688 82.375,345.823 81.757 C 345.926 81.284,345.840 80.840,345.632 80.771 C 345.424 80.701,344.940 79.299,344.558 77.656 C 344.176 76.012,343.582 74.385,343.237 74.041 C 342.893 73.697,342.704 73.174,342.817 72.880 C 342.930 72.585,342.836 72.230,342.609 72.090 C 342.354 71.932,342.277 72.104,342.406 72.538 C 342.589 73.154,342.552 73.147,342.109 72.486 C 341.830 72.070,341.162 71.302,340.625 70.779 C 340.088 70.256,339.692 69.673,339.746 69.484 C 339.800 69.295,339.592 69.141,339.284 69.141 C 338.977 69.141,338.368 68.639,337.931 68.026 C 336.577 66.124,333.469 62.891,332.994 62.891 C 332.746 62.891,332.231 62.545,331.849 62.123 C 331.467 61.701,330.388 61.064,329.452 60.706 C 328.516 60.349,327.817 59.947,327.899 59.813 C 327.981 59.680,327.509 59.550,326.850 59.525 C 326.192 59.501,325.462 59.237,325.229 58.940 C 324.995 58.642,324.453 58.337,324.023 58.262 C 323.594 58.187,323.113 57.923,322.955 57.676 C 322.765 57.378,322.666 57.369,322.662 57.649 C 322.658 57.940,321.558 57.885,319.148 57.473 C 316.930 57.094,315.816 56.749,316.120 56.536 C 316.406 56.336,316.204 56.314,315.625 56.481 C 315.088 56.636,314.473 56.747,314.258 56.728 C 313.931 56.698,308.964 56.414,306.524 56.287 C 306.138 56.267,305.362 55.767,304.801 55.176 C 304.123 54.463,303.865 54.337,304.033 54.803 C 304.276 55.478,297.241 55.525,290.625 54.892 C 289.873 54.821,289.082 54.905,288.867 55.080 C 288.222 55.607,276.911 55.471,277.207 54.940 C 277.380 54.632,277.323 54.616,277.026 54.887 C 276.748 55.140,274.948 55.179,271.988 54.996 C 269.455 54.839,267.163 54.788,266.895 54.882 C 266.168 55.137,266.304 54.270,267.090 53.635 C 267.707 53.136,267.688 53.123,266.895 53.508 C 266.411 53.742,266.016 54.147,266.016 54.408 C 266.015 55.100,263.327 55.000,262.879 54.292 C 262.549 53.769,262.333 54.019,262.454 54.785 C 262.479 54.946,261.841 55.075,261.035 55.072 C 259.946 55.068,259.720 54.969,260.156 54.688 C 260.663 54.360,260.654 54.308,260.091 54.303 C 259.733 54.300,259.366 54.165,259.276 54.004 C 259.186 53.843,259.156 53.904,259.209 54.140 C 259.522 55.539,241.814 55.953,240.933 54.568 C 240.712 54.220,240.635 54.231,240.631 54.613 C 240.628 54.908,240.429 55.003,240.160 54.837 C 239.904 54.679,238.940 54.588,238.019 54.636 C 237.097 54.684,235.998 54.539,235.578 54.313 C 235.157 54.088,234.719 54.056,234.605 54.241 C 234.258 54.802,228.904 54.780,228.206 54.214 C 227.864 53.937,227.689 53.887,227.818 54.102 C 227.967 54.351,226.622 54.495,224.084 54.501 C 221.902 54.505,219.265 54.663,218.223 54.852 C 216.742 55.120,216.254 55.076,215.983 54.648 C 215.753 54.285,215.635 54.260,215.631 54.573 C 215.627 54.901,214.678 55.042,212.492 55.037 C 210.427 55.032,209.444 54.892,209.609 54.625 C 209.780 54.348,209.617 54.349,209.094 54.629 C 208.553 54.918,207.135 54.895,204.262 54.550 C 202.025 54.281,200.450 53.970,200.761 53.860 C 201.217 53.698,201.194 53.608,200.644 53.396 C 200.263 53.250,200.058 53.293,200.181 53.493 C 200.596 54.164,199.653 54.320,194.325 54.456 C 189.198 54.587,188.990 54.562,188.666 53.761 C 188.332 52.932,188.331 52.933,188.306 53.809 M271.182 63.512 C 271.046 64.226,270.896 64.374,270.673 64.014 C 270.499 63.732,270.543 63.278,270.773 63.001 C 271.355 62.301,271.403 62.361,271.182 63.512 M120.176 70.149 C 125.148 70.301,127.625 70.522,127.822 70.832 C 128.039 71.172,128.115 71.164,128.119 70.801 C 128.122 70.520,128.582 70.329,129.199 70.351 L 130.273 70.390 129.297 70.703 C 128.453 70.973,128.426 71.028,129.102 71.105 C 131.597 71.391,133.180 71.372,132.986 71.059 C 132.865 70.863,133.480 70.703,134.352 70.703 C 135.324 70.703,135.900 70.873,135.840 71.143 C 135.786 71.384,135.986 71.671,136.285 71.779 C 136.613 71.898,136.721 71.805,136.559 71.542 C 136.365 71.229,138.460 71.134,144.122 71.199 C 148.430 71.248,152.000 71.149,152.057 70.977 C 152.114 70.806,153.213 70.558,154.498 70.426 C 156.579 70.212,156.781 70.252,156.336 70.791 C 155.904 71.315,156.023 71.418,157.215 71.557 C 158.813 71.744,158.946 71.615,157.715 71.071 C 156.973 70.743,157.041 70.714,158.154 70.888 C 158.879 71.001,160.110 71.106,160.889 71.121 C 162.036 71.143,162.156 71.212,161.523 71.484 C 160.970 71.722,160.919 71.828,161.348 71.848 C 161.681 71.863,162.152 71.676,162.396 71.433 C 162.655 71.173,163.132 71.116,163.548 71.296 C 164.674 71.781,165.692 71.909,165.461 71.535 C 165.229 71.160,171.331 70.670,175.471 70.732 C 176.911 70.753,178.266 70.662,178.482 70.529 C 178.777 70.346,192.445 70.221,196.484 70.364 C 196.807 70.375,199.004 70.261,201.367 70.110 C 204.130 69.933,206.229 69.988,207.248 70.264 C 208.270 70.540,209.273 70.566,210.075 70.336 C 210.832 70.119,211.405 70.121,211.541 70.341 C 211.664 70.540,211.974 70.700,212.230 70.697 C 212.573 70.693,212.578 70.615,212.249 70.404 C 212.004 70.246,214.861 70.072,218.597 70.016 C 224.842 69.924,225.394 69.971,225.436 70.602 C 225.470 71.116,225.521 71.142,225.641 70.703 C 225.804 70.105,230.856 69.791,230.858 70.379 C 230.859 70.522,231.513 70.460,232.312 70.239 C 233.918 69.796,242.271 70.052,247.656 70.710 C 251.216 71.145,254.103 71.195,259.375 70.914 C 261.201 70.817,262.393 70.861,262.024 71.013 C 261.655 71.165,263.311 71.249,265.705 71.200 C 268.685 71.138,270.244 71.262,270.650 71.590 C 271.121 71.971,271.183 71.970,270.952 71.585 C 270.752 71.252,270.944 71.105,271.561 71.120 C 279.002 71.291,286.523 71.029,288.503 70.529 C 291.174 69.856,295.025 69.822,294.634 70.476 C 294.468 70.754,294.574 70.748,294.945 70.459 C 295.580 69.962,300.000 70.207,300.000 70.738 C 300.000 70.918,300.352 71.254,300.781 71.484 C 301.252 71.736,301.563 71.753,301.563 71.527 C 301.563 71.320,301.255 71.057,300.879 70.942 C 300.503 70.827,300.898 70.830,301.758 70.949 C 302.617 71.067,303.584 71.368,303.906 71.617 C 304.427 72.020,304.427 71.988,303.906 71.325 C 303.345 70.612,303.385 70.593,304.882 70.873 C 305.741 71.034,306.532 71.281,306.640 71.423 C 306.748 71.564,307.883 71.710,309.163 71.747 C 310.771 71.794,311.629 72.005,311.940 72.431 C 312.188 72.770,312.572 73.047,312.794 73.047 C 313.015 73.047,313.332 73.530,313.497 74.121 C 313.727 74.947,313.835 75.033,313.961 74.495 C 314.083 73.981,314.350 73.863,314.973 74.051 C 316.890 74.628,318.361 75.518,318.390 76.119 C 318.409 76.515,318.495 76.574,318.616 76.275 C 318.821 75.770,321.018 76.643,321.529 77.434 C 321.661 77.638,322.189 78.023,322.701 78.290 C 323.214 78.557,323.574 79.024,323.503 79.329 C 323.431 79.634,323.497 79.759,323.648 79.607 C 324.567 78.688,329.540 85.062,329.383 86.958 C 329.344 87.428,329.572 87.913,329.890 88.035 C 330.208 88.157,330.466 88.570,330.463 88.953 C 330.458 89.539,330.399 89.557,330.089 89.067 C 329.805 88.618,329.738 88.698,329.792 89.420 C 329.832 89.945,330.166 90.433,330.556 90.535 C 331.133 90.686,331.250 91.154,331.250 93.310 C 331.250 94.736,331.424 96.511,331.637 97.252 C 331.892 98.143,331.892 98.733,331.637 98.988 C 331.051 99.574,331.174 101.404,331.836 101.953 C 332.158 102.221,332.422 102.775,332.422 103.185 C 332.422 103.595,332.698 104.037,333.035 104.166 C 333.522 104.353,333.606 104.814,333.443 106.400 C 333.331 107.499,333.230 108.804,333.221 109.300 C 333.211 109.799,333.028 110.094,332.813 109.961 C 332.598 109.828,332.422 110.004,332.422 110.352 C 332.422 110.699,332.579 110.886,332.772 110.767 C 332.964 110.649,333.222 110.814,333.345 111.135 C 333.468 111.456,333.355 111.721,333.093 111.725 C 332.720 111.729,332.720 111.796,333.095 112.034 C 333.895 112.542,334.126 118.553,333.374 119.305 C 333.034 119.644,332.945 119.922,333.175 119.922 C 333.405 119.922,333.594 120.186,333.594 120.508 C 333.594 120.830,333.418 121.094,333.203 121.094 C 332.988 121.094,332.813 121.280,332.813 121.507 C 332.812 121.735,333.018 121.794,333.270 121.639 C 333.581 121.446,333.643 121.573,333.465 122.038 C 333.321 122.413,333.203 123.068,333.203 123.493 C 333.203 123.917,333.027 124.156,332.813 124.023 C 332.598 123.891,332.422 123.968,332.422 124.196 C 332.422 124.423,332.686 124.609,333.008 124.609 C 333.373 124.609,333.614 125.013,333.648 125.684 C 333.678 126.274,333.741 127.461,333.788 128.320 C 333.835 129.180,333.701 130.322,333.490 130.859 C 333.131 131.776,332.954 138.553,333.281 138.880 C 333.364 138.963,333.313 140.312,333.168 141.879 C 333.023 143.445,332.953 145.850,333.013 147.222 C 333.080 148.770,332.991 149.512,332.778 149.176 C 332.499 148.735,332.433 148.754,332.428 149.275 C 332.425 149.628,332.645 150.002,332.919 150.107 C 333.445 150.309,333.788 152.343,333.296 152.346 C 333.138 152.346,332.974 153.000,332.932 153.798 C 332.878 154.822,332.963 155.080,333.219 154.675 C 333.494 154.241,333.583 154.362,333.588 155.176 C 333.591 155.767,333.462 156.229,333.301 156.204 C 332.308 156.047,331.641 156.341,331.647 156.934 C 331.652 157.518,331.708 157.532,332.031 157.031 C 332.306 156.605,332.412 156.585,332.416 156.957 C 332.419 157.238,332.616 157.348,332.854 157.201 C 333.154 157.016,333.192 157.219,332.978 157.861 C 332.809 158.372,332.548 159.492,332.399 160.352 C 332.142 161.841,332.127 161.855,332.080 160.645 C 332.053 159.946,331.869 159.375,331.671 159.375 C 331.472 159.375,331.340 160.737,331.378 162.402 C 331.431 164.803,331.567 165.430,332.031 165.430 C 332.408 165.430,332.639 165.848,332.679 166.602 C 332.721 167.389,332.680 167.485,332.554 166.895 C 332.355 165.957,331.851 165.749,331.430 166.431 C 331.289 166.659,331.431 167.143,331.747 167.505 C 332.667 168.563,332.744 169.271,332.055 170.313 C 331.371 171.346,331.494 173.872,332.227 173.843 C 332.441 173.835,332.650 174.312,332.690 174.902 C 332.730 175.493,332.874 176.416,333.010 176.953 C 333.219 177.779,333.189 177.824,332.820 177.246 C 332.580 176.870,332.181 176.563,331.934 176.562 C 331.603 176.562,331.607 176.685,331.948 177.026 C 332.305 177.383,332.259 177.658,331.744 178.227 C 331.377 178.632,331.247 178.930,331.456 178.889 C 332.494 178.684,333.024 178.908,332.422 179.297 C 332.031 179.549,331.999 179.678,332.324 179.682 C 332.593 179.685,332.813 180.127,332.813 180.664 C 332.813 181.333,332.597 181.641,332.129 181.641 C 331.181 181.643,331.095 188.851,332.034 189.581 C 332.358 189.833,332.581 190.479,332.529 191.016 C 332.445 191.891,332.472 191.912,332.788 191.211 C 333.039 190.655,333.132 191.162,333.110 192.969 C 333.092 194.505,332.983 195.124,332.832 194.535 C 332.661 193.866,332.489 193.716,332.281 194.053 C 332.114 194.323,331.770 194.423,331.516 194.275 C 331.262 194.127,331.362 194.358,331.738 194.788 C 332.114 195.218,332.422 195.786,332.422 196.050 C 332.422 196.314,332.598 196.422,332.813 196.289 C 333.208 196.044,333.274 196.587,333.286 200.195 C 333.305 205.999,332.808 208.232,331.804 206.858 C 331.357 206.247,331.250 206.220,331.250 206.719 C 331.250 207.060,331.533 207.447,331.880 207.580 C 332.390 207.776,332.418 207.932,332.027 208.403 C 331.762 208.723,331.713 208.984,331.919 208.984 C 332.125 208.984,332.322 209.697,332.356 210.569 C 332.394 211.551,332.268 212.060,332.023 211.909 C 331.806 211.775,331.746 211.474,331.890 211.241 C 332.034 211.008,331.986 210.919,331.783 211.045 C 331.580 211.171,331.370 211.915,331.317 212.700 C 331.245 213.775,331.345 214.052,331.724 213.824 C 332.129 213.581,332.128 213.643,331.720 214.147 C 331.442 214.491,331.295 215.272,331.395 215.882 C 331.654 217.466,331.684 217.491,332.031 216.406 C 332.306 215.547,332.349 215.613,332.383 216.949 C 332.409 217.975,332.200 218.635,331.738 218.980 C 331.116 219.446,331.134 219.472,331.934 219.271 C 332.902 219.027,333.060 219.511,332.408 220.729 C 332.123 221.262,332.130 221.484,332.431 221.484 C 332.666 221.484,332.750 221.660,332.617 221.875 C 332.484 222.090,332.533 222.266,332.724 222.266 C 332.916 222.266,333.073 222.529,333.073 222.852 C 333.073 223.174,332.926 223.438,332.747 223.438 C 332.568 223.438,332.422 223.789,332.422 224.219 C 332.422 224.648,332.598 225.000,332.813 225.000 C 333.027 225.000,333.203 225.801,333.203 226.781 C 333.203 227.760,333.046 228.464,332.853 228.346 C 332.661 228.227,332.399 228.401,332.272 228.733 C 332.139 229.079,332.205 229.235,332.426 229.099 C 332.639 228.968,332.812 229.216,332.813 229.651 C 332.813 230.086,332.483 230.618,332.080 230.833 C 331.660 231.058,331.348 231.647,331.348 232.214 C 331.348 233.541,331.938 233.478,332.140 232.129 C 332.228 231.538,332.290 231.870,332.278 232.866 C 332.265 233.949,332.093 234.615,331.851 234.522 C 331.376 234.340,331.361 236.341,331.831 237.102 C 332.045 237.448,332.001 237.528,331.701 237.342 C 331.431 237.175,331.250 237.317,331.250 237.695 C 331.250 238.043,331.426 238.219,331.641 238.086 C 331.855 237.953,332.031 238.129,332.031 238.477 C 332.031 238.863,331.852 238.998,331.570 238.823 C 331.316 238.667,331.596 239.178,332.192 239.960 C 332.789 240.741,333.200 241.606,333.106 241.882 C 333.013 242.157,333.099 242.978,333.298 243.706 C 333.570 244.699,333.530 245.112,333.139 245.361 C 332.749 245.608,332.740 245.693,333.105 245.697 C 333.374 245.700,333.594 245.889,333.594 246.117 C 333.594 246.344,333.418 246.422,333.203 246.289 C 332.988 246.156,332.813 246.332,332.813 246.680 C 332.813 247.051,332.995 247.199,333.255 247.038 C 333.666 246.784,333.581 248.959,333.032 252.734 C 332.954 253.271,332.873 254.125,332.851 254.632 C 332.822 255.330,332.652 255.491,332.151 255.298 C 331.571 255.076,331.578 255.143,332.211 255.843 C 332.917 256.622,332.915 256.641,332.104 256.641 C 331.239 256.641,331.298 257.678,332.198 258.295 C 332.480 258.488,332.457 258.584,332.129 258.588 C 331.804 258.592,331.641 259.248,331.641 260.547 C 331.641 261.714,331.815 262.500,332.073 262.500 C 332.311 262.500,332.404 262.236,332.281 261.914 C 332.157 261.592,332.226 261.328,332.434 261.328 C 332.642 261.328,332.820 261.460,332.830 261.621 C 332.839 261.782,332.991 262.663,333.169 263.579 C 333.437 264.967,333.402 265.171,332.956 264.801 C 332.557 264.469,332.422 264.471,332.422 264.808 C 332.422 265.056,332.654 265.348,332.937 265.457 C 333.522 265.681,332.941 269.531,332.322 269.531 C 332.137 269.531,332.076 269.385,332.186 269.206 C 332.297 269.027,332.176 268.880,331.916 268.881 C 331.582 268.881,331.445 269.943,331.445 272.534 C 331.445 275.307,331.550 276.044,331.879 275.594 C 332.565 274.655,332.894 274.904,332.255 275.879 C 331.396 277.192,331.007 280.077,331.688 280.084 C 332.113 280.089,332.103 280.169,331.641 280.463 C 331.158 280.770,331.141 280.974,331.543 281.623 C 332.129 282.569,332.184 284.234,331.641 284.570 C 331.086 284.913,331.156 285.397,331.861 286.102 C 332.482 286.723,332.278 287.699,331.614 287.288 C 331.414 287.164,331.250 287.343,331.250 287.686 C 331.250 288.200,331.395 288.231,332.078 287.865 C 332.661 287.554,332.828 287.550,332.641 287.852 C 332.495 288.088,332.562 288.281,332.789 288.281 C 333.017 288.281,333.200 288.765,333.197 289.355 C 333.192 290.193,333.108 290.300,332.813 289.844 C 332.548 289.434,332.432 289.408,332.428 289.758 C 332.425 290.034,332.685 290.360,333.006 290.483 C 333.327 290.606,333.476 290.891,333.337 291.116 C 333.197 291.341,333.045 292.069,332.999 292.735 C 332.301 302.656,332.231 303.108,330.644 308.008 C 329.612 311.192,328.819 312.883,328.461 312.662 C 328.276 312.547,328.125 312.820,328.125 313.268 C 328.125 314.261,325.610 318.008,324.563 318.575 C 324.145 318.801,323.941 319.147,324.109 319.343 C 324.277 319.540,324.150 319.511,323.828 319.279 C 322.821 318.553,321.990 318.785,322.173 319.741 C 322.444 321.161,314.826 326.539,314.319 325.286 C 314.205 325.003,314.111 325.083,314.093 325.478 C 314.059 326.232,311.911 327.509,311.307 327.135 C 311.093 327.003,310.966 327.124,311.025 327.403 C 311.086 327.688,310.704 327.972,310.156 328.049 C 309.619 328.125,307.681 328.604,305.850 329.114 C 304.019 329.623,301.822 330.128,300.968 330.235 C 298.809 330.506,277.769 330.536,277.337 330.269 C 277.143 330.149,275.000 329.960,272.574 329.847 C 270.149 329.735,267.337 329.587,266.326 329.518 C 265.315 329.449,262.283 329.266,259.589 329.110 C 256.861 328.953,254.786 328.672,254.907 328.476 C 255.027 328.283,254.674 328.125,254.125 328.125 C 253.575 328.125,253.122 328.345,253.119 328.613 C 253.115 328.916,253.004 328.953,252.826 328.711 C 252.657 328.481,250.063 328.316,246.510 328.309 C 243.193 328.302,240.908 328.417,241.431 328.563 C 242.045 328.734,241.411 328.858,239.648 328.912 C 236.266 329.016,235.388 328.930,235.221 328.478 C 235.150 328.284,234.832 328.125,234.515 328.125 C 234.198 328.125,234.047 328.301,234.180 328.516 C 234.312 328.730,234.157 328.906,233.835 328.906 C 233.513 328.906,233.152 328.749,233.034 328.557 C 232.783 328.152,227.977 328.252,226.611 328.691 C 226.038 328.876,225.773 328.845,225.918 328.611 C 226.054 328.390,225.507 328.232,224.609 328.232 C 223.761 328.232,223.149 328.364,223.249 328.527 C 223.600 329.094,211.422 329.270,211.016 328.703 C 210.701 328.262,208.526 328.090,208.796 328.527 C 209.083 328.990,207.023 329.240,205.803 328.890 C 205.065 328.678,204.688 328.714,204.688 328.994 C 204.688 329.227,204.366 329.127,203.973 328.771 C 203.580 328.416,203.097 328.128,202.899 328.131 C 202.701 328.134,202.803 328.307,203.125 328.516 C 203.582 328.811,203.474 328.896,202.637 328.900 C 202.038 328.904,201.560 328.690,201.557 328.418 C 201.552 328.062,201.473 328.051,201.264 328.380 C 201.106 328.628,199.922 328.920,198.633 329.030 C 197.344 329.141,195.524 329.359,194.589 329.515 C 193.319 329.728,192.802 329.662,192.544 329.256 C 192.355 328.956,192.197 328.887,192.193 329.102 C 192.188 329.455,188.241 329.683,179.492 329.835 C 177.988 329.861,175.088 329.753,173.047 329.595 C 171.006 329.437,167.534 329.264,165.332 329.211 C 163.130 329.158,161.328 328.980,161.328 328.815 C 161.328 328.650,161.142 328.516,160.914 328.516 C 160.687 328.516,160.609 328.691,160.742 328.906 C 160.894 329.151,160.138 329.280,158.714 329.251 C 156.855 329.213,156.657 329.151,157.617 328.906 C 158.728 328.624,158.737 328.606,157.793 328.562 C 157.245 328.536,156.630 328.679,156.426 328.879 C 156.222 329.080,154.824 329.283,153.320 329.332 C 151.816 329.381,150.068 329.567,149.434 329.745 C 148.638 329.968,148.187 329.919,147.975 329.585 C 147.732 329.202,147.667 329.203,147.662 329.590 C 147.658 329.907,147.041 330.078,145.898 330.078 C 144.769 330.078,144.130 329.904,144.110 329.590 C 144.086 329.216,144.034 329.213,143.887 329.576 C 143.747 329.921,142.767 329.992,140.304 329.838 C 135.024 329.506,112.023 329.524,110.986 329.861 C 110.346 330.069,110.141 330.028,110.326 329.729 C 110.479 329.481,110.324 329.297,109.961 329.297 C 109.613 329.297,109.438 329.473,109.570 329.688 C 109.716 329.923,109.145 330.090,108.129 330.108 C 107.203 330.125,105.830 330.185,105.078 330.242 C 104.326 330.299,102.305 330.113,100.586 329.829 C 98.867 329.544,96.791 329.308,95.973 329.304 C 95.155 329.300,94.567 329.165,94.666 329.004 C 94.766 328.843,94.029 328.687,93.029 328.658 C 89.306 328.551,83.834 326.569,81.655 324.539 C 81.218 324.131,80.859 323.904,80.859 324.035 C 80.859 325.282,73.613 318.075,72.573 315.794 C 72.335 315.271,71.998 314.844,71.825 314.844 C 71.651 314.844,71.610 314.580,71.734 314.258 C 71.857 313.936,71.805 313.672,71.618 313.672 C 70.422 313.672,67.528 304.394,67.353 300.000 C 67.298 298.604,67.130 297.151,66.981 296.772 C 66.832 296.394,66.895 295.860,67.121 295.587 C 67.407 295.244,67.409 294.915,67.128 294.518 C 66.798 294.052,66.765 294.076,66.951 294.649 C 67.096 295.097,67.025 295.258,66.756 295.092 C 66.495 294.931,66.426 294.210,66.576 293.216 C 66.709 292.328,66.897 289.688,66.992 287.348 C 67.087 285.009,67.233 283.027,67.317 282.943 C 67.401 282.860,67.326 282.049,67.150 281.142 C 66.611 278.353,66.721 276.176,67.416 275.910 C 67.756 275.779,67.865 275.565,67.657 275.434 C 67.450 275.303,67.168 274.141,67.031 272.852 C 66.893 271.563,66.695 269.980,66.590 269.336 C 66.484 268.691,66.597 267.165,66.841 265.944 C 67.200 264.141,67.156 262.814,66.608 258.889 C 66.082 255.123,66.017 253.456,66.315 251.344 C 66.526 249.853,66.626 248.018,66.538 247.266 C 66.450 246.514,66.247 244.815,66.088 243.491 C 65.928 242.167,65.938 240.585,66.109 239.976 C 66.516 238.526,66.405 231.710,65.954 230.513 C 65.554 229.448,65.470 220.980,65.822 217.188 C 66.077 214.447,66.083 214.245,66.096 208.398 C 66.101 206.250,66.117 203.350,66.131 201.953 C 66.145 200.557,66.105 198.447,66.041 197.266 C 65.929 195.184,66.048 194.178,66.811 190.761 C 67.072 189.594,67.022 188.637,66.633 187.343 C 65.966 185.129,66.405 180.549,67.349 179.859 C 67.683 179.615,67.837 179.295,67.691 179.149 C 67.399 178.857,67.230 178.146,67.031 176.367 C 66.959 175.723,66.732 174.404,66.527 173.438 C 66.310 172.416,66.284 170.371,66.465 168.555 C 66.647 166.729,66.618 164.547,66.396 163.307 C 65.940 160.764,65.912 159.655,66.309 159.901 C 66.470 160.001,66.608 159.440,66.615 158.655 C 66.659 154.052,66.870 151.799,67.188 152.539 C 67.372 152.969,67.536 153.098,67.551 152.827 C 67.566 152.555,67.407 152.028,67.198 151.655 C 66.550 150.500,66.062 145.978,66.496 145.155 C 66.730 144.712,66.830 141.943,66.745 138.319 C 66.634 133.593,66.711 132.248,67.090 132.324 C 67.358 132.378,67.578 132.148,67.578 131.813 C 67.578 131.478,67.393 131.318,67.168 131.458 C 66.902 131.622,66.775 131.112,66.808 130.016 C 66.836 129.083,66.747 126.826,66.611 125.000 C 66.475 123.174,66.344 120.977,66.321 120.117 C 66.268 118.119,67.156 114.388,67.617 114.672 C 68.082 114.960,68.070 114.321,67.601 113.848 C 67.224 113.466,67.042 109.461,67.292 107.031 C 67.370 106.279,67.293 105.147,67.121 104.515 C 66.594 102.577,66.701 96.411,67.288 94.922 C 69.690 88.825,71.821 85.052,73.769 83.450 C 74.274 83.035,75.316 82.015,76.085 81.184 C 77.132 80.052,77.573 79.797,77.841 80.168 C 78.095 80.521,78.136 80.469,77.982 79.989 C 77.832 79.521,78.210 78.985,79.215 78.244 C 80.012 77.656,81.330 76.592,82.145 75.879 C 82.959 75.166,83.776 74.676,83.959 74.789 C 84.143 74.903,84.379 74.772,84.484 74.499 C 84.879 73.469,89.032 71.759,91.235 71.719 C 92.403 71.697,93.359 71.548,93.359 71.387 C 93.359 71.226,93.931 71.106,94.629 71.121 C 95.693 71.144,95.772 71.203,95.117 71.484 C 94.372 71.805,94.376 71.821,95.215 71.848 C 95.698 71.863,96.094 71.718,96.094 71.526 C 96.094 71.330,96.788 71.353,97.680 71.579 C 98.753 71.852,99.542 71.854,100.121 71.586 C 102.351 70.556,103.125 70.337,103.125 70.739 C 103.125 70.965,103.385 70.890,103.702 70.572 C 104.126 70.149,105.288 69.984,108.067 69.955 C 110.151 69.933,111.937 69.834,112.037 69.734 C 112.137 69.634,112.354 69.636,112.520 69.739 C 112.685 69.841,116.131 70.026,120.176 70.149 M132.166 70.605 C 132.266 70.767,131.925 70.898,131.408 70.898 C 130.891 70.898,130.469 70.767,130.469 70.605 C 130.469 70.444,130.810 70.313,131.227 70.313 C 131.644 70.313,132.067 70.444,132.166 70.605 M124.493 71.224 C 124.383 71.510,124.532 71.745,124.825 71.745 C 125.117 71.745,125.273 71.610,125.172 71.446 C 125.070 71.281,125.473 71.073,126.068 70.984 C 127.115 70.825,127.111 70.818,125.921 70.762 C 125.212 70.728,124.609 70.923,124.493 71.224 M193.498 70.971 C 193.887 71.361,195.313 71.411,195.076 71.027 C 194.966 70.849,194.505 70.703,194.052 70.703 C 193.600 70.703,193.350 70.824,193.498 70.971 M74.753 72.382 C 74.889 72.246,75.000 72.340,75.000 72.591 C 75.000 73.264,74.004 73.144,73.388 72.397 C 72.905 71.811,72.933 71.791,73.679 72.188 C 74.134 72.430,74.618 72.518,74.753 72.382 M328.125 73.438 C 328.125 74.224,327.481 74.451,326.758 73.920 C 325.969 73.341,326.181 72.656,327.148 72.656 C 327.865 72.656,328.125 72.865,328.125 73.438 M119.231 94.148 C 118.099 94.313,116.918 94.660,116.606 94.919 C 116.274 95.194,115.238 95.333,114.111 95.253 C 113.050 95.178,112.265 95.249,112.364 95.410 C 112.464 95.571,112.195 95.703,111.766 95.703 C 111.337 95.703,110.417 96.222,109.723 96.857 C 109.028 97.491,108.287 97.903,108.076 97.773 C 107.865 97.642,107.805 97.719,107.943 97.942 C 108.284 98.494,107.182 99.358,106.597 98.997 C 106.289 98.806,106.232 98.873,106.429 99.193 C 106.774 99.751,102.491 103.906,101.570 103.906 C 101.365 103.906,101.283 104.132,101.389 104.408 C 101.495 104.684,101.226 105.292,100.791 105.759 C 100.356 106.226,100.000 106.881,100.000 107.216 C 100.000 107.550,99.842 108.128,99.649 108.501 C 99.455 108.874,98.976 110.267,98.582 111.597 C 98.157 113.033,97.748 113.825,97.572 113.550 C 97.375 113.239,97.276 113.312,97.272 113.770 C 97.268 114.146,97.412 114.453,97.591 114.453 C 97.770 114.453,97.917 114.707,97.917 115.017 C 97.917 115.328,97.748 115.547,97.542 115.506 C 97.336 115.464,97.087 115.649,96.989 115.918 C 96.890 116.187,97.000 116.406,97.233 116.406 C 97.466 116.406,97.656 116.944,97.656 117.601 C 97.656 118.298,97.494 118.696,97.266 118.555 C 97.051 118.422,96.875 118.489,96.875 118.704 C 96.875 118.919,97.063 119.211,97.292 119.352 C 97.522 119.494,97.627 120.219,97.527 120.964 C 97.427 121.708,97.449 122.213,97.576 122.086 C 97.790 121.872,98.830 125.226,98.964 126.563 C 98.997 126.885,99.322 127.480,99.688 127.885 C 100.452 128.732,101.692 131.223,101.693 131.912 C 101.693 132.169,101.883 132.344,102.116 132.303 C 102.349 132.261,102.518 132.625,102.492 133.111 C 102.452 133.866,102.535 133.923,103.053 133.502 C 103.572 133.081,103.622 133.115,103.389 133.735 C 103.183 134.283,103.262 134.406,103.707 134.235 C 104.688 133.859,107.166 136.281,106.554 137.018 C 106.131 137.528,106.183 137.574,106.917 137.341 C 108.153 136.949,110.207 138.079,109.874 138.968 C 109.661 139.538,109.716 139.570,110.217 139.163 C 110.699 138.772,111.411 138.838,113.903 139.504 C 115.602 139.959,117.344 140.397,117.773 140.478 C 118.203 140.559,119.258 140.761,120.117 140.927 C 121.061 141.110,122.376 141.051,123.438 140.777 C 124.404 140.528,125.898 140.388,126.758 140.467 C 127.865 140.567,128.150 140.499,127.734 140.232 C 127.327 139.970,127.297 139.839,127.637 139.801 C 128.608 139.692,130.592 138.927,132.092 138.083 C 132.662 137.762,133.321 137.500,133.557 137.500 C 133.793 137.500,134.615 136.804,135.383 135.954 C 136.151 135.104,137.098 134.307,137.488 134.183 C 137.878 134.060,138.292 133.595,138.408 133.151 C 138.542 132.638,138.794 132.451,139.097 132.638 C 139.396 132.823,139.473 132.771,139.305 132.498 C 139.157 132.258,139.569 131.006,140.221 129.714 C 140.873 128.423,141.406 127.020,141.406 126.597 C 141.406 126.174,141.601 125.707,141.839 125.560 C 142.154 125.365,142.152 125.220,141.834 125.023 C 141.535 124.838,141.511 124.390,141.758 123.607 C 141.956 122.977,142.348 121.626,142.629 120.605 C 142.910 119.585,143.241 118.750,143.365 118.750 C 143.773 118.750,143.026 112.714,142.601 112.573 C 142.374 112.497,142.188 112.201,142.188 111.914 C 142.188 111.628,141.968 111.316,141.699 111.222 C 141.348 111.100,141.420 110.816,141.955 110.213 C 142.364 109.752,142.511 109.375,142.281 109.375 C 142.050 109.375,141.773 109.595,141.665 109.863 C 141.557 110.132,141.432 109.868,141.388 109.277 C 141.287 107.912,141.303 107.964,140.314 105.761 C 138.448 101.605,136.244 99.509,132.410 98.242 C 128.614 96.988,126.885 96.129,127.184 95.646 C 127.348 95.380,127.295 95.297,127.055 95.445 C 126.411 95.843,122.509 94.978,122.027 94.332 C 121.789 94.012,121.525 93.772,121.441 93.799 C 121.358 93.826,120.363 93.983,119.231 94.148 M331.417 106.686 C 331.215 107.013,331.319 107.088,331.747 106.924 C 332.090 106.792,332.457 106.855,332.563 107.063 C 332.668 107.271,332.712 107.228,332.661 106.968 C 332.529 106.294,331.766 106.121,331.417 106.686 M112.280 140.070 C 112.620 140.410,113.116 140.600,113.382 140.492 C 113.751 140.343,113.745 140.289,113.356 140.265 C 113.075 140.248,112.953 140.059,113.086 139.844 C 113.219 139.629,112.953 139.453,112.495 139.453 C 111.737 139.453,111.718 139.508,112.280 140.070 M243.727 153.706 C 243.336 154.097,242.170 154.321,240.170 154.390 C 238.533 154.446,237.262 154.606,237.345 154.744 C 237.428 154.883,237.224 155.101,236.892 155.228 C 236.484 155.384,236.380 155.302,236.570 154.976 C 236.726 154.710,236.515 154.770,236.102 155.110 C 234.755 156.219,230.570 157.815,231.052 157.036 C 231.191 156.810,231.025 156.751,230.652 156.895 C 230.153 157.086,230.124 157.209,230.520 157.454 C 230.882 157.677,230.694 157.898,229.870 158.218 C 229.232 158.465,228.271 158.861,227.734 159.098 C 227.197 159.334,226.582 159.548,226.367 159.572 C 226.152 159.596,225.362 159.999,224.611 160.468 C 223.818 160.962,222.916 161.229,222.462 161.103 C 221.917 160.952,221.835 160.994,222.191 161.242 C 222.835 161.690,220.922 163.072,220.241 162.651 C 219.952 162.473,219.911 162.557,220.121 162.897 C 220.353 163.272,220.263 163.346,219.791 163.165 C 219.433 163.027,219.141 163.096,219.141 163.317 C 219.141 163.537,218.938 163.593,218.690 163.439 C 218.422 163.274,218.344 163.331,218.498 163.581 C 218.917 164.258,214.615 166.519,213.280 166.323 C 212.659 166.232,212.220 166.269,212.304 166.405 C 212.388 166.542,211.896 166.980,211.209 167.379 C 210.523 167.779,209.834 168.294,209.680 168.525 C 209.484 168.818,209.146 168.788,208.565 168.428 C 207.983 168.067,207.819 168.053,208.021 168.381 C 208.206 168.680,208.115 168.787,207.769 168.674 C 207.471 168.577,206.997 168.027,206.717 167.452 C 206.437 166.877,206.031 166.406,205.815 166.406 C 205.599 166.406,205.511 166.264,205.618 166.090 C 205.856 165.706,205.961 161.753,205.755 160.938 C 204.685 156.701,201.794 154.530,198.047 155.147 C 197.080 155.307,193.037 155.423,189.063 155.406 C 185.088 155.390,181.177 155.385,180.371 155.395 C 179.565 155.406,178.906 155.251,178.906 155.051 C 178.906 154.851,178.720 154.688,178.493 154.688 C 178.265 154.688,178.204 154.890,178.356 155.136 C 178.563 155.471,177.350 155.516,173.594 155.311 C 167.324 154.971,165.533 155.230,164.071 156.692 C 163.322 157.441,162.889 157.649,162.756 157.322 C 162.647 157.055,162.562 157.275,162.566 157.813 C 162.577 159.146,161.538 163.752,161.284 163.497 C 161.171 163.385,161.210 164.213,161.370 165.338 C 161.531 166.463,161.675 167.689,161.690 168.063 C 161.726 168.912,163.961 171.092,164.804 171.100 C 165.347 171.105,165.353 171.154,164.848 171.474 C 164.420 171.744,164.563 171.810,165.389 171.722 C 167.846 171.460,173.670 174.014,172.056 174.645 C 171.279 174.949,171.834 175.177,172.975 175.023 C 173.384 174.968,173.396 175.129,173.034 175.805 C 172.681 176.465,172.684 176.591,173.050 176.365 C 173.387 176.157,173.446 176.310,173.258 176.904 C 173.113 177.361,173.154 177.734,173.349 177.734 C 173.545 177.734,173.717 178.538,173.731 179.521 C 173.749 180.688,173.977 181.468,174.387 181.768 C 175.165 182.337,175.174 182.538,174.857 193.535 C 174.671 199.986,174.463 202.586,174.116 202.806 C 173.733 203.049,173.734 203.114,174.118 203.119 C 174.484 203.124,174.599 204.607,174.587 209.160 C 174.572 214.673,174.513 215.173,173.906 214.946 C 173.369 214.745,173.329 214.804,173.697 215.259 C 174.149 215.818,174.548 219.466,174.847 225.781 C 174.934 227.607,175.067 229.717,175.143 230.469 C 175.219 231.221,175.203 231.975,175.107 232.146 C 175.012 232.316,174.888 233.431,174.832 234.624 C 174.769 235.968,174.522 236.925,174.182 237.140 C 173.792 237.387,173.775 237.490,174.121 237.494 C 174.415 237.498,174.609 238.031,174.609 238.835 C 174.609 239.569,174.390 240.258,174.121 240.366 C 173.740 240.520,173.743 240.570,174.135 240.594 C 174.524 240.618,174.627 241.958,174.588 246.486 C 174.561 249.709,174.417 252.271,174.267 252.179 C 174.118 252.086,174.136 253.604,174.307 255.550 C 174.540 258.204,174.494 259.242,174.125 259.698 C 173.737 260.178,173.736 260.244,174.121 260.013 C 174.469 259.804,174.609 260.062,174.609 260.914 C 174.609 261.572,174.404 262.109,174.154 262.109 C 173.903 262.109,173.814 262.225,173.955 262.366 C 174.096 262.508,174.029 262.844,173.806 263.113 C 173.581 263.384,173.553 263.697,173.744 263.815 C 173.933 263.932,174.010 264.561,173.915 265.213 C 173.813 265.905,173.571 266.294,173.333 266.147 C 173.105 266.005,173.042 266.082,173.190 266.322 C 174.808 268.939,171.139 272.338,166.261 272.742 C 165.717 272.787,165.350 272.902,165.446 272.998 C 165.542 273.094,165.270 273.417,164.843 273.716 C 163.443 274.697,160.488 282.596,161.832 281.766 C 162.079 281.613,162.150 281.835,162.017 282.342 C 161.899 282.795,161.956 283.218,162.144 283.282 C 162.332 283.346,162.533 284.043,162.591 284.830 C 162.648 285.617,162.783 286.256,162.891 286.249 C 163.663 286.197,163.717 286.413,163.063 286.943 C 162.326 287.541,162.330 287.553,163.208 287.364 C 163.705 287.257,164.685 287.409,165.386 287.702 C 166.367 288.112,168.311 288.190,173.857 288.041 C 186.904 287.691,190.736 287.779,190.353 288.419 C 190.153 288.752,190.229 288.755,190.648 288.431 C 192.008 287.377,204.646 287.381,204.015 288.436 C 203.869 288.679,204.018 288.656,204.355 288.382 C 204.685 288.116,205.052 287.995,205.171 288.113 C 205.403 288.346,207.612 288.372,209.668 288.168 C 210.366 288.098,210.938 288.164,210.938 288.314 C 210.938 288.463,211.860 288.504,212.988 288.404 C 214.116 288.304,215.303 288.235,215.625 288.252 C 221.018 288.525,224.219 286.688,224.219 283.320 C 224.219 282.826,224.403 282.422,224.629 282.422 C 224.894 282.422,224.912 282.196,224.680 281.780 C 224.482 281.428,224.406 280.812,224.511 280.413 C 224.615 280.014,224.504 279.688,224.264 279.688 C 224.024 279.688,223.828 279.413,223.828 279.079 C 223.828 278.744,224.004 278.578,224.219 278.711 C 224.434 278.844,224.609 278.766,224.609 278.539 C 224.609 278.311,224.450 278.125,224.256 278.125 C 224.061 278.125,223.415 277.290,222.820 276.270 C 221.490 273.990,220.966 273.562,218.815 272.994 C 217.870 272.744,217.318 272.426,217.566 272.273 C 217.810 272.122,216.990 272.009,215.743 272.021 C 212.829 272.050,210.959 271.150,209.954 269.235 C 209.532 268.431,209.021 267.655,208.817 267.510 C 208.614 267.365,208.392 266.750,208.325 266.143 C 208.258 265.536,208.037 264.160,207.835 263.086 C 207.281 260.137,207.361 253.974,207.984 251.635 C 208.467 249.819,208.462 249.308,207.945 247.565 C 207.619 246.469,207.454 245.030,207.577 244.368 C 207.922 242.517,208.036 239.843,207.769 239.843 C 207.638 239.844,207.614 239.406,207.716 238.872 C 207.818 238.337,208.058 237.996,208.248 238.114 C 208.438 238.231,208.594 238.156,208.594 237.946 C 208.594 237.737,208.374 237.486,208.105 237.388 C 207.715 237.247,207.715 237.046,208.105 236.384 C 208.677 235.417,208.731 235.025,208.253 235.321 C 207.701 235.662,207.371 232.697,207.921 232.340 C 208.289 232.102,208.274 231.951,207.858 231.683 C 207.427 231.405,207.377 230.669,207.614 228.069 C 207.778 226.274,207.912 223.512,207.911 221.931 C 207.911 220.179,208.041 219.264,208.246 219.587 C 208.507 220.000,208.583 219.966,208.588 219.434 C 208.591 219.058,208.439 218.750,208.249 218.750 C 207.559 218.750,207.310 213.000,207.945 211.727 C 208.269 211.078,208.360 210.547,208.147 210.547 C 207.314 210.547,208.333 206.366,210.036 202.794 C 211.355 200.027,211.890 199.239,212.173 199.649 C 212.446 200.043,212.482 199.950,212.304 199.316 C 212.168 198.833,212.206 198.438,212.389 198.438 C 212.572 198.438,213.048 197.886,213.446 197.212 C 213.845 196.537,214.421 195.702,214.728 195.356 C 215.035 195.010,215.687 194.111,216.177 193.359 C 216.668 192.607,217.284 192.040,217.548 192.100 C 217.811 192.159,217.928 192.046,217.806 191.850 C 217.685 191.654,218.199 191.025,218.949 190.453 C 219.818 189.790,220.321 189.598,220.337 189.922 C 220.351 190.201,220.525 190.023,220.725 189.526 C 220.943 188.982,221.268 188.734,221.541 188.902 C 221.817 189.073,221.891 189.013,221.729 188.752 C 221.410 188.236,222.614 187.527,224.003 187.412 C 224.551 187.367,225.000 187.225,225.000 187.096 C 225.000 186.690,228.002 185.156,228.797 185.156 C 229.215 185.156,229.678 185.036,229.825 184.889 C 230.264 184.449,232.948 183.603,233.789 183.639 C 234.433 183.666,234.398 183.727,233.594 183.984 C 232.757 184.252,232.732 184.303,233.418 184.336 C 233.858 184.357,234.401 184.193,234.624 183.970 C 234.847 183.747,235.807 183.519,236.758 183.464 C 237.709 183.409,238.689 183.238,238.937 183.086 C 239.184 182.933,239.445 182.979,239.517 183.189 C 239.701 183.723,241.619 183.888,241.524 183.361 C 241.469 183.056,242.000 183.042,243.371 183.313 C 244.519 183.540,245.196 183.857,245.048 184.096 C 244.894 184.346,245.117 184.415,245.637 184.279 C 246.239 184.122,246.704 184.352,247.290 185.096 C 247.738 185.666,247.977 185.886,247.820 185.584 C 247.664 185.282,247.695 185.135,247.889 185.257 C 252.876 188.384,255.565 190.545,255.201 191.133 C 255.067 191.350,255.144 191.411,255.373 191.270 C 256.792 190.393,260.531 198.806,259.854 201.352 C 259.465 202.812,259.479 202.871,260.039 202.148 C 260.635 201.379,260.641 201.381,260.437 202.246 C 260.323 202.729,260.400 203.125,260.608 203.125 C 260.836 203.125,260.941 204.830,260.872 207.422 C 260.809 209.785,260.601 211.719,260.409 211.719 C 260.217 211.719,260.242 211.938,260.464 212.207 C 260.686 212.476,260.973 213.398,261.102 214.258 C 261.277 215.425,261.240 215.623,260.956 215.039 C 260.618 214.347,260.586 214.379,260.676 215.317 C 260.732 215.900,260.902 216.501,261.053 216.652 C 261.204 216.803,261.325 218.260,261.322 219.889 C 261.318 221.946,261.200 222.672,260.938 222.266 C 260.710 221.914,260.556 221.865,260.553 222.145 C 260.550 222.401,260.723 222.719,260.938 222.852 C 261.852 223.417,260.994 228.125,259.977 228.125 C 259.650 228.125,259.552 228.485,259.687 229.188 C 259.864 230.115,259.924 230.154,260.156 229.494 C 260.349 228.941,260.485 229.208,260.658 230.482 C 260.789 231.455,260.731 232.284,260.525 232.357 C 260.322 232.428,260.156 232.658,260.156 232.868 C 260.156 233.078,260.376 233.117,260.645 232.956 C 260.929 232.785,260.888 232.970,260.547 233.398 C 260.204 233.829,260.164 234.013,260.450 233.841 C 261.404 233.267,261.900 235.999,261.767 241.085 C 261.730 242.470,261.554 242.955,261.035 243.090 C 260.414 243.252,260.418 243.273,261.072 243.314 C 261.720 243.355,261.759 243.566,261.462 245.410 C 261.281 246.538,261.162 249.380,261.197 251.726 C 261.236 254.374,261.128 255.781,260.910 255.437 C 260.687 255.085,260.557 255.052,260.553 255.348 C 260.550 255.604,260.723 255.922,260.938 256.055 C 261.507 256.407,261.417 257.122,260.840 256.830 C 260.571 256.694,260.615 256.815,260.938 257.100 C 261.394 257.503,261.469 258.137,261.276 259.961 C 261.140 261.250,260.895 263.579,260.731 265.137 C 260.567 266.694,260.254 267.969,260.034 267.969 C 259.815 267.969,259.751 268.084,259.892 268.226 C 260.034 268.367,260.003 268.675,259.824 268.909 C 259.645 269.144,259.629 269.775,259.789 270.313 C 260.062 271.233,260.081 271.218,260.117 270.043 C 260.139 269.357,260.339 268.683,260.563 268.545 C 260.817 268.388,260.896 268.634,260.775 269.206 C 260.668 269.707,260.477 271.596,260.349 273.403 C 260.221 275.210,259.932 277.033,259.707 277.454 C 259.413 278.004,259.418 278.144,259.727 277.954 C 260.018 277.774,260.158 278.355,260.162 279.762 C 260.165 280.903,260.255 282.275,260.362 282.813 C 260.493 283.466,260.363 283.336,259.970 282.422 L 259.382 281.055 259.620 282.422 C 259.907 284.073,260.105 284.453,260.541 284.184 C 260.722 284.071,261.252 284.596,261.717 285.349 C 262.183 286.102,262.769 286.721,263.020 286.725 C 263.283 286.728,263.228 286.893,262.891 287.111 C 262.427 287.413,262.508 287.491,263.281 287.484 C 264.929 287.469,266.801 287.958,266.565 288.341 C 266.433 288.553,266.783 288.592,267.408 288.435 C 268.128 288.255,268.391 288.304,268.216 288.588 C 268.073 288.819,268.135 289.119,268.353 289.254 C 268.572 289.389,268.750 289.146,268.750 288.712 C 268.750 287.945,268.995 287.925,278.613 287.902 C 295.594 287.861,306.413 287.488,306.926 286.924 C 307.091 286.742,306.963 286.741,306.641 286.922 C 306.318 287.102,306.622 286.712,307.316 286.054 C 309.146 284.319,310.277 279.510,309.036 278.743 C 308.849 278.627,308.589 277.862,308.458 277.043 C 308.061 274.558,305.283 272.718,300.897 272.036 C 299.386 271.801,297.112 270.168,297.047 269.271 C 297.034 269.092,296.712 268.242,296.331 267.383 C 295.457 265.410,295.570 258.728,296.496 257.588 C 296.812 257.199,296.870 257.002,296.624 257.148 C 295.971 257.540,295.721 254.768,296.361 254.237 C 296.639 254.006,296.750 253.630,296.608 253.400 C 296.453 253.148,296.243 253.283,296.083 253.737 C 295.929 254.174,295.816 253.587,295.816 252.344 C 295.815 251.162,295.684 248.812,295.526 247.122 C 295.367 245.431,295.386 244.140,295.568 244.253 C 295.852 244.428,295.852 242.325,295.567 235.487 C 295.535 234.701,295.385 234.135,295.235 234.228 C 294.806 234.493,295.199 206.997,295.644 205.566 C 295.861 204.868,295.943 204.297,295.826 204.297 C 295.709 204.297,295.908 203.847,296.269 203.296 C 296.931 202.286,296.971 200.405,296.341 199.948 C 295.693 199.478,295.652 192.566,296.290 191.287 C 297.044 189.776,297.031 188.324,296.252 186.762 C 295.909 186.075,295.592 185.301,295.547 185.042 C 295.502 184.782,295.164 184.001,294.795 183.305 C 294.426 182.609,294.119 181.954,294.112 181.850 C 294.062 181.128,291.093 175.319,290.183 174.163 C 289.567 173.380,289.063 172.361,289.063 171.899 C 289.063 171.316,288.854 171.095,288.379 171.174 C 287.978 171.242,287.740 171.075,287.803 170.772 C 287.862 170.487,287.730 170.366,287.509 170.502 C 287.288 170.639,286.943 170.317,286.742 169.788 C 286.541 169.259,286.187 168.709,285.955 168.566 C 285.724 168.423,285.653 168.098,285.798 167.844 C 285.944 167.590,285.917 167.515,285.739 167.677 C 285.269 168.103,283.999 166.823,284.248 166.174 C 284.364 165.872,284.250 165.625,283.996 165.625 C 283.441 165.625,281.250 163.500,281.250 162.962 C 281.250 162.754,280.975 162.478,280.639 162.349 C 280.297 162.218,280.152 161.915,280.309 161.661 C 280.468 161.403,280.420 161.312,280.198 161.450 C 279.982 161.583,279.472 161.348,279.063 160.928 C 278.655 160.508,277.909 159.746,277.407 159.235 C 276.904 158.724,275.777 158.091,274.901 157.829 C 273.811 157.502,273.471 157.252,273.824 157.034 C 274.179 156.814,274.048 156.710,273.400 156.697 C 271.220 156.652,266.199 155.629,265.430 155.074 C 264.828 154.639,258.149 153.934,252.843 153.745 C 250.218 153.652,247.901 153.471,247.695 153.344 C 247.488 153.217,247.209 153.291,247.074 153.509 C 246.939 153.728,246.180 153.904,245.387 153.900 C 244.312 153.896,244.094 153.798,244.531 153.516 C 244.854 153.307,244.935 153.134,244.713 153.131 C 244.490 153.128,244.046 153.387,243.727 153.706 M99.121 154.937 C 98.745 155.046,98.438 155.309,98.438 155.520 C 98.438 155.732,98.280 155.808,98.088 155.689 C 97.895 155.570,97.634 155.744,97.507 156.075 C 97.380 156.406,96.966 156.625,96.587 156.561 C 96.104 156.480,95.935 156.661,96.022 157.168 C 96.090 157.566,95.996 157.798,95.813 157.685 C 95.630 157.572,95.449 157.774,95.412 158.134 C 95.233 159.861,94.803 161.301,94.518 161.124 C 94.344 161.017,94.373 161.552,94.584 162.314 C 94.982 163.758,94.735 165.196,93.990 165.760 C 93.729 165.957,93.847 165.994,94.285 165.851 C 94.871 165.661,94.975 165.769,94.810 166.400 C 94.697 166.833,94.764 167.188,94.958 167.188 C 95.153 167.188,95.313 167.418,95.313 167.700 C 95.313 168.418,97.232 170.129,98.633 170.658 L 99.805 171.101 98.438 170.929 C 97.686 170.834,97.291 170.847,97.561 170.958 C 97.831 171.069,97.952 171.321,97.831 171.518 C 97.710 171.714,98.148 171.875,98.805 171.875 C 99.571 171.875,100.000 171.678,100.000 171.326 C 100.000 170.969,100.273 170.848,100.781 170.981 C 101.211 171.093,101.563 171.340,101.563 171.530 C 101.563 171.720,101.870 171.872,102.246 171.869 C 102.830 171.864,102.844 171.808,102.344 171.484 C 101.899 171.197,101.884 171.104,102.283 171.100 C 102.571 171.096,102.901 171.449,103.014 171.884 C 103.210 172.632,103.249 172.637,103.746 171.982 C 104.092 171.526,104.276 171.464,104.284 171.800 C 104.291 172.082,104.461 172.211,104.661 172.087 C 105.207 171.749,106.250 173.461,106.250 174.696 C 106.250 175.293,106.426 175.781,106.641 175.781 C 106.855 175.781,107.029 176.089,107.025 176.465 C 107.020 177.050,106.964 177.064,106.634 176.563 C 106.327 176.098,106.273 176.156,106.369 176.845 C 106.510 177.854,107.028 178.519,107.037 177.702 C 107.042 177.234,107.096 177.232,107.385 177.689 C 107.574 177.986,107.654 178.777,107.564 179.446 C 107.474 180.116,107.384 181.134,107.364 181.708 C 107.339 182.427,107.160 182.688,106.789 182.545 C 106.080 182.273,106.109 182.648,106.899 183.986 C 107.504 185.011,107.504 185.129,106.899 185.735 C 106.180 186.454,106.034 186.898,106.641 186.523 C 106.855 186.391,107.031 186.454,107.031 186.663 C 107.031 186.873,106.812 187.149,106.543 187.276 C 106.274 187.404,106.406 187.447,106.836 187.371 C 107.518 187.251,107.611 187.436,107.568 188.832 C 107.541 189.711,107.497 191.187,107.470 192.113 C 107.444 193.039,107.290 193.714,107.129 193.614 C 106.968 193.514,106.888 194.427,106.952 195.642 C 107.036 197.251,106.958 197.692,106.665 197.266 C 106.354 196.813,106.263 196.990,106.268 198.047 C 106.274 199.306,106.318 199.357,106.824 198.689 C 107.303 198.057,107.366 198.854,107.312 204.833 C 107.256 211.056,106.999 212.826,106.538 210.156 C 106.446 209.619,106.373 210.234,106.377 211.523 C 106.380 212.812,106.454 213.560,106.540 213.184 C 106.793 212.087,107.227 212.395,107.227 213.672 C 107.227 214.861,106.841 215.246,106.541 214.355 C 106.451 214.087,106.360 214.438,106.340 215.137 C 106.314 215.996,106.483 216.406,106.862 216.406 C 107.281 216.406,107.414 216.923,107.391 218.457 C 107.374 219.585,107.272 220.288,107.163 220.020 C 107.055 219.751,106.811 219.531,106.620 219.531 C 106.430 219.531,106.376 219.795,106.499 220.117 C 106.623 220.439,106.994 220.703,107.323 220.703 C 107.816 220.703,107.878 221.065,107.675 222.754 C 107.540 223.882,107.410 225.156,107.386 225.586 C 107.351 226.236,107.291 226.203,107.031 225.391 C 106.737 224.472,106.716 224.491,106.680 225.707 C 106.658 226.418,106.787 226.908,106.967 226.798 C 107.251 226.622,107.346 228.078,107.574 236.099 C 107.602 237.087,107.425 237.692,107.075 237.810 C 106.705 237.934,106.630 237.820,106.839 237.453 C 107.080 237.029,107.038 237.013,106.642 237.381 C 106.230 237.762,106.231 238.072,106.647 239.077 C 107.058 240.070,107.060 240.366,106.659 240.614 C 106.347 240.807,106.315 240.975,106.573 241.066 C 106.812 241.150,107.030 242.795,107.094 244.989 C 107.155 247.067,107.360 248.671,107.550 248.553 C 107.740 248.436,107.799 248.845,107.679 249.463 C 107.560 250.081,107.342 251.904,107.193 253.516 C 107.004 255.578,106.831 256.214,106.610 255.664 C 106.392 255.121,106.302 255.478,106.315 256.836 C 106.343 259.708,106.630 261.381,107.051 261.121 C 107.266 260.988,107.400 261.600,107.370 262.575 L 107.319 264.258 107.057 262.891 L 106.795 261.523 106.609 263.192 C 106.470 264.442,106.548 264.813,106.922 264.669 C 107.600 264.409,107.595 269.361,106.916 270.703 C 106.140 272.237,104.547 272.838,103.344 272.050 C 102.603 271.564,101.969 271.483,100.696 271.709 C 99.776 271.873,98.592 272.021,98.064 272.039 C 97.381 272.061,97.034 272.351,96.858 273.047 C 96.722 273.584,96.427 273.986,96.203 273.941 C 95.979 273.896,95.818 274.155,95.847 274.518 C 95.875 274.880,95.723 275.185,95.508 275.196 C 94.461 275.249,93.557 276.125,94.043 276.616 C 94.435 277.013,94.531 276.979,94.531 276.445 C 94.531 276.080,94.719 275.781,94.948 275.781 C 95.180 275.781,95.261 276.111,95.130 276.522 C 95.001 276.929,94.732 278.028,94.534 278.963 C 94.192 280.570,94.178 280.585,94.270 279.227 C 94.324 278.436,94.229 277.875,94.059 277.980 C 93.889 278.085,93.753 278.996,93.756 280.004 C 93.760 281.163,93.884 281.643,94.094 281.312 C 94.338 280.927,94.476 281.047,94.613 281.764 C 94.737 282.411,94.644 282.681,94.340 282.565 C 94.087 282.468,93.880 282.650,93.880 282.969 C 93.880 283.289,93.983 283.539,94.108 283.526 C 94.841 283.447,95.331 283.639,95.148 283.934 C 95.033 284.121,95.282 284.671,95.703 285.156 C 96.124 285.641,96.357 286.219,96.221 286.439 C 96.078 286.669,96.165 286.721,96.424 286.561 C 96.691 286.396,96.875 286.530,96.875 286.891 C 96.875 287.226,97.061 287.500,97.289 287.500 C 97.516 287.500,97.601 287.336,97.477 287.136 C 97.354 286.936,97.797 287.044,98.463 287.376 C 99.555 287.921,101.996 288.036,107.227 287.788 C 109.749 287.669,112.519 287.935,112.307 288.277 C 112.171 288.498,112.327 288.564,112.673 288.431 C 113.005 288.304,113.164 288.016,113.025 287.793 C 112.854 287.516,113.572 287.478,115.274 287.675 C 116.649 287.834,119.312 287.943,121.191 287.917 C 123.728 287.881,124.611 287.997,124.615 288.368 C 124.620 288.738,124.711 288.726,124.968 288.320 C 125.345 287.725,129.297 287.339,129.297 287.898 C 129.297 288.079,129.868 288.056,130.566 287.848 C 132.162 287.371,137.107 287.802,137.115 288.419 C 137.120 288.753,137.194 288.754,137.408 288.422 C 137.593 288.135,139.777 287.916,143.555 287.805 C 147.988 287.675,149.694 287.478,150.565 286.997 C 151.419 286.525,151.851 286.472,152.235 286.791 C 152.520 287.027,152.866 287.108,153.004 286.970 C 153.142 286.832,153.050 286.719,152.799 286.719 C 152.100 286.719,152.258 285.909,153.098 285.180 C 154.622 283.858,155.157 278.403,154.087 275.094 C 153.999 274.823,153.939 274.487,153.952 274.347 C 153.965 274.208,153.693 273.935,153.347 273.742 C 153.001 273.548,152.819 273.227,152.942 273.027 C 153.065 272.828,152.893 272.770,152.559 272.898 C 151.841 273.173,151.732 272.436,152.441 272.099 C 152.710 271.971,152.523 271.943,152.026 272.036 C 151.529 272.129,150.524 271.955,149.793 271.650 C 149.061 271.344,147.524 271.094,146.377 271.094 C 143.764 271.094,141.747 269.703,142.037 268.102 C 142.148 267.492,142.062 267.219,141.810 267.375 C 141.588 267.512,141.403 267.570,141.398 267.504 C 141.394 267.437,141.150 265.903,140.856 264.094 C 140.514 261.990,140.447 260.442,140.669 259.797 C 141.110 258.521,141.309 254.311,140.918 254.553 C 140.317 254.924,140.482 248.710,141.179 244.703 C 141.494 242.893,141.536 241.588,141.301 240.978 C 140.801 239.683,140.774 233.870,141.268 233.705 C 141.495 233.629,141.594 232.761,141.499 231.673 C 141.407 230.615,141.540 229.386,141.799 228.901 C 142.056 228.423,142.096 228.135,141.889 228.263 C 141.383 228.576,140.984 223.962,141.418 222.819 C 141.636 222.248,141.610 221.878,141.346 221.790 C 141.079 221.701,141.147 221.146,141.541 220.201 C 141.875 219.403,141.981 218.750,141.777 218.750 C 141.573 218.750,141.406 218.311,141.406 217.773 C 141.406 217.236,141.571 216.797,141.772 216.797 C 141.973 216.797,142.105 215.759,142.065 214.491 C 142.025 213.222,141.884 212.251,141.751 212.333 C 141.494 212.492,141.014 209.558,141.018 207.856 C 141.019 207.295,141.269 206.359,141.573 205.777 C 142.186 204.601,142.260 199.190,141.669 198.777 C 141.094 198.376,141.244 194.484,141.849 194.100 C 142.272 193.832,142.276 193.761,141.871 193.756 C 141.590 193.753,141.475 193.564,141.616 193.336 C 142.062 192.614,142.184 187.051,141.770 186.277 C 141.467 185.711,141.515 185.481,141.973 185.305 C 142.303 185.178,142.465 184.898,142.332 184.683 C 142.183 184.442,141.961 184.496,141.754 184.822 C 141.527 185.180,141.416 184.932,141.412 184.059 C 141.409 183.305,141.567 182.866,141.792 183.005 C 142.014 183.142,142.079 182.985,141.946 182.637 C 141.806 182.274,141.926 182.029,142.243 182.025 C 142.564 182.022,142.619 181.906,142.383 181.732 C 142.168 181.574,141.961 180.060,141.922 178.367 C 141.883 176.674,141.676 175.114,141.462 174.900 C 141.220 174.658,141.205 174.163,141.421 173.593 C 141.613 173.089,141.852 171.151,141.953 169.287 C 142.058 167.349,142.329 165.779,142.585 165.620 C 142.891 165.431,142.823 165.262,142.372 165.089 C 141.838 164.884,141.755 164.515,141.944 163.179 C 142.244 161.057,141.701 158.763,140.629 157.622 C 139.992 156.943,139.912 156.670,140.303 156.499 C 140.588 156.374,140.469 156.312,140.039 156.359 C 139.567 156.411,139.300 156.241,139.365 155.928 C 139.424 155.643,139.311 155.511,139.113 155.633 C 138.915 155.755,138.221 155.632,137.572 155.359 C 136.688 154.988,135.236 154.942,131.800 155.177 C 128.223 155.422,127.138 155.381,126.891 154.992 C 126.648 154.607,126.573 154.604,126.568 154.976 C 126.565 155.242,126.167 155.445,125.684 155.427 C 125.200 155.409,124.365 155.517,123.828 155.667 C 122.503 156.038,117.578 156.232,117.578 155.914 C 117.578 155.773,116.831 155.717,115.918 155.789 C 115.005 155.861,113.027 155.723,111.523 155.483 C 108.472 154.994,100.180 154.629,99.121 154.937 M257.644 168.625 C 257.526 168.933,257.603 169.075,257.817 168.943 C 258.029 168.811,258.203 168.871,258.203 169.076 C 258.203 169.280,257.939 169.549,257.617 169.673 C 257.295 169.796,257.031 169.717,257.031 169.496 C 257.031 169.275,256.880 169.188,256.694 169.303 C 256.434 169.463,256.347 168.105,256.591 167.688 C 256.812 167.309,257.809 168.196,257.644 168.625 M331.250 169.554 C 331.250 169.997,331.426 170.250,331.641 170.117 C 331.855 169.984,332.031 169.622,332.031 169.313 C 332.031 169.003,331.855 168.750,331.641 168.750 C 331.426 168.750,331.250 169.112,331.250 169.554 M267.459 176.751 C 266.909 177.153,266.901 177.281,267.400 177.779 C 267.898 178.278,267.872 178.348,267.188 178.348 C 266.691 178.348,266.406 178.088,266.406 177.634 C 266.406 176.768,267.248 175.781,267.735 176.077 C 267.929 176.195,267.804 176.498,267.459 176.751 M106.250 179.102 C 106.250 179.424,106.508 179.688,106.824 179.688 C 107.173 179.688,107.309 179.458,107.173 179.102 C 107.049 178.779,106.791 178.516,106.599 178.516 C 106.407 178.516,106.250 178.779,106.250 179.102 M50.660 182.324 C 50.562 182.700,50.481 182.393,50.481 181.641 C 50.481 180.889,50.562 180.581,50.660 180.957 C 50.758 181.333,50.758 181.948,50.660 182.324 M248.144 186.816 C 248.234 187.085,248.631 187.368,249.028 187.444 C 249.691 187.573,249.698 187.533,249.121 186.956 C 248.371 186.206,247.919 186.141,248.144 186.816 M106.488 191.602 C 106.810 193.038,107.033 193.350,107.025 192.350 C 107.022 191.938,106.841 191.338,106.623 191.016 C 106.333 190.588,106.297 190.746,106.488 191.602 M260.156 206.055 C 260.156 206.377,259.996 206.641,259.800 206.641 C 259.332 206.641,259.477 207.587,259.967 207.723 C 260.175 207.780,260.389 207.297,260.442 206.648 C 260.494 206.000,260.452 205.469,260.347 205.469 C 260.242 205.469,260.156 205.732,260.156 206.055 M106.545 217.773 C 106.442 218.311,106.510 218.750,106.695 218.750 C 106.880 218.750,107.031 218.311,107.031 217.773 C 107.031 217.236,106.964 216.797,106.881 216.797 C 106.799 216.797,106.648 217.236,106.545 217.773 M106.915 221.744 C 107.090 222.201,107.019 222.304,106.674 222.091 C 106.328 221.877,106.223 222.036,106.315 222.628 C 106.520 223.946,107.214 223.768,107.349 222.363 C 107.416 221.665,107.290 221.094,107.068 221.094 C 106.847 221.094,106.777 221.386,106.915 221.744 M260.592 225.066 C 260.567 225.424,260.446 226.039,260.322 226.433 C 260.109 227.111,260.121 227.112,260.544 226.453 C 260.789 226.070,260.911 225.455,260.814 225.085 C 260.655 224.481,260.633 224.479,260.592 225.066 M106.762 231.055 C 106.764 232.344,106.837 232.824,106.924 232.122 C 107.011 231.420,107.009 230.365,106.920 229.778 C 106.831 229.191,106.759 229.766,106.762 231.055 M332.691 237.793 C 332.593 238.169,332.513 237.861,332.513 237.109 C 332.513 236.357,332.593 236.050,332.691 236.426 C 332.789 236.802,332.789 237.417,332.691 237.793 M106.250 250.586 C 106.250 251.123,106.426 251.563,106.641 251.563 C 106.855 251.563,107.031 251.123,107.031 250.586 C 107.031 250.049,106.855 249.609,106.641 249.609 C 106.426 249.609,106.250 250.049,106.250 250.586 M107.813 259.961 C 107.813 260.283,107.656 260.547,107.464 260.547 C 107.272 260.547,107.014 260.283,106.890 259.961 C 106.753 259.604,106.889 259.375,107.239 259.375 C 107.554 259.375,107.813 259.639,107.813 259.961 M332.813 260.156 C 332.813 260.586,332.637 260.938,332.422 260.938 C 332.207 260.938,332.031 260.586,332.031 260.156 C 332.031 259.727,332.207 259.375,332.422 259.375 C 332.637 259.375,332.813 259.727,332.813 260.156 M106.493 266.309 C 106.861 267.842,107.031 267.894,107.031 266.471 C 107.031 265.791,106.852 265.234,106.633 265.234 C 106.397 265.234,106.340 265.671,106.493 266.309 M106.487 268.587 C 106.175 269.399,106.181 270.902,106.495 270.589 C 106.766 270.318,107.102 267.969,106.870 267.969 C 106.790 267.969,106.618 268.247,106.487 268.587 M171.881 269.629 C 171.886 270.340,171.959 270.396,172.266 269.922 C 172.755 269.165,172.755 268.750,172.266 268.750 C 172.051 268.750,171.878 269.146,171.881 269.629 M331.320 294.598 C 331.505 295.849,332.422 295.983,332.422 294.759 C 332.422 294.103,332.208 293.750,331.809 293.750 C 331.402 293.750,331.238 294.035,331.320 294.598 M331.454 299.039 C 331.465 300.622,331.600 302.042,331.753 302.195 C 331.906 302.349,332.031 301.137,332.031 299.502 C 332.031 297.868,331.897 296.447,331.732 296.346 C 331.568 296.244,331.442 297.456,331.454 299.039 M336.931 317.551 C 336.807 317.751,336.903 318.037,337.145 318.186 C 337.463 318.383,337.453 318.538,337.108 318.751 C 336.534 319.106,335.156 318.797,335.156 318.314 C 335.156 317.825,335.699 317.886,336.250 318.438 C 336.592 318.780,336.719 318.785,336.719 318.457 C 336.719 318.210,336.411 317.828,336.035 317.609 C 335.428 317.256,335.453 317.210,336.254 317.199 C 336.750 317.193,337.054 317.351,336.931 317.551 M56.525 323.565 C 56.417 323.848,56.643 324.276,57.028 324.516 C 57.623 324.889,57.698 324.840,57.527 324.189 C 57.272 323.211,56.779 322.905,56.525 323.565 " stroke="none" fill="#000000" fill-rule="evenodd"/></g></svg>