<svg xmlns="http://www.w3.org/2000/svg" xmlns:xlink="http://www.w3.org/1999/xlink" id="svg" viewBox="32.88 34.78 331.57 328.49"><g id="svgg"><path id="path0" d="M343.555 35.156 C 343.422 35.371,343.455 35.559,343.629 35.573 C 343.803 35.587,343.154 35.850,342.188 36.156 C 339.955 36.864,337.901 36.961,336.866 36.407 C 336.263 36.084,335.938 36.093,335.590 36.441 C 335.229 36.803,335.041 36.777,334.755 36.325 C 334.426 35.804,334.210 36.045,334.325 36.805 C 334.348 36.960,333.920 36.917,333.372 36.709 C 332.805 36.493,332.472 36.484,332.598 36.687 C 332.726 36.894,331.015 37.047,328.522 37.052 C 326.159 37.056,324.019 37.187,323.765 37.343 C 323.451 37.538,323.387 37.415,323.562 36.958 C 323.721 36.545,323.665 36.383,323.416 36.536 C 322.937 36.833,317.463 37.076,310.166 37.124 C 298.247 37.204,286.825 37.247,285.449 37.218 C 284.644 37.201,283.984 37.349,283.984 37.546 C 283.984 37.744,283.589 37.809,283.105 37.691 C 281.326 37.255,274.219 36.898,274.219 37.244 C 274.219 37.438,273.999 37.419,273.730 37.203 C 273.427 36.960,270.131 36.855,265.039 36.928 C 256.719 37.047,255.279 36.951,255.681 36.300 C 255.805 36.101,255.719 35.938,255.492 35.938 C 255.264 35.938,255.078 36.084,255.078 36.264 C 255.078 36.747,249.859 36.489,248.864 35.957 C 248.136 35.567,244.016 35.411,240.234 35.629 C 239.697 35.660,237.852 35.698,236.133 35.714 C 234.414 35.729,232.879 35.918,232.721 36.133 C 232.563 36.348,232.428 36.172,232.422 35.742 C 232.413 35.185,232.318 35.106,232.090 35.465 C 231.831 35.874,227.217 36.246,226.172 35.942 C 225.262 35.677,219.977 35.711,220.144 35.981 C 220.262 36.172,220.172 36.328,219.945 36.328 C 219.717 36.328,219.531 36.140,219.531 35.911 C 219.531 35.682,219.214 35.595,218.827 35.718 C 218.439 35.841,216.066 35.969,213.553 36.002 C 211.040 36.036,208.984 36.167,208.984 36.293 C 208.983 36.420,208.349 36.569,207.573 36.624 C 206.454 36.704,206.211 36.604,206.390 36.136 C 206.531 35.769,206.391 35.547,206.019 35.547 C 205.667 35.547,205.537 35.732,205.702 35.998 C 205.904 36.325,205.559 36.382,204.455 36.205 C 203.417 36.038,203.117 36.079,203.516 36.333 C 203.936 36.601,203.576 36.708,202.246 36.713 C 201.226 36.716,200.391 36.572,200.391 36.393 C 200.391 36.214,200.127 36.068,199.805 36.068 C 199.482 36.068,199.218 36.170,199.217 36.296 C 199.214 36.732,194.141 36.601,194.135 36.165 C 194.131 35.932,193.972 35.989,193.781 36.291 C 193.507 36.725,192.729 36.790,190.076 36.603 C 187.090 36.392,186.715 36.440,186.688 37.031 C 186.669 37.438,186.581 37.506,186.460 37.207 C 186.352 36.938,185.926 36.719,185.514 36.719 C 185.103 36.719,184.786 36.587,184.812 36.426 C 184.953 35.533,184.693 35.471,184.272 36.297 C 184.006 36.817,183.545 37.324,183.246 37.422 C 182.928 37.527,182.812 37.426,182.966 37.177 C 183.148 36.882,182.638 36.823,181.297 36.981 C 180.235 37.107,178.817 37.019,178.146 36.785 C 177.281 36.483,177.002 36.482,177.186 36.780 C 177.370 37.077,175.855 37.125,172.024 36.943 C 169.042 36.802,166.426 36.681,166.211 36.674 C 165.996 36.668,165.144 36.732,164.317 36.818 C 163.299 36.923,162.748 36.803,162.611 36.445 C 162.452 36.030,162.288 36.018,161.843 36.387 C 161.022 37.068,149.293 36.923,148.593 36.223 C 148.478 36.109,147.754 36.189,146.983 36.402 C 146.211 36.615,145.090 36.717,144.490 36.629 C 143.891 36.541,143.482 36.601,143.582 36.762 C 144.146 37.676,140.458 37.089,139.721 36.148 C 139.545 35.925,139.508 36.120,139.637 36.583 C 139.858 37.375,139.786 37.405,138.405 37.093 C 136.542 36.673,127.789 36.704,127.525 37.132 C 127.416 37.309,126.699 37.191,125.933 36.871 C 125.049 36.501,124.640 36.453,124.816 36.738 C 125.021 37.068,124.866 37.065,124.232 36.726 C 123.758 36.472,123.270 36.365,123.147 36.488 C 123.024 36.611,122.654 36.494,122.324 36.227 C 121.995 35.960,121.831 35.920,121.961 36.138 C 122.190 36.521,121.079 36.542,118.673 36.199 C 118.030 36.108,117.539 36.256,117.415 36.579 C 117.304 36.871,116.845 37.109,116.395 37.109 C 115.946 37.109,115.680 36.946,115.804 36.746 C 115.927 36.546,115.823 36.255,115.571 36.099 C 115.303 35.934,115.218 35.985,115.365 36.224 C 115.914 37.111,114.624 37.420,111.614 37.122 C 109.945 36.956,107.396 36.949,105.950 37.106 C 104.504 37.262,102.399 37.346,101.273 37.292 C 99.925 37.228,99.311 37.334,99.478 37.603 C 99.635 37.858,99.538 37.893,99.219 37.695 C 98.938 37.522,98.339 37.335,97.889 37.280 C 97.439 37.226,96.763 37.058,96.387 36.908 C 96.011 36.758,95.703 36.786,95.703 36.970 C 95.703 37.154,95.132 37.321,94.434 37.342 C 93.735 37.362,91.934 37.445,90.430 37.526 C 88.926 37.607,87.464 37.529,87.181 37.352 C 86.898 37.176,86.064 37.031,85.327 37.031 C 84.590 37.031,84.073 36.891,84.179 36.721 C 84.519 36.170,83.228 35.947,82.126 36.367 C 81.537 36.590,81.011 36.761,80.957 36.746 C 80.903 36.731,80.728 36.738,80.566 36.762 C 79.294 36.952,76.067 36.690,75.422 36.345 C 74.807 36.016,74.670 36.032,74.818 36.417 C 74.955 36.775,74.435 36.935,72.954 36.989 C 71.823 37.030,69.875 37.107,68.623 37.161 C 67.087 37.226,66.246 37.092,66.034 36.749 C 65.798 36.367,65.680 36.358,65.563 36.710 C 65.428 37.115,62.303 37.283,59.375 37.043 C 59.053 37.016,57.668 37.128,56.297 37.291 C 54.840 37.465,53.896 37.443,54.023 37.237 C 54.142 37.044,53.945 36.874,53.585 36.859 C 53.224 36.844,51.621 36.731,50.021 36.607 C 48.358 36.479,46.800 36.550,46.382 36.773 C 45.712 37.132,42.604 37.481,38.965 37.607 C 38.159 37.635,37.500 37.853,37.500 38.092 C 37.500 38.331,36.885 38.821,36.133 39.179 C 35.026 39.707,34.766 40.051,34.766 40.986 C 34.766 41.622,34.590 42.250,34.375 42.383 C 34.160 42.516,33.984 43.043,33.984 43.555 C 33.984 44.066,33.787 44.607,33.545 44.757 C 33.235 44.949,33.183 46.366,33.369 49.565 C 33.884 58.399,33.982 64.453,33.611 64.453 C 33.403 64.453,33.449 65.005,33.717 65.723 C 33.978 66.421,34.157 67.607,34.116 68.359 C 34.074 69.111,33.948 71.909,33.834 74.576 C 33.692 77.926,33.472 79.524,33.123 79.746 C 32.845 79.922,32.802 80.069,33.027 80.072 C 33.253 80.075,33.674 79.858,33.964 79.590 C 34.391 79.193,34.428 79.210,34.160 79.677 C 33.978 79.994,33.871 87.992,33.920 97.451 C 34.012 114.968,34.044 116.059,34.544 119.141 C 34.752 120.428,34.717 120.742,34.413 120.313 C 34.067 119.827,33.995 119.877,33.990 120.605 C 33.987 121.089,34.171 121.484,34.398 121.484 C 34.626 121.484,34.703 121.660,34.570 121.875 C 34.438 122.090,34.588 122.266,34.904 122.266 C 35.382 122.266,35.404 122.465,35.034 123.446 C 34.689 124.360,34.701 124.807,35.090 125.430 C 35.472 126.041,35.484 126.363,35.140 126.778 C 34.891 127.077,34.687 127.937,34.687 128.687 C 34.687 129.438,34.573 130.037,34.434 130.019 C 33.684 129.921,33.469 130.136,33.984 130.469 C 34.307 130.677,34.369 130.850,34.123 130.853 C 33.807 130.858,33.775 131.287,34.016 132.324 C 34.442 134.157,34.451 134.468,34.075 134.236 C 33.910 134.134,33.840 134.737,33.920 135.578 C 34.000 136.418,34.211 137.015,34.389 136.906 C 34.566 136.796,34.822 136.885,34.957 137.103 C 35.092 137.321,35.036 137.500,34.833 137.500 C 34.630 137.500,34.388 138.018,34.295 138.651 C 34.202 139.284,34.266 139.716,34.437 139.610 C 34.765 139.407,34.553 163.912,34.189 168.457 C 34.056 170.111,34.124 171.094,34.371 171.094 C 34.588 171.094,34.766 171.280,34.766 171.507 C 34.766 171.735,34.593 171.815,34.382 171.684 C 34.135 171.532,34.008 174.997,34.024 181.430 C 34.039 187.378,34.194 191.323,34.407 191.191 C 34.604 191.069,34.766 191.254,34.766 191.602 C 34.766 191.949,34.634 192.152,34.473 192.053 C 34.312 191.953,34.180 192.294,34.180 192.811 C 34.180 193.327,34.290 193.750,34.424 193.750 C 34.558 193.750,34.591 194.937,34.497 196.387 C 34.015 203.793,34.036 224.800,34.528 227.145 C 34.951 229.165,34.951 229.751,34.526 230.518 C 33.752 231.914,33.799 233.676,34.583 232.640 C 34.898 232.223,35.156 232.070,35.156 232.299 C 35.156 232.529,34.893 232.936,34.570 233.203 C 33.848 233.803,33.775 237.135,34.469 237.829 C 34.856 238.215,34.836 238.389,34.372 238.682 C 34.051 238.885,33.927 239.053,34.096 239.057 C 34.264 239.060,34.203 239.435,33.959 239.891 C 33.712 240.352,33.688 240.613,33.904 240.479 C 34.664 240.010,35.241 252.229,34.769 258.789 C 34.617 260.895,34.610 264.481,34.753 266.992 C 34.900 269.584,34.783 271.151,34.459 270.950 C 34.290 270.846,34.152 271.086,34.152 271.484 C 34.152 271.883,34.304 272.114,34.490 271.999 C 34.791 271.813,34.619 280.285,34.209 285.840 C 34.121 287.024,34.209 287.798,34.415 287.670 C 34.626 287.540,34.737 289.083,34.684 291.411 C 34.634 293.590,34.463 295.453,34.304 295.552 C 34.145 295.650,34.159 296.120,34.337 296.596 C 34.728 297.646,34.511 299.284,33.933 299.641 C 33.633 299.827,33.638 299.981,33.949 300.173 C 34.190 300.323,34.287 300.608,34.163 300.808 C 34.039 301.008,34.144 301.172,34.395 301.172 C 34.686 301.172,34.794 301.665,34.692 302.533 C 34.605 303.281,34.705 303.951,34.915 304.021 C 35.125 304.091,35.182 304.447,35.042 304.813 C 34.902 305.178,34.797 305.587,34.810 305.722 C 34.822 305.857,34.598 306.116,34.311 306.298 C 34.009 306.489,33.972 306.631,34.223 306.635 C 34.492 306.638,34.606 307.267,34.523 308.301 C 34.165 312.775,34.308 315.614,34.925 316.231 C 35.704 317.010,35.702 317.042,34.814 318.299 C 33.972 319.490,33.600 326.669,34.356 327.137 C 34.581 327.276,34.766 327.566,34.766 327.780 C 34.766 327.995,34.608 328.074,34.416 327.955 C 33.999 327.697,33.498 328.826,33.808 329.327 C 33.927 329.520,34.016 332.607,34.006 336.187 C 33.994 340.168,34.146 342.888,34.395 343.189 C 34.681 343.532,34.674 343.760,34.375 343.945 C 34.067 344.135,34.076 344.366,34.404 344.761 C 34.655 345.064,34.708 345.313,34.520 345.313 C 33.650 345.314,33.985 352.106,34.944 353.906 C 35.460 354.873,36.072 356.106,36.306 356.646 C 36.570 357.256,37.500 357.980,38.764 358.560 C 39.882 359.073,41.653 360.169,42.699 360.996 C 43.763 361.837,45.059 362.513,45.641 362.530 C 46.212 362.546,47.031 362.639,47.461 362.736 C 49.232 363.136,53.943 363.166,57.422 362.801 C 59.463 362.586,61.623 362.401,62.222 362.390 C 62.942 362.377,63.141 362.261,62.808 362.050 C 62.418 361.803,62.414 361.729,62.793 361.725 C 63.590 361.715,63.875 361.890,63.737 362.305 C 63.665 362.520,63.727 362.575,63.875 362.427 C 64.022 362.280,64.586 362.328,65.127 362.533 C 65.801 362.790,66.280 362.767,66.649 362.461 C 67.055 362.124,67.187 362.127,67.187 362.475 C 67.187 362.729,67.359 362.831,67.569 362.701 C 68.236 362.289,70.456 362.134,70.881 362.470 C 71.285 362.791,74.325 362.455,76.135 361.889 C 76.863 361.662,77.003 361.713,76.755 362.114 C 76.523 362.489,76.611 362.565,77.072 362.388 C 77.422 362.254,77.806 362.300,77.925 362.492 C 78.177 362.901,79.708 362.881,80.276 362.462 C 80.492 362.302,81.595 362.222,82.727 362.283 C 83.859 362.344,84.873 362.252,84.979 362.079 C 85.086 361.907,85.681 362.056,86.302 362.413 C 87.269 362.968,87.569 362.986,88.404 362.539 C 88.940 362.252,89.546 362.121,89.751 362.247 C 89.956 362.374,90.666 362.322,91.329 362.131 C 92.170 361.890,92.586 361.923,92.701 362.240 C 92.825 362.581,93.074 362.573,93.694 362.207 C 94.639 361.649,95.054 361.580,94.778 362.026 C 94.674 362.194,94.883 362.346,95.244 362.363 C 98.448 362.509,100.000 362.677,100.000 362.877 C 100.000 363.007,100.339 363.114,100.753 363.114 C 101.166 363.114,101.431 362.993,101.340 362.846 C 101.249 362.699,101.779 362.578,102.519 362.578 C 103.259 362.578,104.383 362.319,105.017 362.003 C 105.651 361.687,106.389 361.563,106.657 361.729 C 107.008 361.946,106.937 362.083,106.404 362.220 C 105.799 362.375,105.785 362.418,106.325 362.455 C 106.688 362.480,107.092 362.328,107.222 362.117 C 107.371 361.876,107.759 361.913,108.272 362.215 C 108.920 362.597,109.123 362.595,109.264 362.205 C 109.362 361.935,109.602 361.813,109.799 361.935 C 109.995 362.056,110.156 361.881,110.156 361.546 C 110.156 361.212,110.332 360.938,110.547 360.938 C 110.906 360.938,111.097 361.491,110.984 362.207 C 110.915 362.643,111.633 362.562,111.784 362.116 C 111.861 361.888,114.368 361.728,117.969 361.720 C 126.558 361.701,126.240 361.681,125.916 362.222 C 125.750 362.498,125.916 362.464,126.313 362.142 C 126.688 361.838,127.601 361.603,128.341 361.621 C 130.632 361.676,130.713 361.699,130.078 362.109 C 129.629 362.400,129.765 362.488,130.664 362.488 C 131.563 362.488,131.700 362.400,131.250 362.109 C 130.598 361.688,130.761 361.654,133.398 361.654 C 135.649 361.654,135.801 361.693,135.156 362.109 C 134.707 362.400,134.843 362.488,135.742 362.488 C 136.641 362.488,136.778 362.400,136.328 362.109 C 135.852 361.802,135.902 361.730,136.598 361.725 C 137.069 361.721,137.563 361.895,137.695 362.109 C 137.828 362.324,138.113 362.500,138.327 362.500 C 138.542 362.500,138.599 362.307,138.452 362.070 C 138.266 361.768,138.433 361.773,139.015 362.084 C 139.561 362.376,139.844 362.390,139.844 362.123 C 139.844 361.901,140.118 361.719,140.453 361.719 C 140.788 361.719,140.953 361.895,140.820 362.109 C 140.688 362.324,140.765 362.500,140.993 362.500 C 141.220 362.500,141.406 362.303,141.406 362.062 C 141.406 361.753,141.574 361.763,141.975 362.095 C 142.288 362.355,142.692 362.476,142.873 362.364 C 143.053 362.252,143.446 362.312,143.746 362.497 C 144.079 362.703,144.707 362.618,145.368 362.276 C 146.519 361.681,149.400 361.500,149.064 362.044 C 148.953 362.223,149.118 362.370,149.431 362.370 C 149.744 362.370,150.000 362.247,150.000 362.097 C 150.000 361.947,150.747 361.968,151.660 362.145 C 153.858 362.570,154.218 362.563,153.516 362.109 C 153.019 361.789,153.038 361.730,153.640 361.725 C 154.160 361.720,154.286 361.519,154.112 360.970 C 153.981 360.559,154.069 360.102,154.307 359.955 C 154.549 359.805,154.708 359.919,154.667 360.215 C 154.404 362.136,154.652 362.487,156.213 362.395 C 157.051 362.345,157.665 362.187,157.577 362.044 C 157.488 361.900,158.032 361.832,158.786 361.892 C 159.764 361.969,160.156 361.841,160.156 361.443 C 160.156 361.045,159.905 360.962,159.277 361.155 C 158.794 361.304,158.529 361.287,158.689 361.119 C 159.084 360.702,161.347 360.591,161.093 361.001 C 160.735 361.581,161.997 361.348,162.500 360.742 C 163.028 360.106,164.453 359.936,164.453 360.510 C 164.453 360.705,164.818 360.769,165.264 360.652 C 165.813 360.509,166.050 360.615,165.999 360.982 C 165.837 362.140,166.049 362.490,166.895 362.467 C 167.378 362.454,168.828 362.611,170.117 362.816 C 171.406 363.022,172.549 363.139,172.656 363.078 C 172.764 363.017,173.818 362.847,175.000 362.701 C 176.182 362.555,177.303 362.287,177.491 362.106 C 177.679 361.924,178.261 361.938,178.783 362.137 C 179.404 362.373,179.649 362.363,179.491 362.108 C 179.359 361.894,179.427 361.719,179.641 361.719 C 179.856 361.719,180.141 361.895,180.273 362.109 C 180.406 362.324,180.724 362.486,180.980 362.469 C 181.316 362.447,181.309 362.383,180.957 362.241 C 180.245 361.954,180.360 361.499,181.152 361.472 C 182.724 361.419,185.522 361.002,186.005 360.750 C 186.290 360.601,186.120 360.809,185.627 361.212 C 185.134 361.614,184.856 362.069,185.008 362.222 C 185.433 362.646,187.500 362.553,187.500 362.109 C 187.500 361.587,189.304 361.612,190.307 362.148 C 190.891 362.461,191.037 362.461,190.844 362.148 C 190.693 361.904,190.851 361.719,191.211 361.719 C 191.559 361.719,191.752 361.865,191.642 362.044 C 191.531 362.223,192.004 362.384,192.693 362.400 C 193.382 362.417,195.396 362.539,197.168 362.671 C 199.125 362.817,200.391 362.764,200.391 362.537 C 200.391 362.303,200.856 362.297,201.644 362.523 C 202.493 362.767,203.318 362.730,204.204 362.410 C 205.035 362.109,205.610 362.075,205.783 362.316 C 206.110 362.772,209.533 362.790,211.035 362.344 C 211.776 362.124,212.109 362.166,212.109 362.481 C 212.109 362.738,212.315 362.809,212.582 362.645 C 212.842 362.484,213.808 362.399,214.730 362.456 C 215.860 362.525,216.406 362.401,216.406 362.074 C 216.406 361.807,216.522 361.704,216.663 361.846 C 216.805 361.987,217.160 361.904,217.452 361.661 C 217.855 361.326,218.154 361.374,218.690 361.860 C 219.079 362.212,219.549 362.500,219.734 362.500 C 219.920 362.500,219.730 362.242,219.313 361.926 C 218.571 361.365,218.573 361.353,219.401 361.341 C 219.867 361.334,220.336 361.548,220.444 361.816 C 220.602 362.207,220.648 362.207,220.672 361.816 C 220.717 361.115,222.266 361.210,222.266 361.914 C 222.266 362.608,222.883 362.690,223.279 362.049 C 223.452 361.770,223.387 361.704,223.107 361.877 C 222.859 362.030,222.656 361.980,222.656 361.765 C 222.656 361.104,223.430 360.855,223.656 361.443 C 223.777 361.759,224.279 361.952,224.825 361.893 C 225.351 361.835,225.781 361.948,225.781 362.144 C 225.781 362.340,226.045 362.500,226.367 362.500 C 226.689 362.500,226.953 362.314,226.953 362.086 C 226.953 361.859,226.750 361.798,226.502 361.951 C 226.222 362.124,226.157 362.058,226.331 361.778 C 226.607 361.330,228.502 361.564,228.906 362.096 C 229.014 362.237,229.490 362.348,229.965 362.343 C 230.782 362.333,230.794 362.293,230.172 361.606 C 229.644 361.023,229.628 360.905,230.089 361.006 C 230.405 361.076,230.896 361.484,231.179 361.914 C 231.558 362.488,231.640 362.518,231.491 362.028 C 231.309 361.433,231.637 361.365,234.491 361.408 C 237.933 361.459,238.670 361.623,237.835 362.152 C 237.422 362.414,237.456 362.489,237.988 362.494 C 238.364 362.497,238.672 362.368,238.673 362.207 C 238.674 362.046,239.294 361.901,240.051 361.884 C 240.840 361.867,241.221 361.982,240.943 362.154 C 240.677 362.319,241.199 362.420,242.103 362.379 C 243.008 362.338,243.748 362.173,243.749 362.012 C 243.750 361.851,244.233 361.721,244.824 361.725 C 245.431 361.728,245.703 361.856,245.449 362.018 C 245.202 362.176,248.229 362.324,252.176 362.348 C 256.124 362.371,259.260 362.239,259.146 362.055 C 259.032 361.870,259.564 361.719,260.329 361.719 C 261.144 361.719,261.719 361.526,261.719 361.253 C 261.719 360.998,261.958 361.115,262.249 361.514 C 262.825 362.301,264.453 362.739,264.453 362.107 C 264.453 361.631,265.325 361.768,265.711 362.305 C 265.893 362.559,266.269 362.523,266.785 362.204 C 267.307 361.880,267.578 361.856,267.578 362.132 C 267.578 362.383,267.913 362.446,268.408 362.289 C 268.945 362.119,269.149 362.171,268.985 362.436 C 268.812 362.716,269.640 362.786,271.572 362.656 C 273.135 362.551,275.077 362.462,275.887 362.458 C 276.702 362.454,277.259 362.288,277.133 362.085 C 277.009 361.884,277.093 361.719,277.321 361.719 C 277.548 361.719,277.734 361.901,277.734 362.123 C 277.734 362.394,277.999 362.386,278.536 362.098 C 278.977 361.862,279.636 361.748,280.001 361.844 C 280.467 361.967,280.398 362.032,279.770 362.064 C 279.025 362.102,278.960 362.201,279.379 362.654 C 279.717 363.019,280.099 363.083,280.541 362.849 C 281.447 362.368,283.984 362.409,283.984 362.904 C 283.984 363.177,284.220 363.182,284.706 362.923 C 285.207 362.655,285.582 362.680,285.935 363.007 C 286.337 363.379,286.377 363.362,286.129 362.927 C 285.890 362.507,286.011 362.428,286.639 362.592 C 287.092 362.711,287.545 362.607,287.647 362.361 C 287.768 362.068,287.943 362.049,288.154 362.305 C 288.331 362.520,289.844 362.719,291.515 362.749 C 294.237 362.796,294.501 362.738,294.054 362.185 C 293.669 361.710,293.667 361.636,294.043 361.862 C 294.312 362.023,294.531 361.969,294.531 361.742 C 294.531 361.514,294.702 361.328,294.910 361.328 C 295.118 361.328,295.196 361.568,295.083 361.862 C 294.927 362.268,295.375 362.410,296.951 362.456 C 300.261 362.551,302.489 362.487,303.191 362.274 C 304.633 361.838,305.478 361.779,305.261 362.130 C 305.135 362.333,305.325 362.500,305.683 362.500 C 306.133 362.500,306.260 362.289,306.096 361.816 C 305.869 361.165,305.883 361.165,306.390 361.816 C 306.997 362.596,307.619 362.751,307.175 362.012 C 306.991 361.707,307.140 361.734,307.572 362.084 C 307.976 362.412,308.372 362.493,308.526 362.280 C 308.889 361.775,310.547 361.639,310.547 362.114 C 310.547 362.326,311.030 362.482,311.621 362.461 L 312.695 362.422 311.719 362.109 C 311.129 361.921,311.000 361.781,311.393 361.758 C 311.751 361.736,312.133 361.499,312.241 361.230 C 312.393 360.855,312.445 360.860,312.469 361.254 C 312.486 361.535,312.676 361.656,312.891 361.523 C 313.105 361.391,313.281 361.526,313.281 361.825 C 313.281 362.432,317.409 362.699,317.770 362.116 C 317.880 361.937,317.574 361.865,317.090 361.955 C 316.607 362.045,316.432 362.013,316.702 361.885 C 316.972 361.757,317.105 361.511,316.999 361.339 C 316.726 360.897,318.071 361.051,318.609 361.523 C 318.942 361.816,318.942 361.986,318.609 362.201 C 318.282 362.412,318.288 362.490,318.629 362.494 C 318.885 362.497,319.203 362.324,319.336 362.109 C 319.469 361.895,319.787 361.721,320.043 361.725 C 320.322 361.728,320.274 361.882,319.922 362.109 C 319.487 362.390,319.719 362.490,320.824 362.494 C 321.902 362.498,322.236 362.366,322.036 362.012 C 321.816 361.621,321.866 361.621,322.286 362.012 C 323.003 362.676,323.462 362.627,323.188 361.914 C 322.907 361.182,323.406 361.181,324.370 361.911 C 324.923 362.330,325.302 362.366,325.882 362.055 C 326.440 361.757,326.583 361.761,326.391 362.070 C 326.240 362.315,326.398 362.500,326.758 362.500 C 327.159 362.500,327.283 362.322,327.097 362.012 C 326.877 361.646,326.960 361.650,327.429 362.031 C 327.808 362.337,328.147 362.389,328.288 362.162 C 328.416 361.955,328.300 361.696,328.030 361.588 C 327.721 361.463,327.780 361.378,328.190 361.359 C 328.548 361.342,328.930 361.548,329.038 361.816 C 329.196 362.207,329.241 362.207,329.266 361.816 C 329.311 361.112,330.078 361.213,330.078 361.923 C 330.078 362.444,330.200 362.438,331.055 361.878 C 331.916 361.314,332.173 361.374,332.105 362.126 C 332.062 362.596,333.573 362.410,334.003 361.892 C 334.256 361.587,334.607 361.426,334.783 361.534 C 334.959 361.643,335.213 361.553,335.348 361.334 C 335.483 361.116,335.758 360.937,335.961 360.937 C 336.507 360.938,336.406 362.016,335.840 362.219 C 335.571 362.316,335.908 362.377,336.587 362.355 C 337.267 362.333,337.738 362.179,337.634 362.011 C 337.531 361.843,337.282 361.807,337.082 361.931 C 336.882 362.054,336.719 361.950,336.719 361.699 C 336.719 361.408,337.071 361.332,337.695 361.489 C 338.352 361.653,338.674 361.571,338.678 361.238 C 338.682 360.888,338.789 360.909,339.043 361.309 C 339.240 361.621,339.315 362.017,339.209 362.188 C 339.103 362.360,339.422 362.486,339.918 362.469 C 340.414 362.452,340.601 362.350,340.332 362.241 C 339.771 362.015,339.664 360.938,340.202 360.938 C 340.399 360.937,340.634 361.157,340.724 361.426 C 340.854 361.812,341.018 361.808,341.505 361.405 C 342.028 360.974,342.161 361.019,342.376 361.698 C 342.654 362.574,343.356 362.796,343.365 362.012 C 343.370 361.636,343.440 361.632,343.671 361.995 C 343.903 362.360,344.314 362.348,345.498 361.941 C 346.740 361.514,347.286 361.508,348.415 361.906 C 349.271 362.207,350.142 362.270,350.684 362.070 C 351.223 361.870,351.563 361.894,351.563 362.131 C 351.562 362.344,351.994 362.235,352.522 361.889 C 353.050 361.544,353.692 361.391,353.949 361.550 C 354.215 361.714,354.316 361.675,354.182 361.458 C 353.762 360.779,357.404 358.316,357.979 358.890 C 358.125 359.036,358.143 358.890,358.018 358.566 C 357.815 358.036,359.780 355.323,360.190 355.568 C 360.279 355.621,360.307 355.590,360.253 355.500 C 360.199 355.410,360.405 355.059,360.712 354.719 C 361.907 353.393,363.014 349.500,362.969 346.775 C 362.937 344.796,363.046 344.188,363.396 344.399 C 363.760 344.617,363.762 344.551,363.408 344.113 C 363.038 343.655,362.702 319.159,362.923 308.789 C 362.982 306.011,362.858 288.649,362.759 285.820 C 362.693 283.929,362.739 282.320,362.862 282.244 C 362.985 282.168,363.071 278.046,363.053 273.084 C 363.031 266.849,363.151 264.061,363.444 264.057 C 363.712 264.053,363.696 263.942,363.402 263.755 C 363.076 263.547,362.959 262.025,363.011 258.682 C 363.052 256.055,362.929 253.854,362.737 253.790 C 362.545 253.726,362.595 253.286,362.848 252.813 C 363.212 252.134,363.203 251.951,362.807 251.941 C 362.482 251.933,362.544 251.747,362.982 251.414 C 363.355 251.131,363.531 250.770,363.373 250.612 C 362.997 250.237,362.926 231.616,363.301 231.848 C 363.459 231.946,363.462 231.456,363.308 230.759 C 363.089 229.769,363.087 215.146,363.304 198.438 C 363.314 197.686,363.322 193.032,363.322 188.096 C 363.322 182.190,363.464 179.035,363.736 178.866 C 364.020 178.691,364.008 178.563,363.699 178.459 C 363.450 178.377,363.246 177.960,363.244 177.533 C 363.209 165.309,363.440 157.030,363.816 157.025 C 364.087 157.022,364.057 156.892,363.741 156.691 C 363.321 156.425,363.338 156.249,363.835 155.752 C 364.237 155.350,364.296 155.091,364.006 154.994 C 363.221 154.733,363.222 145.007,364.007 144.498 C 364.585 144.123,364.581 144.103,363.965 144.294 C 363.114 144.559,363.050 143.646,363.864 142.833 C 364.184 142.512,364.300 142.192,364.121 142.121 C 363.942 142.050,363.680 141.377,363.539 140.625 C 363.359 139.665,363.397 139.433,363.666 139.844 C 363.898 140.197,364.053 140.245,364.057 139.964 C 364.060 139.709,363.884 139.389,363.666 139.254 C 363.447 139.119,363.352 138.874,363.454 138.709 C 363.654 138.384,363.713 137.142,363.713 133.203 C 363.713 131.807,363.748 129.668,363.790 128.451 C 363.833 127.233,363.779 126.243,363.672 126.251 C 362.999 126.298,362.762 126.118,363.162 125.863 C 363.702 125.520,364.520 122.266,364.067 122.266 C 363.451 122.266,363.291 120.510,363.867 120.079 C 364.183 119.842,364.362 119.571,364.266 119.475 C 364.049 119.257,363.644 116.397,363.500 114.063 C 363.441 113.096,363.261 111.711,363.100 110.986 C 362.939 110.261,362.958 109.761,363.142 109.875 C 363.326 109.989,363.412 109.269,363.333 108.275 C 363.203 106.647,363.251 106.520,363.821 106.993 C 364.169 107.281,364.453 107.339,364.453 107.121 C 364.453 106.903,364.217 106.633,363.927 106.522 C 363.539 106.374,363.412 105.444,363.439 102.965 C 363.460 101.119,363.357 99.609,363.210 99.609 C 363.063 99.609,363.018 98.599,363.108 97.363 C 363.199 96.128,363.285 94.796,363.299 94.404 C 363.319 93.871,363.451 93.795,363.824 94.105 C 364.189 94.408,364.323 94.369,364.323 93.961 C 364.323 93.654,364.156 93.437,363.952 93.479 C 363.377 93.596,362.729 88.818,363.274 88.481 C 363.564 88.302,363.441 86.556,363.043 85.193 C 362.857 84.558,362.906 84.338,363.193 84.516 C 363.427 84.660,363.745 84.573,363.901 84.321 C 364.062 84.060,364.015 83.968,363.791 84.106 C 363.565 84.246,363.385 83.859,363.366 83.190 C 363.348 82.553,363.481 82.031,363.661 82.031 C 363.842 82.031,363.903 81.636,363.797 81.152 C 363.642 80.446,363.686 80.389,364.023 80.859 C 364.281 81.221,364.443 81.267,364.447 80.980 C 364.450 80.724,364.277 80.406,364.063 80.273 C 363.511 79.933,363.576 77.993,364.160 77.365 C 364.551 76.944,364.551 76.894,364.160 77.114 C 363.838 77.296,363.672 77.116,363.672 76.586 C 363.672 76.143,363.854 75.781,364.076 75.781 C 364.355 75.781,364.355 75.546,364.076 75.026 C 363.808 74.524,363.800 73.933,364.053 73.268 C 364.262 72.717,364.283 72.266,364.098 72.266 C 363.685 72.266,363.349 71.075,363.574 70.408 C 363.664 70.138,363.917 70.027,364.135 70.162 C 364.378 70.312,364.366 70.097,364.103 69.607 C 363.868 69.167,363.671 68.135,363.666 67.314 C 363.662 66.492,363.617 65.293,363.567 64.648 C 363.508 63.883,363.646 63.510,363.965 63.574 C 364.233 63.628,364.453 63.496,364.453 63.281 C 364.453 63.066,364.301 62.891,364.115 62.891 C 363.688 62.891,363.266 57.403,363.640 56.721 C 363.793 56.442,363.807 55.349,363.671 54.291 C 363.457 52.621,363.501 52.430,364.003 52.844 C 364.502 53.255,364.519 53.203,364.126 52.467 C 363.541 51.368,363.551 51.053,364.160 51.419 C 364.537 51.645,364.546 51.584,364.200 51.149 C 363.953 50.839,363.809 49.741,363.880 48.708 C 363.974 47.348,363.855 46.771,363.450 46.616 C 363.142 46.497,362.891 46.233,362.891 46.029 C 362.891 45.824,363.039 45.749,363.220 45.860 C 363.610 46.102,362.978 41.718,362.579 41.418 C 362.428 41.304,362.305 40.956,362.305 40.645 C 362.305 39.229,359.055 37.500,356.392 37.500 C 354.977 37.500,353.957 37.344,354.079 37.146 C 354.199 36.951,353.936 36.886,353.493 37.002 C 352.901 37.157,352.631 36.992,352.470 36.380 C 352.351 35.922,352.087 35.547,351.885 35.547 C 351.682 35.547,351.614 35.704,351.733 35.897 C 351.851 36.089,351.686 36.347,351.365 36.470 C 351.044 36.593,350.781 36.561,350.781 36.398 C 350.781 36.235,349.683 36.044,348.340 35.972 C 346.997 35.901,345.459 35.813,344.922 35.777 C 344.385 35.742,343.989 35.499,344.043 35.239 C 344.161 34.666,343.887 34.619,343.555 35.156 M269.386 36.246 C 269.281 36.416,269.842 36.492,270.633 36.413 C 272.795 36.200,273.052 36.003,271.214 35.968 C 270.314 35.951,269.491 36.077,269.386 36.246 M118.574 41.374 C 118.297 41.823,116.406 41.799,116.406 41.347 C 116.406 41.093,118.369 40.694,118.691 40.883 C 118.767 40.928,118.714 41.148,118.574 41.374 M229.291 41.309 C 229.286 41.893,229.230 41.907,228.906 41.406 C 228.594 40.924,228.527 40.918,228.522 41.374 C 228.518 41.678,228.410 41.822,228.281 41.693 C 227.981 41.393,228.447 40.625,228.929 40.625 C 229.131 40.625,229.294 40.933,229.291 41.309 M123.768 43.157 C 123.852 43.582,123.738 43.741,123.469 43.574 C 123.230 43.426,123.135 43.142,123.259 42.942 C 123.382 42.742,123.199 42.578,122.852 42.578 C 122.450 42.578,122.326 42.756,122.513 43.066 C 122.715 43.402,122.601 43.388,122.150 43.022 C 121.788 42.729,121.585 42.341,121.696 42.160 C 122.021 41.635,123.619 42.403,123.768 43.157 M104.978 46.186 C 105.029 46.873,104.965 46.936,104.676 46.479 C 104.430 46.090,104.307 46.060,104.303 46.387 C 104.300 46.655,104.094 46.875,103.846 46.875 C 103.590 46.875,103.701 46.537,104.102 46.094 C 104.965 45.140,104.898 45.133,104.978 46.186 M92.188 47.776 C 93.029 47.948,93.006 47.967,92.022 47.914 C 91.378 47.879,90.812 47.596,90.723 47.266 C 90.618 46.874,90.673 46.829,90.888 47.129 C 91.066 47.375,91.650 47.667,92.188 47.776 M268.285 49.975 C 268.025 50.391,267.674 50.645,267.504 50.540 C 267.334 50.435,267.413 50.102,267.680 49.799 C 268.400 48.980,268.828 49.105,268.285 49.975 M98.465 53.125 C 98.665 53.125,98.828 53.408,98.828 53.753 C 98.828 54.247,99.058 54.321,99.902 54.097 C 101.535 53.664,128.972 53.568,129.909 53.992 C 130.424 54.225,131.767 54.196,133.620 53.913 C 135.217 53.668,136.743 53.475,137.012 53.484 C 138.864 53.543,139.453 53.655,139.453 53.947 C 139.453 54.131,140.429 54.198,141.623 54.097 C 142.816 53.995,143.703 54.057,143.593 54.235 C 143.483 54.412,143.642 54.557,143.945 54.557 C 144.249 54.557,144.416 54.427,144.318 54.268 C 144.094 53.905,147.950 53.641,149.460 53.916 C 150.079 54.029,151.806 53.978,153.298 53.803 C 154.838 53.622,156.737 53.640,157.693 53.843 C 158.618 54.041,159.375 54.080,159.375 53.931 C 159.375 53.781,161.001 53.640,162.988 53.617 C 164.976 53.594,166.865 53.546,167.188 53.510 C 167.510 53.474,170.322 53.451,173.438 53.458 C 176.553 53.465,179.497 53.467,179.980 53.462 C 180.464 53.458,182.134 53.469,183.691 53.487 C 185.249 53.505,187.227 53.409,188.086 53.273 C 189.817 52.998,189.783 52.998,193.359 53.230 C 194.756 53.321,197.359 53.422,199.144 53.455 C 201.625 53.501,202.321 53.631,202.097 54.004 C 201.865 54.389,201.927 54.392,202.386 54.021 C 203.043 53.489,212.269 53.248,215.332 53.682 C 216.386 53.831,217.188 53.791,217.188 53.587 C 217.188 53.384,217.854 53.352,218.739 53.514 C 219.593 53.670,220.205 53.658,220.100 53.488 C 219.995 53.318,220.076 53.076,220.279 52.950 C 220.483 52.825,220.755 52.893,220.884 53.102 C 221.013 53.311,221.379 53.382,221.697 53.260 C 222.015 53.137,222.493 53.201,222.759 53.401 C 223.498 53.958,228.909 53.752,229.279 53.153 C 229.482 52.825,229.677 52.791,229.841 53.057 C 230.173 53.595,232.420 53.517,232.428 52.968 C 232.431 52.719,232.569 52.753,232.757 53.048 C 232.981 53.402,233.903 53.530,235.778 53.467 C 238.082 53.389,240.079 53.404,243.457 53.524 C 243.833 53.537,244.536 53.561,245.020 53.576 C 245.503 53.592,248.184 53.572,250.977 53.531 C 257.292 53.440,257.509 53.449,257.287 53.809 C 257.187 53.970,257.748 54.075,258.533 54.043 C 261.348 53.927,266.224 53.482,266.895 53.279 C 267.271 53.165,267.578 53.224,267.578 53.409 C 267.578 53.594,268.589 53.675,269.824 53.589 C 271.060 53.503,273.753 53.447,275.809 53.466 C 278.626 53.491,280.069 53.309,281.663 52.726 C 284.191 51.802,284.527 51.776,284.239 52.525 C 284.004 53.138,285.132 53.412,288.080 53.457 C 288.936 53.470,289.698 53.665,289.774 53.891 C 289.849 54.117,290.061 54.209,290.244 54.096 C 290.912 53.683,300.584 53.590,301.074 53.992 C 301.420 54.276,301.563 54.242,301.563 53.876 C 301.563 53.474,301.667 53.464,302.031 53.828 C 302.598 54.395,303.268 54.453,302.930 53.906 C 302.567 53.319,304.812 53.247,311.719 53.624 C 314.189 53.759,317.046 53.730,318.066 53.559 C 319.632 53.297,319.923 53.346,319.928 53.871 C 319.933 54.415,319.981 54.419,320.313 53.906 C 320.553 53.534,320.693 53.495,320.697 53.797 C 320.701 54.131,321.185 54.207,322.314 54.049 C 323.552 53.875,323.855 53.937,323.621 54.316 C 323.422 54.638,323.475 54.711,323.774 54.526 C 324.026 54.370,324.139 54.093,324.025 53.909 C 323.912 53.726,324.744 53.570,325.874 53.562 C 327.005 53.555,328.457 53.515,329.102 53.473 C 331.029 53.348,331.705 53.486,331.421 53.945 C 331.228 54.258,331.375 54.258,331.958 53.945 C 332.400 53.709,333.476 53.516,334.349 53.516 C 335.343 53.516,335.949 53.333,335.968 53.027 C 335.993 52.639,336.040 52.640,336.197 53.030 C 336.306 53.300,336.556 53.421,336.752 53.300 C 336.949 53.178,337.296 53.194,337.524 53.335 C 337.751 53.476,338.773 53.636,339.793 53.691 C 340.813 53.746,342.121 54.101,342.699 54.479 C 343.277 54.858,343.750 55.047,343.750 54.900 C 343.750 54.752,344.022 54.904,344.355 55.237 C 344.688 55.570,345.334 56.103,345.790 56.423 C 346.545 56.952,346.624 57.397,346.677 61.389 C 346.717 64.361,346.884 65.823,347.196 65.927 C 347.449 66.012,347.656 66.252,347.656 66.462 C 347.656 66.671,347.480 66.734,347.266 66.602 C 347.051 66.469,346.875 66.634,346.875 66.969 C 346.875 67.304,347.095 67.592,347.363 67.609 C 347.750 67.633,347.751 67.681,347.366 67.836 C 347.028 67.973,346.994 68.243,347.255 68.730 C 347.461 69.114,347.549 69.508,347.452 69.605 C 346.970 70.087,346.879 73.091,347.355 72.805 C 347.741 72.573,347.738 72.647,347.343 73.134 C 346.910 73.669,346.956 73.801,347.656 74.023 C 348.314 74.232,348.387 74.395,348.020 74.838 C 347.666 75.264,347.672 75.391,348.047 75.391 C 348.435 75.391,348.435 75.509,348.047 75.977 C 347.779 76.299,347.714 76.568,347.901 76.575 C 348.089 76.583,347.854 76.912,347.380 77.308 C 346.906 77.704,346.626 78.137,346.759 78.270 C 346.892 78.403,347.027 79.970,347.060 81.752 C 347.092 83.534,347.262 85.225,347.437 85.509 C 347.616 85.799,347.582 86.134,347.359 86.274 C 346.865 86.584,347.070 90.113,347.620 90.776 C 347.898 91.112,347.894 91.733,347.606 92.776 C 347.356 93.680,347.296 95.440,347.455 97.145 C 347.624 98.942,347.580 100.000,347.338 100.000 C 347.126 100.000,346.979 100.864,347.011 101.920 C 347.044 102.976,347.246 103.811,347.461 103.776 C 347.676 103.740,347.784 103.975,347.700 104.297 C 347.617 104.619,347.521 105.150,347.487 105.476 C 347.452 105.802,347.273 106.312,347.089 106.610 C 346.873 106.960,346.900 107.062,347.167 106.897 C 347.428 106.736,347.565 107.135,347.541 107.984 C 347.517 108.812,347.345 109.232,347.091 109.080 C 346.865 108.945,346.907 109.116,347.186 109.459 C 347.709 110.105,347.730 113.281,347.212 113.281 C 347.051 113.281,347.027 113.677,347.157 114.160 C 347.636 115.936,347.627 122.042,347.145 122.348 C 346.845 122.539,346.831 122.646,347.106 122.650 C 347.518 122.656,347.564 126.270,347.195 129.785 C 347.111 130.591,347.191 131.250,347.372 131.250 C 347.554 131.250,347.594 131.426,347.461 131.641 C 347.328 131.855,347.381 132.031,347.579 132.031 C 347.777 132.031,347.855 132.469,347.753 133.003 C 347.651 133.538,347.427 133.889,347.255 133.783 C 346.921 133.576,346.988 134.203,347.402 135.156 C 347.542 135.479,347.519 136.885,347.350 138.281 C 347.003 141.160,347.048 152.623,347.410 153.516 C 347.541 153.838,347.405 154.796,347.109 155.645 C 346.813 156.493,346.652 157.636,346.753 158.184 C 346.853 158.732,346.974 159.975,347.023 160.948 C 347.072 161.920,347.261 162.958,347.444 163.254 C 347.688 163.649,347.630 163.709,347.228 163.480 C 346.805 163.238,346.783 163.278,347.129 163.654 C 347.414 163.963,347.466 164.536,347.270 165.218 C 347.101 165.809,347.048 166.745,347.154 167.297 C 347.259 167.849,347.136 168.936,346.880 169.712 C 346.513 170.824,346.518 171.249,346.903 171.714 C 347.210 172.084,347.351 173.205,347.281 174.726 C 347.220 176.058,347.119 179.434,347.057 182.227 C 346.994 185.020,346.914 187.568,346.878 187.891 C 346.843 188.213,346.912 189.268,347.033 190.234 C 347.153 191.201,347.235 193.135,347.214 194.531 C 347.095 202.469,347.057 203.021,346.642 202.861 C 346.109 202.657,346.747 207.367,347.352 208.105 C 347.627 208.441,347.613 208.761,347.307 209.130 C 347.062 209.425,346.971 209.953,347.105 210.302 C 347.239 210.652,347.199 210.938,347.014 210.938 C 346.830 210.939,346.643 211.466,346.598 212.110 C 346.549 212.808,346.707 213.284,346.988 213.287 C 347.295 213.291,347.264 213.418,346.900 213.648 C 346.435 213.942,346.427 214.108,346.850 214.619 C 347.209 215.051,347.227 215.234,346.909 215.234 C 346.610 215.234,346.571 215.465,346.796 215.918 C 347.186 216.705,347.186 222.258,346.796 222.870 C 346.653 223.095,346.697 223.535,346.895 223.847 C 347.386 224.624,347.370 227.064,346.875 226.758 C 346.660 226.625,346.484 226.703,346.484 226.930 C 346.484 227.158,346.616 227.344,346.777 227.344 C 347.022 227.344,347.119 243.523,346.881 244.727 C 346.839 244.941,346.847 246.787,346.898 248.828 C 347.009 253.182,347.009 253.492,346.901 256.055 C 346.856 257.129,346.918 258.848,347.038 259.875 C 347.172 261.012,347.077 262.031,346.796 262.481 C 346.461 263.017,346.445 263.581,346.737 264.533 C 346.959 265.255,347.020 266.188,346.874 266.606 C 346.727 267.024,346.737 267.942,346.896 268.646 C 347.054 269.350,347.024 270.025,346.828 270.146 C 346.632 270.267,346.582 270.545,346.717 270.764 C 346.852 270.983,346.927 275.673,346.884 281.186 C 346.841 286.700,346.813 291.826,346.823 292.578 C 346.951 302.201,346.869 305.666,346.510 305.786 C 346.271 305.865,346.365 306.186,346.735 306.557 C 347.126 306.948,347.208 307.246,346.947 307.333 C 346.673 307.424,346.642 307.787,346.860 308.359 C 347.045 308.846,347.068 309.454,346.910 309.709 C 346.370 310.584,346.407 318.380,346.954 319.056 C 347.372 319.572,347.370 319.626,346.939 319.367 C 346.556 319.137,346.437 319.299,346.494 319.976 C 346.536 320.483,346.544 321.074,346.512 321.289 C 346.458 321.640,346.293 329.325,346.158 337.695 C 346.124 339.820,345.989 340.639,345.737 340.255 C 345.444 339.807,345.310 339.912,345.099 340.754 C 344.880 341.626,344.731 341.734,344.269 341.351 C 343.825 340.983,343.731 340.994,343.826 341.403 C 343.891 341.689,343.506 342.053,342.969 342.212 C 342.150 342.454,342.118 342.511,342.773 342.566 C 343.508 342.627,343.502 342.656,342.676 343.055 C 342.192 343.288,341.791 343.672,341.784 343.907 C 341.778 344.143,341.514 343.995,341.199 343.578 C 340.665 342.872,340.625 342.868,340.625 343.526 C 340.625 344.065,340.398 344.188,339.662 344.048 C 339.132 343.946,338.637 344.050,338.561 344.277 C 338.403 344.753,334.153 343.892,333.226 343.196 C 332.801 342.877,332.734 342.893,332.956 343.262 C 333.168 343.615,332.872 343.750,331.882 343.750 C 331.130 343.750,330.404 343.571,330.269 343.353 C 330.135 343.135,329.835 343.073,329.605 343.215 C 328.458 343.924,322.238 343.723,321.468 342.952 C 320.867 342.352,320.703 342.313,320.703 342.773 C 320.703 343.096,320.527 343.359,320.313 343.359 C 320.098 343.359,319.922 343.184,319.922 342.969 C 319.922 342.754,319.736 342.578,319.508 342.578 C 319.281 342.578,319.192 342.735,319.311 342.928 C 319.489 343.217,318.856 343.690,317.969 343.931 C 317.861 343.960,317.347 344.128,316.827 344.305 C 316.126 344.543,315.756 344.458,315.405 343.978 C 314.987 343.406,314.862 343.397,314.354 343.905 C 313.924 344.335,313.665 344.368,313.334 344.037 C 313.003 343.706,312.891 343.713,312.891 344.063 C 312.891 344.320,312.704 344.531,312.477 344.531 C 312.249 344.531,312.159 344.376,312.276 344.187 C 312.393 343.998,311.085 343.866,309.369 343.894 C 307.654 343.922,306.250 343.795,306.250 343.611 C 306.250 343.426,305.986 343.377,305.664 343.501 C 305.342 343.624,305.075 343.511,305.072 343.249 C 305.068 342.896,304.992 342.890,304.778 343.226 C 304.432 343.770,302.267 343.727,301.861 343.169 C 301.681 342.920,301.572 342.955,301.568 343.262 C 301.565 343.530,301.299 343.750,300.977 343.750 C 300.654 343.750,300.388 343.970,300.385 344.238 C 300.381 344.564,300.252 344.531,300.000 344.141 C 299.777 343.796,299.619 343.745,299.615 344.016 C 299.611 344.330,299.269 344.382,298.535 344.177 C 297.944 344.013,296.890 343.947,296.191 344.031 C 295.493 344.115,294.922 344.015,294.922 343.809 C 294.922 343.595,294.230 343.527,293.310 343.650 C 292.027 343.822,291.619 343.725,291.311 343.175 C 291.032 342.677,290.844 342.615,290.634 342.954 C 290.338 343.434,287.058 343.615,286.370 343.190 C 286.162 343.061,285.885 343.128,285.755 343.338 C 285.605 343.581,285.170 343.587,284.556 343.354 C 284.027 343.153,283.594 343.137,283.594 343.319 C 283.594 343.501,281.708 343.662,279.402 343.676 C 276.819 343.693,275.158 343.862,275.073 344.117 C 274.905 344.620,273.828 344.674,273.828 344.180 C 273.828 343.986,272.534 343.840,270.953 343.855 C 268.584 343.877,268.085 343.991,268.121 344.500 C 268.153 344.963,267.824 345.103,266.797 345.058 C 266.045 345.026,264.752 344.982,263.923 344.961 C 262.787 344.931,262.469 344.785,262.631 344.364 C 262.801 343.919,262.392 343.809,260.622 343.823 C 259.399 343.833,258.618 343.923,258.887 344.023 C 259.568 344.278,259.498 344.922,258.789 344.922 C 258.467 344.922,258.200 344.702,258.197 344.434 C 258.193 344.103,258.074 344.131,257.828 344.520 C 257.516 345.013,257.427 344.999,257.206 344.423 C 256.936 343.719,255.859 343.478,255.859 344.121 C 255.859 344.325,255.224 344.226,254.447 343.901 C 253.670 343.576,252.791 343.404,252.493 343.518 C 252.196 343.632,251.950 343.511,251.947 343.249 C 251.943 342.935,251.820 342.964,251.586 343.334 C 251.302 343.784,251.116 343.799,250.650 343.413 C 250.331 343.148,249.974 343.086,249.857 343.275 C 249.740 343.465,249.107 343.541,248.451 343.445 C 247.795 343.348,247.004 343.481,246.693 343.739 C 246.382 343.997,245.925 344.082,245.677 343.929 C 245.428 343.775,245.072 343.892,244.884 344.188 C 244.634 344.583,244.542 344.480,244.537 343.800 C 244.532 343.033,244.433 342.955,243.962 343.345 C 243.639 343.613,243.175 343.681,242.888 343.501 C 242.104 343.010,241.258 343.107,240.722 343.750 C 240.292 344.264,240.259 344.259,240.451 343.703 C 240.695 342.997,239.653 342.408,238.941 342.848 C 238.698 342.999,237.796 343.161,236.936 343.210 C 236.076 343.258,235.309 343.488,235.232 343.719 C 234.964 344.522,234.024 344.167,234.186 343.325 C 234.299 342.738,234.211 342.608,233.871 342.860 C 233.611 343.054,233.135 343.190,232.813 343.162 C 232.490 343.135,231.908 343.268,231.518 343.458 C 231.051 343.686,230.593 343.629,230.173 343.289 C 229.710 342.913,229.617 342.906,229.831 343.262 C 230.222 343.913,228.838 343.916,228.187 343.265 C 227.877 342.955,227.602 342.920,227.425 343.167 C 227.190 343.497,224.493 343.623,223.242 343.363 C 223.027 343.319,222.412 343.256,221.875 343.223 C 221.338 343.191,220.940 342.951,220.991 342.690 C 221.045 342.417,220.839 342.310,220.505 342.438 C 220.187 342.560,220.024 342.817,220.142 343.010 C 220.326 343.307,218.761 343.475,215.918 343.464 C 215.542 343.462,215.234 343.616,215.234 343.805 C 215.234 344.313,211.561 343.863,211.385 343.333 C 211.291 343.052,211.140 343.027,210.988 343.266 C 210.853 343.478,210.149 343.781,209.424 343.938 C 208.411 344.158,208.176 344.110,208.410 343.731 C 208.616 343.399,208.557 343.336,208.229 343.539 C 207.416 344.041,202.329 344.092,202.626 343.595 C 202.768 343.358,202.574 343.416,202.194 343.725 C 201.593 344.212,201.456 344.212,201.148 343.725 C 200.953 343.416,200.790 343.340,200.786 343.555 C 200.777 344.031,197.378 344.248,197.095 343.790 C 196.856 343.404,194.999 343.700,194.708 344.170 C 194.597 344.350,194.249 344.398,193.935 344.278 C 193.621 344.157,193.434 343.945,193.519 343.807 C 193.605 343.668,192.652 343.552,191.402 343.548 C 190.151 343.544,189.212 343.676,189.314 343.841 C 189.416 344.006,189.137 344.141,188.695 344.141 C 188.253 344.141,187.891 343.954,187.891 343.727 C 187.891 343.499,188.094 343.439,188.342 343.592 C 188.621 343.765,188.687 343.699,188.513 343.419 C 188.324 343.112,188.009 343.087,187.536 343.340 C 187.062 343.594,186.686 343.563,186.365 343.243 C 185.995 342.876,185.943 342.909,186.127 343.394 C 186.322 343.905,186.066 344.009,184.686 343.980 C 183.486 343.955,183.038 344.093,183.115 344.463 C 183.174 344.747,183.042 344.869,182.822 344.733 C 182.602 344.596,182.422 344.134,182.422 343.704 C 182.422 343.274,182.246 343.031,182.031 343.164 C 181.816 343.297,181.638 343.175,181.635 342.894 C 181.630 342.522,181.529 342.541,181.260 342.965 C 180.852 343.612,180.878 343.607,177.418 343.691 C 175.647 343.733,175.033 343.879,175.236 344.207 C 175.426 344.514,175.306 344.582,174.869 344.415 C 174.511 344.277,174.219 344.335,174.219 344.544 C 174.219 344.752,173.955 344.922,173.633 344.922 C 173.311 344.922,173.047 344.658,173.047 344.336 C 173.047 344.014,172.871 343.750,172.656 343.750 C 172.441 343.750,172.264 343.970,172.263 344.238 C 172.261 344.544,171.605 344.756,170.505 344.806 C 168.852 344.881,168.159 344.444,169.238 344.009 C 169.507 343.900,169.145 343.798,168.434 343.781 C 167.652 343.762,167.238 343.907,167.387 344.147 C 167.522 344.365,167.796 344.443,167.996 344.319 C 168.196 344.196,168.359 344.281,168.359 344.508 C 168.359 345.156,167.766 344.996,166.990 344.138 C 166.600 343.707,166.193 343.442,166.087 343.549 C 165.980 343.656,165.656 343.547,165.368 343.308 C 165.041 343.037,164.844 343.022,164.844 343.268 C 164.844 343.511,163.675 343.618,161.816 343.546 C 159.818 343.469,158.391 343.615,157.617 343.975 C 156.428 344.529,153.832 344.580,154.163 344.043 C 154.262 343.882,153.981 343.750,153.539 343.750 C 153.096 343.750,152.720 343.970,152.704 344.238 C 152.680 344.612,152.625 344.608,152.470 344.222 C 152.310 343.822,152.149 343.816,151.690 344.197 C 151.317 344.506,151.019 344.538,150.849 344.286 C 150.704 344.071,149.813 343.854,148.868 343.803 C 147.923 343.753,147.044 343.692,146.915 343.669 C 146.786 343.645,146.386 343.755,146.027 343.913 C 145.667 344.071,144.967 343.983,144.470 343.717 C 143.270 343.075,139.844 342.822,139.844 343.375 C 139.844 343.607,139.668 343.687,139.453 343.555 C 139.238 343.422,139.063 343.489,139.063 343.705 C 139.063 343.920,138.667 344.000,138.184 343.883 C 137.700 343.767,136.936 343.645,136.486 343.613 C 136.035 343.581,135.342 343.291,134.946 342.969 C 134.532 342.632,134.350 342.591,134.518 342.871 C 134.707 343.185,134.559 343.381,134.105 343.420 C 131.201 343.669,130.078 343.660,130.078 343.386 C 130.078 343.078,126.610 343.572,126.250 343.932 C 126.151 344.032,125.755 343.945,125.371 343.739 C 124.987 343.534,124.614 343.518,124.543 343.704 C 124.472 343.890,123.623 343.840,122.656 343.594 C 121.689 343.347,120.233 343.255,119.420 343.388 C 118.607 343.522,117.848 343.479,117.733 343.294 C 117.618 343.108,117.358 343.059,117.154 343.185 C 116.951 343.310,116.867 343.547,116.968 343.710 C 117.193 344.076,115.745 344.001,115.373 343.628 C 114.933 343.188,114.385 343.324,114.679 343.799 C 114.865 344.101,114.760 344.132,114.342 343.897 C 113.639 343.501,108.504 343.680,108.759 344.091 C 108.852 344.242,108.492 344.402,107.958 344.446 C 107.419 344.490,107.092 344.359,107.221 344.150 C 107.365 343.916,105.983 343.806,103.571 343.859 C 101.370 343.908,99.782 344.099,99.905 344.300 C 100.026 344.498,99.750 344.541,99.280 344.397 C 97.408 343.827,96.602 343.697,97.461 344.105 C 98.106 344.412,98.127 344.481,97.582 344.504 C 97.218 344.519,96.814 344.358,96.683 344.147 C 96.450 343.770,96.050 343.721,93.429 343.752 C 92.489 343.763,92.209 343.630,92.412 343.270 C 92.637 342.872,92.588 342.870,92.167 343.262 C 91.435 343.941,91.018 343.871,91.004 343.066 C 90.993 342.428,90.964 342.430,90.582 343.088 C 90.294 343.582,90.030 343.676,89.701 343.403 C 89.431 343.179,89.003 343.155,88.694 343.346 C 88.399 343.528,87.892 343.576,87.569 343.452 C 87.231 343.322,87.084 343.393,87.224 343.619 C 87.381 343.874,86.859 343.920,85.737 343.749 C 84.785 343.605,83.955 343.643,83.891 343.835 C 83.725 344.332,79.315 344.877,79.041 344.434 C 78.912 344.224,78.673 344.218,78.472 344.419 C 78.281 344.609,77.466 344.687,76.660 344.592 C 75.466 344.451,75.340 344.362,75.977 344.112 C 76.533 343.893,76.225 343.797,74.902 343.777 C 73.667 343.759,73.045 343.913,73.041 344.238 C 73.037 344.545,72.928 344.579,72.748 344.331 C 72.448 343.918,69.888 343.770,70.142 344.180 C 70.221 344.309,69.220 344.447,67.917 344.486 C 66.613 344.525,65.433 344.572,65.293 344.591 C 65.153 344.609,64.512 344.582,63.867 344.531 L 62.695 344.439 63.867 344.141 C 64.711 343.926,64.220 343.842,62.109 343.842 C 59.999 343.842,59.507 343.926,60.352 344.141 C 61.331 344.390,61.170 344.445,59.375 344.479 C 57.857 344.507,57.398 344.408,57.813 344.141 C 58.288 343.834,58.235 343.761,57.532 343.756 C 56.921 343.752,56.731 343.923,56.890 344.336 C 57.014 344.658,56.920 344.922,56.682 344.922 C 56.445 344.922,56.247 344.614,56.244 344.238 C 56.239 343.695,56.168 343.666,55.895 344.096 C 55.650 344.483,55.235 344.548,54.436 344.325 C 53.823 344.153,53.209 344.034,53.074 344.061 C 51.988 344.275,50.941 341.283,51.546 339.693 C 51.799 339.026,51.788 338.616,51.514 338.446 C 51.288 338.307,51.191 337.861,51.297 337.456 C 51.403 337.050,51.349 336.719,51.177 336.719 C 50.740 336.719,50.766 330.524,51.204 330.253 C 51.401 330.132,51.560 329.823,51.557 329.567 C 51.553 329.287,51.399 329.335,51.172 329.688 C 50.907 330.097,50.791 330.123,50.787 329.773 C 50.784 329.498,51.064 329.164,51.410 329.031 C 51.981 328.812,51.982 328.758,51.421 328.444 C 50.928 328.168,50.833 327.555,50.947 325.379 C 51.026 323.883,50.952 322.045,50.782 321.293 C 50.613 320.542,50.614 320.014,50.786 320.120 C 50.957 320.226,51.053 319.566,50.998 318.653 C 50.943 317.739,51.091 316.739,51.328 316.429 C 51.645 316.013,51.641 315.936,51.310 316.134 C 50.871 316.397,50.926 309.928,51.373 308.671 C 51.472 308.391,51.424 308.242,51.265 308.339 C 51.106 308.436,50.966 306.863,50.954 304.844 C 50.941 302.824,51.047 301.172,51.189 301.172 C 51.332 301.172,51.361 300.267,51.255 299.162 C 51.098 297.530,51.164 297.204,51.605 297.433 C 51.991 297.632,51.978 297.564,51.563 297.197 C 50.918 296.628,50.680 278.439,51.303 277.441 C 51.476 277.166,51.428 276.953,51.195 276.953 C 50.479 276.953,50.746 275.782,51.465 275.769 C 52.101 275.757,52.103 275.722,51.493 275.258 C 50.684 274.643,50.360 270.314,51.060 269.471 C 51.333 269.142,51.384 268.702,51.186 268.382 C 51.003 268.086,50.944 267.609,51.054 267.321 C 51.165 267.033,51.027 266.797,50.748 266.797 C 50.447 266.797,50.549 266.565,51.000 266.223 C 51.498 265.847,51.576 265.646,51.228 265.637 C 50.877 265.629,50.793 265.394,50.981 264.941 C 51.293 264.189,51.296 264.122,51.076 262.012 C 50.969 260.983,51.077 260.547,51.438 260.547 C 51.721 260.547,51.950 260.239,51.947 259.863 C 51.942 259.279,51.886 259.265,51.563 259.766 C 51.125 260.443,51.168 261.050,51.030 252.246 C 50.977 248.862,51.032 246.094,51.151 246.093 C 51.517 246.093,51.515 243.971,51.148 243.527 C 50.630 242.901,50.897 240.666,51.518 240.427 C 51.963 240.255,51.945 240.092,51.420 239.511 C 51.068 239.122,50.875 238.709,50.991 238.593 C 51.107 238.477,51.170 236.030,51.132 233.156 C 50.935 218.384,50.971 212.631,51.265 212.012 C 51.462 211.598,51.434 211.328,51.196 211.328 C 50.786 211.328,50.955 204.573,51.383 203.881 C 51.507 203.680,51.454 203.516,51.265 203.516 C 51.076 203.516,50.949 202.813,50.984 201.953 C 51.084 199.447,51.150 199.159,51.563 199.414 C 51.777 199.547,51.953 199.469,51.953 199.242 C 51.953 199.014,51.807 198.828,51.628 198.828 C 51.449 198.828,51.282 198.608,51.258 198.340 C 51.234 198.071,51.093 197.104,50.946 196.191 C 50.791 195.227,50.832 194.531,51.045 194.531 C 51.247 194.531,51.364 193.960,51.305 193.262 C 51.246 192.563,51.194 191.289,51.189 190.430 C 51.184 189.570,51.160 188.428,51.135 187.891 C 51.039 185.816,51.066 185.305,51.353 183.887 C 51.516 183.081,51.498 182.422,51.313 182.422 C 51.128 182.422,51.022 180.796,51.077 178.809 C 51.133 176.821,51.198 172.166,51.221 168.463 C 51.245 164.688,51.416 161.823,51.609 161.943 C 51.798 162.060,51.953 161.871,51.953 161.523 C 51.953 161.176,51.777 161.000,51.563 161.133 C 50.998 161.482,51.070 158.461,51.641 157.891 C 51.931 157.600,51.953 157.422,51.699 157.422 C 51.455 157.422,51.285 156.394,51.280 154.891 C 51.275 153.258,51.415 152.448,51.673 152.607 C 51.931 152.767,51.950 152.660,51.725 152.306 C 51.208 151.493,51.150 146.034,51.661 146.350 C 51.931 146.517,51.954 146.414,51.730 146.056 C 51.199 145.209,51.186 133.562,51.716 133.858 C 52.013 134.023,52.009 133.948,51.705 133.618 C 51.204 133.074,51.449 131.641,52.044 131.641 C 52.258 131.641,52.163 131.228,51.832 130.723 C 51.399 130.062,51.273 129.105,51.382 127.305 C 51.574 124.142,51.579 124.921,51.321 118.555 C 50.987 110.311,50.921 101.522,51.192 101.355 C 51.324 101.273,51.354 100.671,51.258 100.017 C 51.148 99.269,51.253 98.828,51.541 98.828 C 51.793 98.828,51.891 98.654,51.759 98.440 C 51.218 97.565,51.134 94.796,51.638 94.476 C 52.028 94.229,52.034 94.151,51.660 94.147 C 51.362 94.143,51.172 93.599,51.172 92.750 C 51.172 91.923,51.330 91.458,51.563 91.602 C 51.777 91.734,51.953 91.657,51.953 91.429 C 51.953 91.202,51.777 91.016,51.563 91.016 C 50.985 91.016,51.072 85.811,51.660 85.177 C 51.946 84.869,51.964 84.754,51.705 84.899 C 51.121 85.226,50.766 83.375,51.308 82.833 C 51.595 82.545,51.570 82.422,51.224 82.422 C 50.911 82.422,50.817 82.142,50.970 81.662 C 51.103 81.243,51.259 77.762,51.316 73.926 C 51.374 70.089,51.552 66.740,51.710 66.483 C 51.871 66.223,51.799 66.016,51.549 66.016 C 51.229 66.016,51.129 64.741,51.204 61.621 C 51.314 57.082,51.593 55.859,52.520 55.859 C 52.817 55.859,53.124 55.667,53.202 55.433 C 53.280 55.198,53.805 54.978,54.369 54.944 C 54.933 54.911,55.294 54.721,55.172 54.523 C 55.050 54.326,55.242 54.276,55.600 54.414 C 55.957 54.551,56.250 54.522,56.250 54.350 C 56.250 53.992,56.061 54.017,60.821 53.750 C 64.085 53.567,64.396 53.610,64.202 54.216 C 64.036 54.737,64.073 54.765,64.373 54.344 C 64.584 54.048,64.952 53.927,65.191 54.075 C 65.430 54.222,65.625 54.201,65.625 54.027 C 65.625 53.403,77.154 53.655,77.944 54.297 C 78.341 54.619,78.539 54.672,78.384 54.414 C 77.962 53.710,79.915 53.507,86.328 53.591 C 89.443 53.632,93.047 53.601,94.336 53.522 C 95.625 53.443,97.119 53.521,97.656 53.694 C 98.584 53.994,98.601 53.973,98.000 53.275 C 97.652 52.870,97.472 52.275,97.599 51.953 C 97.767 51.528,97.868 51.608,97.966 52.246 C 98.040 52.729,98.265 53.125,98.465 53.125 M163.728 54.254 C 163.353 54.491,163.494 54.590,164.209 54.590 C 164.765 54.590,165.125 54.436,165.009 54.248 C 164.746 53.822,164.407 53.823,163.728 54.254 M350.053 69.893 C 350.477 69.666,351.035 69.566,351.291 69.670 C 351.548 69.775,351.417 69.874,351.000 69.891 C 350.249 69.922,350.249 69.928,351.000 70.513 C 351.417 70.839,351.550 71.059,351.297 71.002 C 351.044 70.945,350.587 71.233,350.283 71.641 C 349.900 72.154,349.643 72.245,349.451 71.934 C 349.298 71.687,349.359 71.484,349.586 71.484 C 349.814 71.484,350.000 71.309,350.000 71.094 C 350.000 70.879,349.648 70.703,349.219 70.703 C 348.426 70.703,348.204 70.285,348.722 69.767 C 348.879 69.611,349.069 69.668,349.144 69.894 C 349.241 70.183,349.513 70.183,350.053 69.893 M346.887 75.996 C 346.897 77.006,346.950 77.059,347.318 76.427 C 347.618 75.910,347.615 75.584,347.306 75.275 C 346.992 74.960,346.878 75.156,346.887 75.996 M274.727 180.618 C 274.388 181.021,273.579 181.138,271.797 181.041 C 270.443 180.968,268.105 181.142,266.602 181.429 C 265.098 181.716,263.750 181.880,263.608 181.793 C 263.465 181.707,263.289 181.778,263.217 181.951 C 263.006 182.459,257.095 184.070,256.590 183.758 C 256.301 183.579,256.233 183.641,256.408 183.924 C 256.561 184.172,256.483 184.375,256.234 184.375 C 255.986 184.375,255.228 184.620,254.551 184.919 C 253.034 185.589,249.581 186.752,248.943 186.808 C 248.684 186.830,248.562 186.995,248.673 187.174 C 248.875 187.501,248.055 187.650,246.777 187.520 C 246.401 187.482,246.094 187.648,246.094 187.889 C 246.094 188.136,246.307 188.199,246.582 188.034 C 246.914 187.835,246.898 187.952,246.534 188.402 C 246.239 188.765,245.760 189.063,245.469 189.063 C 245.178 189.063,244.660 189.490,244.318 190.011 C 243.930 190.603,243.415 190.906,242.950 190.817 C 242.540 190.738,242.085 190.865,241.940 191.100 C 241.782 191.356,241.857 191.415,242.127 191.248 C 242.375 191.095,242.578 191.085,242.578 191.226 C 242.578 191.587,240.221 193.750,239.829 193.750 C 239.651 193.750,239.397 194.093,239.264 194.511 C 239.117 194.975,238.800 195.187,238.452 195.054 C 238.076 194.909,237.953 195.021,238.092 195.382 C 238.207 195.683,237.722 196.625,237.012 197.476 C 236.303 198.327,235.377 199.727,234.953 200.586 C 234.530 201.445,233.885 202.600,233.521 203.153 C 233.157 203.705,232.652 204.977,232.400 205.980 C 232.148 206.982,231.829 207.735,231.693 207.652 C 231.557 207.569,231.405 208.195,231.355 209.043 C 231.293 210.110,231.401 210.499,231.709 210.310 C 232.007 210.125,232.043 210.213,231.817 210.577 C 231.633 210.875,231.435 211.386,231.376 211.712 C 230.898 214.386,230.696 215.076,230.317 215.326 C 230.033 215.514,230.085 215.615,230.469 215.619 C 230.922 215.624,231.064 216.178,231.096 218.067 C 231.243 226.832,231.919 232.066,233.200 234.355 C 233.407 234.726,233.292 235.107,232.874 235.434 C 232.289 235.891,232.299 235.914,232.974 235.677 C 233.491 235.495,233.635 235.555,233.439 235.871 C 233.284 236.122,233.305 236.328,233.486 236.328 C 234.215 236.328,235.285 238.741,234.716 239.101 C 234.331 239.345,234.317 239.443,234.665 239.447 C 235.352 239.456,237.109 241.055,237.109 241.672 C 237.109 241.956,237.285 242.188,237.499 242.188 C 238.144 242.188,241.788 246.183,241.527 246.605 C 241.394 246.820,241.466 246.884,241.687 246.747 C 242.270 246.388,244.141 248.258,244.141 249.200 C 244.141 249.640,244.327 250.000,244.554 250.000 C 244.786 250.000,244.835 249.785,244.667 249.512 C 244.501 249.243,244.907 249.463,245.569 250.000 C 246.232 250.537,246.698 251.108,246.606 251.270 C 246.514 251.431,246.718 251.563,247.060 251.563 C 247.402 251.563,247.840 251.958,248.035 252.441 C 248.240 252.951,248.401 253.074,248.419 252.734 C 248.438 252.364,248.555 252.302,248.736 252.565 C 248.894 252.794,249.825 253.526,250.804 254.192 C 251.783 254.858,252.815 255.681,253.098 256.022 C 253.380 256.362,253.914 256.641,254.284 256.641 C 255.312 256.641,256.456 258.070,255.933 258.700 C 255.608 259.092,255.695 259.226,256.303 259.272 C 256.880 259.315,257.033 259.161,256.860 258.712 C 256.665 258.204,256.726 258.179,257.201 258.572 C 257.518 258.836,257.962 258.938,258.186 258.800 C 258.410 258.661,258.594 258.734,258.594 258.961 C 258.594 259.189,258.877 259.375,259.224 259.375 C 260.670 259.375,262.874 261.010,262.258 261.626 C 261.941 261.943,261.802 262.313,261.949 262.449 C 262.096 262.584,262.295 262.476,262.391 262.207 C 262.487 261.938,262.737 261.719,262.946 261.719 C 263.156 261.719,263.211 261.906,263.070 262.136 C 262.928 262.365,263.050 262.520,263.340 262.480 C 264.642 262.301,265.279 262.566,265.604 263.421 C 265.905 264.214,266.166 264.321,267.476 264.190 C 268.637 264.074,269.167 264.225,269.715 264.831 C 270.502 265.701,271.723 265.946,271.237 265.137 C 271.003 264.747,271.065 264.747,271.543 265.133 C 271.873 265.400,272.221 265.540,272.317 265.444 C 272.672 265.088,275.582 266.378,275.466 266.840 C 275.372 267.218,275.469 267.218,275.920 266.844 C 276.282 266.544,276.581 266.511,276.731 266.754 C 276.862 266.966,277.319 267.072,277.746 266.990 C 278.714 266.804,280.927 267.543,280.666 267.966 C 280.336 268.499,281.755 268.805,282.098 268.275 C 282.330 267.916,282.505 267.897,282.715 268.209 C 282.876 268.449,283.415 268.772,283.912 268.927 C 284.409 269.082,284.969 269.589,285.157 270.054 C 285.427 270.724,285.502 270.757,285.522 270.215 C 285.536 269.839,285.708 269.531,285.906 269.531 C 286.602 269.531,287.500 270.010,287.500 270.382 C 287.500 271.299,288.736 272.023,289.494 271.550 C 289.946 271.267,290.234 271.240,290.234 271.481 C 290.234 271.698,290.654 271.875,291.168 271.875 C 292.399 271.875,293.769 273.022,293.851 274.121 C 293.900 274.779,294.160 275.000,294.884 275.000 C 295.819 275.000,295.827 274.980,295.094 274.426 C 294.677 274.111,294.540 273.847,294.789 273.841 C 295.334 273.826,297.263 276.041,297.272 276.690 C 297.275 276.956,297.437 276.902,297.656 276.563 C 297.865 276.240,298.051 276.064,298.071 276.172 C 298.091 276.279,298.197 276.719,298.308 277.148 C 298.957 279.666,298.046 286.792,297.238 285.516 C 296.950 285.060,296.886 285.079,296.881 285.621 C 296.878 285.985,297.073 286.405,297.316 286.554 C 297.617 286.741,297.555 286.939,297.120 287.183 C 296.771 287.379,296.484 287.963,296.484 288.482 C 296.484 289.030,296.152 289.603,295.692 289.850 C 295.256 290.083,295.010 290.451,295.144 290.668 C 295.389 291.064,291.020 295.447,290.700 295.127 C 290.605 295.033,289.829 295.312,288.973 295.749 C 287.998 296.246,287.531 296.349,287.722 296.025 C 287.888 295.740,287.653 295.834,287.199 296.232 C 286.745 296.630,285.641 297.027,284.746 297.114 C 283.850 297.201,282.961 297.369,282.770 297.487 C 282.578 297.606,282.422 297.527,282.422 297.313 C 282.422 297.099,282.082 296.949,281.668 296.980 C 281.253 297.012,281.017 297.204,281.143 297.408 C 281.272 297.618,281.029 297.690,280.585 297.574 C 280.153 297.460,279.482 297.545,279.094 297.762 C 278.520 298.083,278.436 298.037,278.636 297.515 C 278.894 296.842,278.332 296.615,277.947 297.237 C 277.811 297.457,277.239 297.460,276.485 297.244 C 275.804 297.048,275.177 296.959,275.091 297.045 C 275.004 297.131,274.592 296.908,274.173 296.550 C 273.755 296.192,273.286 295.884,273.132 295.866 C 272.148 295.751,267.884 293.709,267.497 293.167 C 267.345 292.955,266.993 292.760,266.716 292.735 C 265.047 292.587,264.243 291.954,264.407 290.918 C 264.479 290.461,264.173 290.570,263.504 291.239 C 262.949 291.794,262.891 291.794,262.891 291.242 C 262.891 290.907,262.278 290.235,261.528 289.750 C 260.779 289.264,260.161 288.691,260.154 288.477 C 260.148 288.262,259.641 287.734,259.028 287.305 C 257.235 286.049,253.432 282.422,253.908 282.422 C 254.147 282.422,254.233 282.243,254.098 282.025 C 253.963 281.807,253.689 281.729,253.489 281.853 C 253.289 281.976,253.125 281.891,253.125 281.664 C 253.125 281.436,252.945 281.250,252.724 281.250 C 252.060 281.250,249.564 278.785,249.972 278.533 C 251.791 277.409,246.604 278.580,244.420 279.786 C 242.963 280.591,241.533 281.250,241.243 281.250 C 240.953 281.250,240.624 281.602,240.512 282.031 C 240.399 282.461,240.027 282.813,239.685 282.813 C 239.343 282.813,239.063 282.988,239.063 283.203 C 239.063 283.418,238.813 283.594,238.509 283.594 C 238.205 283.594,237.897 283.741,237.826 283.921 C 237.546 284.623,232.029 287.935,231.590 287.664 C 231.334 287.506,231.233 287.546,231.362 287.755 C 231.489 287.962,231.132 288.472,230.567 288.890 C 226.613 291.810,226.076 294.839,228.966 297.915 C 229.434 298.414,229.646 298.970,229.473 299.250 C 229.298 299.534,229.338 299.630,229.571 299.486 C 229.954 299.249,231.684 301.163,233.511 303.845 C 234.209 304.869,234.306 305.277,233.952 305.704 C 233.389 306.382,234.027 306.428,234.745 305.762 C 235.166 305.371,235.216 305.371,234.995 305.762 C 234.826 306.061,234.954 306.250,235.325 306.250 C 235.658 306.250,236.150 306.602,236.419 307.031 C 236.687 307.461,237.052 307.813,237.230 307.813 C 237.867 307.813,241.044 311.471,240.849 311.980 C 240.739 312.266,240.820 312.500,241.028 312.500 C 241.236 312.500,241.406 312.319,241.406 312.098 C 241.406 311.877,241.992 312.273,242.708 312.977 C 243.538 313.793,243.857 314.362,243.587 314.545 C 243.304 314.737,243.334 314.834,243.675 314.838 C 243.957 314.841,244.078 315.020,243.945 315.234 C 243.813 315.449,243.890 315.625,244.118 315.625 C 244.345 315.625,244.531 315.428,244.531 315.187 C 244.531 314.896,244.742 314.923,245.157 315.267 C 245.501 315.553,246.051 315.826,246.380 315.874 C 246.708 315.922,247.174 316.175,247.414 316.437 C 247.749 316.801,247.679 316.851,247.113 316.650 C 246.477 316.425,246.445 316.474,246.883 317.002 C 247.221 317.409,247.480 317.473,247.652 317.194 C 247.831 316.905,248.269 316.960,249.054 317.369 C 249.682 317.696,250.459 317.968,250.781 317.972 C 251.302 317.980,251.302 318.027,250.781 318.397 C 250.328 318.719,250.432 318.762,251.241 318.586 C 251.909 318.441,252.499 318.571,252.874 318.945 C 253.196 319.267,253.978 319.531,254.610 319.531 C 255.243 319.531,256.470 319.782,257.337 320.087 C 258.204 320.393,259.018 320.540,259.144 320.413 C 259.271 320.286,259.375 320.563,259.375 321.029 C 259.375 321.577,259.616 321.873,260.059 321.869 C 260.643 321.864,260.657 321.808,260.156 321.484 C 259.730 321.209,259.710 321.104,260.082 321.100 C 260.363 321.096,260.474 320.900,260.327 320.664 C 260.141 320.362,260.279 320.347,260.793 320.611 C 261.195 320.819,261.731 320.913,261.985 320.822 C 262.239 320.730,262.960 320.921,263.587 321.245 C 264.319 321.624,264.862 321.700,265.104 321.458 C 265.346 321.217,265.951 321.317,266.795 321.737 C 267.518 322.098,269.089 322.445,270.285 322.509 C 271.482 322.573,274.043 322.738,275.977 322.875 C 277.910 323.013,279.796 323.119,280.168 323.111 C 280.540 323.103,280.946 323.261,281.070 323.462 C 281.194 323.664,282.150 323.828,283.194 323.828 C 284.336 323.828,285.177 324.023,285.308 324.316 C 285.427 324.585,285.485 324.471,285.438 324.063 C 285.365 323.439,285.661 323.298,287.305 323.171 C 288.379 323.089,289.609 322.860,290.039 322.664 C 290.742 322.342,292.879 322.007,295.763 321.766 C 296.334 321.719,296.731 321.568,296.646 321.430 C 296.562 321.293,297.018 321.104,297.660 321.010 C 298.822 320.839,299.271 321.240,298.340 321.616 C 298.048 321.734,298.127 321.826,298.535 321.844 C 298.911 321.861,299.219 321.617,299.219 321.301 C 299.219 320.927,299.444 320.814,299.869 320.977 C 300.274 321.132,300.423 321.071,300.264 320.814 C 300.124 320.587,300.358 320.310,300.786 320.198 C 301.213 320.086,301.563 320.188,301.563 320.424 C 301.563 320.660,301.812 320.511,302.117 320.094 C 302.422 319.677,302.817 319.326,302.996 319.314 C 304.158 319.235,305.859 318.622,305.859 318.283 C 305.859 318.060,306.303 317.962,306.845 318.066 C 307.387 318.170,307.942 318.075,308.077 317.856 C 308.213 317.637,308.133 317.575,307.900 317.719 C 307.667 317.864,307.365 317.803,307.231 317.584 C 307.095 317.365,307.344 317.188,307.789 317.188 C 308.232 317.188,308.594 317.016,308.594 316.807 C 308.594 316.288,310.770 315.197,311.116 315.543 C 311.268 315.695,311.335 315.618,311.263 315.370 C 311.115 314.859,313.638 313.015,314.952 312.676 C 315.429 312.552,316.251 311.759,316.778 310.913 C 317.304 310.067,317.958 309.375,318.230 309.375 C 318.503 309.375,318.639 309.151,318.534 308.876 C 318.429 308.602,319.056 307.635,319.928 306.728 C 320.800 305.821,321.416 305.078,321.297 305.078 C 321.178 305.078,321.515 304.221,322.046 303.173 C 322.577 302.125,322.903 301.158,322.769 301.024 C 322.635 300.891,322.721 300.781,322.959 300.781 C 323.197 300.781,323.500 300.957,323.633 301.172 C 323.766 301.387,324.067 301.563,324.302 301.563 C 324.538 301.562,324.416 301.215,324.032 300.791 C 323.382 300.073,323.378 299.954,323.972 299.047 C 324.323 298.512,324.609 297.717,324.609 297.279 C 324.609 296.842,324.785 296.484,325.000 296.484 C 325.215 296.484,325.391 295.881,325.391 295.143 C 325.391 294.405,325.584 293.306,325.820 292.701 C 326.056 292.096,326.320 290.046,326.407 288.145 C 326.493 286.244,326.662 284.530,326.782 284.336 C 326.901 284.143,326.837 283.984,326.638 283.984 C 326.437 283.984,326.270 281.728,326.261 278.877 C 326.251 276.068,326.140 273.666,326.012 273.539 C 325.885 273.411,325.781 272.363,325.781 271.208 C 325.781 269.090,324.470 264.264,323.779 263.837 C 323.574 263.710,323.508 263.282,323.634 262.887 C 323.771 262.456,323.625 262.034,323.270 261.836 C 322.945 261.654,322.620 261.121,322.548 260.653 C 322.477 260.185,321.988 259.370,321.463 258.844 C 320.259 257.637,319.531 256.737,319.531 256.455 C 319.531 256.335,318.960 255.662,318.262 254.960 C 316.400 253.087,315.271 251.656,315.487 251.440 C 315.592 251.335,315.358 251.276,314.967 251.309 C 314.577 251.341,314.302 251.147,314.355 250.879 C 314.409 250.610,314.285 250.391,314.080 250.391 C 313.875 250.391,313.277 249.995,312.750 249.512 C 311.203 248.091,310.604 247.656,310.192 247.656 C 309.979 247.656,309.625 247.349,309.406 246.973 C 309.187 246.597,309.003 246.460,308.996 246.669 C 308.990 246.878,308.711 246.658,308.376 246.181 C 307.765 245.308,306.250 244.970,306.250 245.706 C 306.250 245.944,305.951 245.913,305.494 245.628 C 305.078 245.369,304.802 245.052,304.881 244.925 C 305.003 244.727,303.855 244.524,302.068 244.427 C 301.809 244.413,301.687 244.255,301.798 244.076 C 301.909 243.896,301.725 243.750,301.390 243.750 C 301.055 243.750,300.781 243.574,300.781 243.359 C 300.781 243.145,300.604 242.969,300.386 242.969 C 300.169 242.969,299.186 242.590,298.201 242.127 C 296.702 241.423,296.353 241.375,296.063 241.834 C 295.788 242.268,295.714 242.230,295.709 241.651 C 295.704 241.046,295.602 241.004,295.117 241.406 C 294.640 241.802,294.531 241.783,294.531 241.301 C 294.531 240.776,292.860 240.002,292.090 240.170 C 291.929 240.206,291.797 239.950,291.797 239.603 C 291.797 239.168,291.559 239.034,291.031 239.172 C 290.112 239.412,287.373 238.539,287.778 238.134 C 287.934 237.977,287.797 237.951,287.473 238.075 C 286.800 238.334,282.211 236.957,281.308 236.227 C 280.816 235.829,280.769 235.841,281.044 236.297 C 281.305 236.729,281.214 236.786,280.630 236.552 C 280.219 236.387,279.707 236.217,279.492 236.174 C 279.277 236.131,278.718 235.884,278.248 235.626 C 277.779 235.368,277.121 235.156,276.786 235.156 C 275.789 235.156,274.120 233.513,274.704 233.107 C 275.009 232.894,274.751 232.845,274.023 232.975 C 273.311 233.103,272.469 232.949,271.875 232.581 C 271.338 232.249,271.215 232.075,271.602 232.195 C 272.029 232.327,272.208 232.254,272.058 232.011 C 271.921 231.790,271.501 231.707,271.124 231.826 C 270.359 232.069,267.578 231.038,267.578 230.512 C 267.578 230.327,267.045 230.069,266.394 229.939 C 265.029 229.666,263.508 228.104,262.819 226.270 C 262.557 225.571,262.192 225.000,262.008 225.000 C 261.823 225.000,261.798 225.203,261.951 225.451 C 262.124 225.730,262.059 225.796,261.779 225.623 C 261.531 225.470,261.328 225.149,261.328 224.910 C 261.328 224.671,261.057 224.176,260.725 223.809 C 260.108 223.128,260.002 222.715,259.578 219.367 C 259.314 217.276,259.906 215.234,260.777 215.234 C 261.070 215.234,261.210 214.990,261.092 214.684 C 260.964 214.349,261.210 214.029,261.720 213.867 C 262.181 213.720,262.466 213.508,262.353 213.394 C 262.083 213.125,263.104 212.109,263.644 212.109 C 263.874 212.109,264.063 211.846,264.063 211.523 C 264.063 211.201,264.249 210.938,264.476 210.938 C 264.704 210.938,264.766 211.157,264.614 211.426 C 264.462 211.694,264.724 211.517,265.194 211.033 C 266.539 209.649,267.888 208.890,268.440 209.209 C 268.718 209.369,268.822 209.363,268.671 209.196 C 268.520 209.028,268.639 208.649,268.936 208.352 C 269.609 207.679,270.067 207.647,269.675 208.301 C 269.486 208.615,269.624 208.592,270.062 208.237 C 270.436 207.933,271.393 207.672,272.188 207.657 C 272.982 207.642,273.859 207.412,274.137 207.147 C 275.022 206.300,279.169 206.669,278.642 207.548 C 278.433 207.896,278.502 207.899,278.929 207.560 C 279.239 207.314,280.679 207.123,282.129 207.135 C 284.752 207.158,285.044 207.331,284.802 208.720 C 284.771 208.898,284.929 208.929,285.153 208.791 C 285.377 208.653,285.466 208.388,285.351 208.202 C 285.236 208.016,285.698 207.880,286.378 207.899 C 287.441 207.930,287.524 208.001,286.971 208.405 C 286.177 208.985,286.155 209.245,286.897 209.245 C 287.210 209.245,287.551 209.024,287.655 208.754 C 287.762 208.476,288.189 208.354,288.644 208.473 C 289.109 208.595,289.333 208.869,289.178 209.126 C 289.019 209.393,289.157 209.373,289.522 209.077 C 290.018 208.675,290.221 208.693,290.621 209.175 C 290.891 209.500,291.353 209.766,291.649 209.766 C 291.945 209.766,292.188 209.952,292.188 210.179 C 292.188 210.407,292.373 210.479,292.599 210.339 C 292.825 210.199,293.352 210.479,293.771 210.961 C 294.565 211.877,294.751 212.291,294.220 211.963 C 294.048 211.857,293.653 211.932,293.341 212.129 C 292.929 212.390,293.128 212.490,294.066 212.494 C 294.987 212.498,295.280 212.360,295.084 212.012 C 294.932 211.743,295.424 212.130,296.176 212.870 C 297.102 213.783,297.487 214.476,297.370 215.019 C 297.229 215.676,297.273 215.715,297.616 215.234 C 297.851 214.905,298.038 214.844,298.041 215.095 C 298.071 217.364,304.016 220.819,306.058 219.755 C 306.701 219.420,307.081 219.144,306.904 219.143 C 306.014 219.136,309.196 217.067,310.149 217.032 C 310.760 217.010,311.186 216.918,311.096 216.826 C 310.728 216.455,313.025 215.340,313.806 215.510 C 314.425 215.644,314.508 215.593,314.118 215.317 C 313.428 214.827,314.137 214.371,315.101 214.684 C 315.639 214.858,315.686 214.822,315.290 214.539 C 314.677 214.101,315.364 213.464,316.016 213.867 C 316.230 214.000,316.406 213.922,316.406 213.695 C 316.406 213.467,316.645 213.281,316.938 213.281 C 317.230 213.281,318.104 212.682,318.880 211.950 C 319.657 211.218,320.476 210.557,320.701 210.482 C 320.926 210.407,321.151 209.776,321.200 209.080 C 321.249 208.384,321.402 207.814,321.540 207.813 C 321.678 207.813,321.896 207.540,322.024 207.206 C 322.157 206.859,322.092 206.702,321.871 206.839 C 321.658 206.970,321.484 206.708,321.484 206.257 C 321.484 204.362,316.120 194.984,315.409 195.634 C 315.249 195.779,315.216 195.503,315.336 195.019 C 315.455 194.535,315.393 194.238,315.198 194.358 C 315.003 194.479,314.844 194.391,314.844 194.164 C 314.844 193.936,314.706 193.794,314.537 193.848 C 314.368 193.901,313.381 193.110,312.345 192.090 C 311.308 191.069,310.293 190.234,310.090 190.234 C 309.886 190.234,309.817 190.076,309.936 189.883 C 310.056 189.691,309.276 188.970,308.203 188.281 C 307.126 187.590,306.367 186.846,306.507 186.619 C 306.647 186.392,306.579 186.320,306.355 186.458 C 305.837 186.779,303.516 185.983,303.516 185.486 C 303.516 185.279,303.382 185.193,303.218 185.294 C 303.055 185.395,301.561 184.826,299.898 184.029 C 298.235 183.232,296.875 182.684,296.875 182.810 C 296.875 182.936,296.019 183.032,294.972 183.024 C 293.727 183.013,293.128 182.856,293.238 182.567 C 293.435 182.053,290.831 181.468,290.167 181.877 C 289.917 182.032,289.830 181.980,289.967 181.757 C 290.124 181.503,288.995 181.354,286.805 181.340 C 281.108 181.304,280.416 181.261,280.604 180.957 C 280.703 180.796,280.142 180.647,279.357 180.625 C 278.572 180.604,277.314 180.468,276.563 180.323 C 275.597 180.138,275.058 180.224,274.727 180.618 M180.262 183.053 C 179.953 183.543,179.148 183.697,176.690 183.737 C 174.944 183.766,173.596 183.920,173.693 184.079 C 173.791 184.239,173.466 184.359,172.971 184.345 C 172.475 184.331,171.319 184.396,170.400 184.489 C 169.481 184.582,168.640 184.514,168.532 184.338 C 168.423 184.162,168.074 184.118,167.756 184.240 C 167.438 184.363,166.944 184.268,166.658 184.031 C 166.373 183.794,166.023 183.716,165.882 183.858 C 165.741 183.999,165.625 183.783,165.625 183.377 C 165.625 182.704,165.572 182.714,165.027 183.493 C 164.545 184.181,164.249 184.278,163.505 183.995 C 162.996 183.802,162.514 183.710,162.434 183.790 C 162.163 184.061,159.979 184.431,157.813 184.573 C 156.631 184.651,155.093 184.801,154.395 184.907 C 153.574 185.031,153.123 184.937,153.119 184.640 C 153.114 184.290,153.042 184.291,152.818 184.643 C 152.641 184.922,152.059 185.019,151.359 184.886 C 150.719 184.764,147.939 184.608,145.182 184.540 C 141.811 184.456,139.962 184.249,139.540 183.907 C 139.072 183.527,138.987 183.522,139.206 183.887 C 139.421 184.245,139.083 184.375,137.937 184.375 C 137.077 184.375,136.260 184.191,136.121 183.965 C 135.951 183.690,135.667 183.722,135.257 184.063 C 134.921 184.342,134.541 184.509,134.413 184.434 C 133.263 183.762,132.813 183.616,132.813 183.915 C 132.813 184.107,132.241 184.220,131.543 184.168 C 130.845 184.116,129.692 184.053,128.981 184.029 C 128.111 183.999,127.779 183.837,127.967 183.533 C 128.141 183.252,128.074 183.189,127.788 183.365 C 127.537 183.521,127.405 183.767,127.495 183.914 C 127.585 184.060,125.962 184.231,123.888 184.293 C 119.502 184.426,118.913 184.556,118.611 185.462 C 118.488 185.831,118.014 186.591,117.558 187.151 C 116.884 187.978,116.728 188.695,116.728 190.960 C 116.728 192.494,116.564 193.750,116.364 193.750 C 115.975 193.750,116.358 195.828,116.780 196.003 C 116.918 196.060,116.908 197.115,116.757 198.346 C 116.336 201.766,116.561 207.929,117.113 208.113 C 117.369 208.198,117.578 208.590,117.578 208.982 C 117.578 210.136,119.869 211.815,121.181 211.623 C 121.965 211.508,122.243 211.605,122.111 211.949 C 121.987 212.272,122.214 212.392,122.778 212.300 C 124.534 212.014,125.211 211.995,125.781 212.220 C 126.719 212.589,129.640 212.739,129.435 212.408 C 129.333 212.242,129.919 212.202,130.738 212.320 C 131.828 212.476,132.070 212.426,131.641 212.132 C 131.028 211.712,130.995 211.721,133.700 211.602 C 134.188 211.580,134.823 211.708,135.111 211.886 C 135.401 212.065,135.745 212.046,135.884 211.842 C 136.171 211.419,137.921 211.353,137.660 211.775 C 137.334 212.304,138.349 212.588,138.804 212.096 C 139.158 211.713,139.129 211.673,138.672 211.914 C 138.215 212.156,138.186 212.115,138.540 211.732 C 139.067 211.161,139.984 211.566,139.594 212.197 C 139.437 212.452,139.515 212.508,139.790 212.338 C 140.041 212.183,140.146 211.892,140.022 211.692 C 139.899 211.492,140.082 211.328,140.430 211.328 C 140.777 211.328,140.961 211.492,140.837 211.692 C 140.713 211.892,140.795 212.168,141.019 212.307 C 141.243 212.445,141.377 212.337,141.318 212.068 C 141.237 211.698,142.533 211.546,146.601 211.449 C 152.559 211.308,153.516 211.542,153.223 213.072 C 153.081 213.814,153.198 214.063,153.690 214.063 C 154.195 214.063,154.318 214.355,154.224 215.332 C 154.147 216.135,153.912 216.562,153.584 216.494 C 153.300 216.435,153.180 216.570,153.318 216.794 C 153.457 217.017,153.753 217.087,153.977 216.949 C 154.502 216.624,155.064 217.518,155.072 218.689 C 155.076 219.268,154.801 219.677,154.324 219.802 C 153.372 220.051,152.920 221.094,153.765 221.094 C 154.181 221.094,154.303 221.315,154.142 221.777 C 153.944 222.347,154.002 222.335,154.491 221.703 C 154.814 221.286,155.078 221.120,155.078 221.335 C 155.078 221.550,154.820 222.067,154.505 222.484 C 153.881 223.309,153.685 225.183,154.260 224.827 C 154.455 224.707,154.531 224.213,154.429 223.730 C 154.259 222.927,154.282 222.913,154.700 223.570 C 155.213 224.379,154.858 227.886,154.297 227.539 C 154.110 227.423,154.144 227.903,154.373 228.606 C 155.024 230.601,154.916 232.313,154.102 232.898 C 153.843 233.084,153.853 233.415,154.130 233.875 C 154.361 234.257,154.572 235.584,154.600 236.823 C 154.627 238.062,154.773 239.276,154.924 239.520 C 155.085 239.781,155.026 239.857,154.780 239.705 C 154.532 239.552,154.255 239.927,154.102 240.625 C 153.948 241.323,153.672 241.698,153.423 241.545 C 153.158 241.380,153.120 241.472,153.320 241.796 C 153.566 242.194,153.750 242.148,154.161 241.586 C 154.451 241.190,154.701 241.032,154.717 241.234 C 154.732 241.436,154.821 242.008,154.913 242.504 C 155.005 243.001,154.942 243.322,154.773 243.217 C 154.604 243.113,154.448 244.430,154.426 246.143 C 154.404 247.857,154.293 249.353,154.178 249.468 C 154.064 249.582,154.149 250.190,154.368 250.818 C 154.698 251.764,154.639 252.076,154.025 252.640 C 153.617 253.014,153.512 253.167,153.790 252.980 C 154.174 252.721,154.297 252.974,154.297 254.021 C 154.297 254.782,154.517 255.498,154.785 255.613 C 155.054 255.729,154.833 255.763,154.296 255.689 C 153.425 255.570,153.314 255.699,153.285 256.863 C 153.266 257.583,153.399 258.080,153.579 257.969 C 153.759 257.857,153.906 257.396,153.906 256.943 C 153.906 256.490,154.027 256.240,154.174 256.387 C 154.700 256.914,154.720 263.736,154.194 263.439 C 153.861 263.251,153.832 263.299,154.102 263.593 C 154.620 264.159,154.375 270.798,153.849 270.472 C 153.592 270.314,153.585 270.479,153.829 270.955 C 155.131 273.494,155.323 278.987,154.160 280.446 C 153.820 280.872,153.822 280.943,154.166 280.737 C 154.887 280.304,155.007 281.309,154.437 283.008 C 153.985 284.357,153.988 284.473,154.462 283.858 C 155.004 283.155,155.022 284.598,154.505 287.207 C 154.431 287.583,154.485 287.891,154.626 287.892 C 154.767 287.892,154.900 288.463,154.921 289.161 L 154.960 290.430 154.491 289.307 C 154.055 288.262,154.008 288.242,153.806 289.014 C 153.686 289.471,153.713 289.768,153.866 289.673 C 154.019 289.579,154.161 290.129,154.183 290.896 C 154.205 291.663,154.441 292.426,154.707 292.590 C 154.974 292.755,155.084 293.171,154.952 293.515 C 154.817 293.867,154.910 294.141,155.165 294.141 C 155.414 294.141,155.300 294.373,154.912 294.657 C 154.328 295.084,154.182 295.871,154.066 299.217 C 153.972 301.940,153.764 303.365,153.428 303.578 C 153.038 303.826,153.035 303.896,153.418 303.900 C 154.041 303.908,154.055 305.554,153.437 306.172 C 153.073 306.536,153.073 306.641,153.437 306.641 C 153.714 306.641,153.906 307.210,153.906 308.031 C 153.906 309.039,153.772 309.341,153.418 309.128 C 153.045 308.904,153.033 308.968,153.366 309.398 C 153.830 309.998,153.821 311.414,153.343 312.695 C 153.105 313.334,153.132 313.370,153.493 312.891 C 153.839 312.433,153.914 312.726,153.838 314.230 C 153.775 315.467,153.910 316.212,154.214 316.314 C 154.474 316.400,154.688 316.819,154.688 317.243 C 154.688 317.668,154.512 317.906,154.297 317.773 C 154.082 317.641,153.906 317.737,153.906 317.987 C 153.906 318.238,154.135 318.355,154.414 318.248 C 154.693 318.141,155.603 318.562,156.437 319.183 C 157.270 319.804,158.184 320.313,158.468 320.313 C 158.752 320.313,158.984 320.478,158.984 320.679 C 158.984 320.881,159.731 321.155,160.645 321.288 C 163.015 321.635,163.676 321.635,165.388 321.291 C 166.633 321.041,166.852 321.084,166.591 321.528 C 166.376 321.894,166.516 321.865,167.023 321.439 C 167.797 320.788,171.484 320.105,171.484 320.613 C 171.484 321.173,178.662 320.766,180.199 320.118 C 181.027 319.769,182.813 316.266,182.813 314.989 C 182.813 314.505,182.991 313.998,183.209 313.863 C 183.428 313.728,183.506 313.455,183.383 313.256 C 182.695 312.143,182.441 306.778,182.507 294.727 C 182.522 291.934,182.508 287.891,182.476 285.742 C 182.436 283.049,182.538 282.018,182.805 282.422 C 183.038 282.776,183.194 282.824,183.197 282.543 C 183.200 282.287,183.045 281.980,182.852 281.860 C 182.659 281.741,182.495 277.157,182.487 271.674 C 182.475 264.086,182.583 261.770,182.935 261.981 C 183.279 262.188,183.277 262.109,182.926 261.675 C 182.431 261.063,182.110 236.900,182.590 236.420 C 182.717 236.293,182.737 235.649,182.634 234.989 C 182.530 234.329,182.354 233.014,182.241 232.067 C 182.129 231.119,181.949 230.256,181.842 230.149 C 181.735 230.042,181.866 229.685,182.132 229.355 C 182.519 228.878,182.518 228.816,182.129 229.050 C 181.792 229.252,181.641 229.049,181.641 228.392 C 181.641 226.673,182.114 225.005,182.530 225.262 C 182.752 225.399,182.830 225.345,182.704 225.141 C 182.578 224.937,182.431 222.932,182.377 220.686 C 182.323 218.440,182.126 216.397,181.941 216.148 C 181.743 215.882,181.772 215.590,182.012 215.441 C 182.238 215.302,182.422 214.847,182.422 214.430 C 182.422 214.013,182.643 213.672,182.914 213.672 C 183.185 213.672,183.888 213.225,184.477 212.680 C 185.065 212.134,185.547 211.905,185.547 212.172 C 185.547 212.549,185.651 212.552,186.016 212.187 C 186.614 211.589,187.244 211.576,186.877 212.170 C 186.723 212.418,186.757 212.525,186.951 212.407 C 187.146 212.289,188.184 212.077,189.258 211.935 C 190.332 211.793,191.782 211.588,192.480 211.478 C 193.456 211.326,193.750 211.421,193.750 211.890 C 193.750 212.225,194.058 212.513,194.434 212.530 C 194.810 212.546,195.415 212.617,195.779 212.687 C 196.143 212.758,197.061 212.483,197.819 212.077 C 199.179 211.348,199.202 211.349,199.612 212.115 C 199.841 212.541,200.241 212.888,200.502 212.885 C 200.800 212.881,200.759 212.738,200.391 212.500 C 199.509 211.930,200.156 212.034,201.350 212.654 C 201.927 212.953,202.255 213.276,202.078 213.371 C 201.902 213.466,202.021 213.459,202.344 213.356 C 202.666 213.253,203.237 213.156,203.613 213.141 C 203.989 213.126,204.297 212.956,204.297 212.763 C 204.297 212.569,204.793 212.484,205.400 212.573 C 206.033 212.666,206.721 212.502,207.014 212.189 C 207.295 211.888,207.633 211.802,207.766 211.998 C 207.899 212.194,208.623 212.327,209.375 212.293 C 210.127 212.260,211.076 212.401,211.484 212.607 C 213.896 213.822,215.619 213.448,217.631 211.271 C 218.685 210.131,219.467 208.989,219.369 208.734 C 219.271 208.479,219.527 207.610,219.939 206.803 C 220.468 205.764,220.660 204.672,220.597 203.058 C 220.548 201.806,220.614 200.781,220.744 200.781 C 220.873 200.781,220.877 199.419,220.751 197.754 C 220.626 196.089,220.520 193.556,220.515 192.126 C 220.511 190.696,220.400 189.700,220.269 189.913 C 220.138 190.126,219.920 189.890,219.786 189.388 C 219.419 188.017,219.475 187.786,220.117 188.032 C 220.439 188.156,220.703 188.098,220.703 187.905 C 220.703 187.711,220.355 187.442,219.930 187.307 C 219.504 187.172,219.194 186.941,219.240 186.793 C 219.674 185.391,216.971 184.312,212.500 184.101 C 210.459 184.004,208.731 183.765,208.660 183.568 C 208.589 183.371,208.287 183.454,207.988 183.753 C 207.302 184.439,200.474 184.515,199.632 183.846 C 199.198 183.501,199.136 183.510,199.362 183.887 C 199.523 184.155,199.469 184.375,199.242 184.375 C 199.014 184.375,198.828 184.105,198.828 183.775 C 198.828 183.332,198.650 183.266,198.145 183.525 C 197.236 183.989,195.066 184.389,194.815 184.138 C 194.705 184.028,192.619 183.882,190.179 183.812 C 187.739 183.743,184.928 183.561,183.933 183.407 C 182.790 183.231,182.030 183.280,181.870 183.539 C 181.501 184.136,180.479 183.631,180.731 182.975 C 181.016 182.230,180.753 182.274,180.262 183.053 M202.953 206.993 C 202.852 207.157,203.008 207.292,203.300 207.292 C 203.593 207.292,203.738 207.048,203.624 206.751 C 203.464 206.332,203.670 206.272,204.540 206.486 C 205.906 206.820,206.310 207.360,205.846 208.228 C 205.654 208.588,205.622 209.031,205.775 209.213 C 205.929 209.395,205.755 209.315,205.388 209.036 C 205.022 208.756,204.538 208.640,204.314 208.778 C 204.090 208.917,203.906 208.723,203.906 208.347 C 203.906 207.714,203.867 207.717,203.379 208.384 C 202.886 209.058,202.826 209.027,202.435 207.906 C 202.205 207.246,202.115 206.609,202.235 206.489 C 202.541 206.183,203.178 206.630,202.953 206.993 M153.131 228.761 C 153.143 229.433,153.806 230.165,154.048 229.773 C 154.180 229.560,154.027 229.168,153.707 228.903 C 153.387 228.637,153.128 228.573,153.131 228.761 M248.989 232.863 C 248.907 232.998,248.442 233.209,247.955 233.332 C 247.101 233.547,247.097 233.535,247.829 232.988 C 248.246 232.677,248.367 232.422,248.098 232.422 C 247.830 232.422,247.718 232.248,247.849 232.035 C 248.000 231.792,248.282 231.828,248.612 232.133 C 248.901 232.399,249.070 232.728,248.989 232.863 M250.406 254.688 C 249.979 255.796,250.145 256.229,250.969 256.161 C 251.553 256.113,251.794 255.899,251.660 255.550 C 251.501 255.137,251.385 255.124,251.157 255.493 C 250.947 255.832,250.805 255.756,250.671 255.232 C 250.567 254.825,250.447 254.580,250.406 254.688 M278.626 267.375 C 278.793 267.572,278.558 267.932,278.102 268.176 C 277.326 268.591,277.349 268.620,278.464 268.620 C 279.179 268.620,279.747 268.378,279.887 268.013 C 280.015 267.680,279.994 267.532,279.842 267.684 C 279.689 267.837,279.284 267.750,278.942 267.490 C 278.600 267.230,278.458 267.179,278.626 267.375 M289.063 270.946 C 289.063 271.465,288.956 271.492,288.477 271.094 C 288.154 270.826,287.891 270.541,287.891 270.460 C 287.891 270.379,288.154 270.313,288.477 270.313 C 288.799 270.313,289.063 270.598,289.063 270.946 M297.382 277.590 C 297.518 277.726,297.462 278.148,297.259 278.528 C 297.002 279.008,297.038 279.276,297.377 279.406 C 297.691 279.526,297.880 279.194,297.910 278.468 C 297.935 277.850,297.771 277.344,297.546 277.344 C 297.320 277.344,297.246 277.455,297.382 277.590 M153.338 282.352 C 153.004 283.860,153.174 284.231,153.765 283.283 C 153.994 282.917,154.056 282.266,153.904 281.836 C 153.667 281.171,153.584 281.247,153.338 282.352 M314.877 289.494 C 314.671 290.009,314.492 290.200,314.478 289.918 C 314.464 289.637,314.277 289.516,314.063 289.648 C 313.848 289.781,313.672 289.712,313.672 289.496 C 313.672 289.115,314.920 288.227,315.142 288.449 C 315.202 288.509,315.083 288.979,314.877 289.494 M171.995 297.517 C 171.738 297.621,171.610 297.920,171.710 298.181 C 171.810 298.442,171.652 298.984,171.358 299.386 C 170.851 300.079,170.826 300.070,170.861 299.204 C 170.888 298.544,170.628 298.219,169.922 298.031 C 168.954 297.773,168.956 297.769,170.117 297.577 C 171.720 297.311,172.566 297.285,171.995 297.517 M156.385 320.492 C 156.526 320.858,156.641 321.319,156.641 321.516 C 156.641 321.714,156.904 321.875,157.227 321.875 C 158.049 321.875,157.956 321.390,156.971 320.547 C 156.223 319.906,156.158 319.900,156.385 320.492 M178.385 320.964 C 177.965 321.384,178.085 321.745,178.646 321.745 C 178.932 321.745,179.167 321.510,179.167 321.224 C 179.167 320.663,178.806 320.543,178.385 320.964 M176.172 321.484 C 175.367 321.742,175.333 321.803,175.977 321.830 C 176.406 321.848,177.021 321.693,177.344 321.484 C 178.028 321.042,177.553 321.042,176.172 321.484 M170.020 321.754 C 170.396 321.852,171.011 321.852,171.387 321.754 C 171.763 321.655,171.455 321.575,170.703 321.575 C 169.951 321.575,169.644 321.655,170.020 321.754 M116.830 347.440 C 117.027 347.319,117.188 347.400,117.188 347.621 C 117.188 347.842,117.482 347.909,117.841 347.771 C 118.337 347.581,118.434 347.679,118.244 348.174 C 118.100 348.549,118.183 348.828,118.437 348.828 C 118.681 348.828,118.775 348.933,118.647 349.061 C 118.254 349.454,116.014 347.918,116.046 347.279 C 116.067 346.874,116.141 346.839,116.275 347.170 C 116.384 347.440,116.634 347.562,116.830 347.440 M320.032 352.219 C 319.937 352.473,319.550 352.658,319.172 352.629 C 318.534 352.581,318.529 352.502,319.106 351.497 C 319.729 350.412,320.487 351.003,320.032 352.219 M216.797 357.947 C 216.797 358.731,215.311 359.319,215.125 358.609 C 214.958 357.970,215.103 357.813,215.857 357.813 C 216.374 357.813,216.797 357.873,216.797 357.947 M258.398 361.806 C 258.613 361.966,258.299 362.100,257.699 362.103 C 256.786 362.108,256.691 362.021,257.114 361.563 C 257.391 361.262,257.705 361.128,257.813 361.265 C 257.920 361.402,258.184 361.646,258.398 361.806 M183.301 361.731 C 182.158 362.190,182.188 362.402,183.398 362.402 C 183.967 362.402,184.375 362.178,184.375 361.865 C 184.375 361.570,184.331 361.339,184.277 361.353 C 184.224 361.367,183.784 361.537,183.301 361.731 M345.801 362.379 C 346.177 362.477,346.792 362.477,347.168 362.379 C 347.544 362.280,347.236 362.200,346.484 362.200 C 345.732 362.200,345.425 362.280,345.801 362.379 " stroke="none" fill="#000000" fill-rule="evenodd"/></g></svg>